  0
SECTION
  2
HEADER
  9
$ACADVER
  1
AC1018
  9
$ACADMAINTVER
 70
   104
  9
$DWGCODEPAGE
  3
ANSI_936
  9
$LASTSAVEDBY
  1
Administrator
  9
$INSBASE
 10
0.0
 20
0.0
 30
0.0
  9
$EXTMIN
 10
-28.9782791202514
 20
10.0
 30
0.0
  9
$EXTMAX
 10
387.5
 20
339.9999999999999
 30
0.0
  9
$LIMMIN
 10
0.0
 20
0.0
  9
$LIMMAX
 10
500.0
 20
300.0
  9
$ORTHOMODE
 70
     0
  9
$REGENMODE
 70
     1
  9
$FILLMODE
 70
     1
  9
$QTEXTMODE
 70
     0
  9
$MIRRTEXT
 70
     1
  9
$LTSCALE
 40
0.35
  9
$ATTMODE
 70
     1
  9
$TEXTSIZE
 40
3.5
  9
$TRACEWID
 40
1.0
  9
$TEXTSTYLE
  7
STANDARD
  9
$CLAYER
  8
2
  9
$CELTYPE
  6
BYLAYER
  9
$CECOLOR
 62
   256
  9
$CELTSCALE
 40
1.0
  9
$DISPSILH
 70
     0
  9
$DIMSCALE
 40
1.0
  9
$DIMASZ
 40
4.0
  9
$DIMEXO
 40
0.625
  9
$DIMDLI
 40
8.0
  9
$DIMRND
 40
0.0
  9
$DIMDLE
 40
0.0
  9
$DIMEXE
 40
2.0
  9
$DIMTP
 40
0.0
  9
$DIMTM
 40
0.0
  9
$DIMTXT
 40
4.0
  9
$DIMCEN
 40
2.5
  9
$DIMTSZ
 40
0.0
  9
$DIMTOL
 70
     0
  9
$DIMLIM
 70
     0
  9
$DIMTIH
 70
     0
  9
$DIMTOH
 70
     0
  9
$DIMSE1
 70
     0
  9
$DIMSE2
 70
     0
  9
$DIMTAD
 70
     1
  9
$DIMZIN
 70
     8
  9
$DIMBLK
  1

  9
$DIMASO
 70
     1
  9
$DIMSHO
 70
     1
  9
$DIMPOST
  1

  9
$DIMAPOST
  1

  9
$DIMALT
 70
     0
  9
$DIMALTD
 70
     4
  9
$DIMALTF
 40
0.0394
  9
$DIMLFAC
 40
1.0
  9
$DIMTOFL
 70
     1
  9
$DIMTVP
 40
0.0
  9
$DIMTIX
 70
     0
  9
$DIMSOXD
 70
     0
  9
$DIMSAH
 70
     0
  9
$DIMBLK1
  1

  9
$DIMBLK2
  1

  9
$DIMSTYLE
  2
STANDARD
  9
$DIMCLRD
 70
     0
  9
$DIMCLRE
 70
     0
  9
$DIMCLRT
 70
     0
  9
$DIMTFAC
 40
1.0
  9
$DIMGAP
 40
0.625
  9
$DIMJUST
 70
     0
  9
$DIMSD1
 70
     0
  9
$DIMSD2
 70
     0
  9
$DIMTOLJ
 70
     1
  9
$DIMTZIN
 70
     0
  9
$DIMALTZ
 70
     0
  9
$DIMALTTZ
 70
     0
  9
$DIMUPT
 70
     0
  9
$DIMDEC
 70
     4
  9
$DIMTDEC
 70
     4
  9
$DIMALTU
 70
     8
  9
$DIMALTTD
 70
     4
  9
$DIMTXSTY
  7
STANDARD
  9
$DIMAUNIT
 70
     0
  9
$DIMADEC
 70
     0
  9
$DIMALTRND
 40
0.0
  9
$DIMAZIN
 70
     0
  9
$DIMDSEP
 70
    46
  9
$DIMATFIT
 70
     3
  9
$DIMFRAC
 70
     0
  9
$DIMLDRBLK
  1

  9
$DIMLUNIT
 70
     6
  9
$DIMLWD
 70
    -2
  9
$DIMLWE
 70
    -2
  9
$DIMTMOVE
 70
     0
  9
$LUNITS
 70
     2
  9
$LUPREC
 70
     4
  9
$SKETCHINC
 40
1.0
  9
$FILLETRAD
 40
10.0
  9
$AUNITS
 70
     0
  9
$AUPREC
 70
     0
  9
$MENU
  1
.
  9
$ELEVATION
 40
0.0
  9
$PELEVATION
 40
0.0
  9
$THICKNESS
 40
0.0
  9
$LIMCHECK
 70
     0
  9
$CHAMFERA
 40
10.0
  9
$CHAMFERB
 40
10.0
  9
$CHAMFERC
 40
20.0
  9
$CHAMFERD
 40
0.0
  9
$SKPOLY
 70
     0
  9
$TDCREATE
 40
2452268.600270718
  9
$TDUCREATE
 40
2452268.266937384
  9
$TDUPDATE
 40
2455374.662674514
  9
$TDUUPDATE
 40
2455374.329341181
  9
$TDINDWG
 40
4.8735094444
  9
$TDUSRTIMER
 40
4.8735076389
  9
$USRTIMER
 70
     1
  9
$ANGBASE
 50
0.0
  9
$ANGDIR
 70
     0
  9
$PDMODE
 70
     0
  9
$PDSIZE
 40
0.0
  9
$PLINEWID
 40
0.0
  9
$SPLFRAME
 70
     0
  9
$SPLINETYPE
 70
     6
  9
$SPLINESEGS
 70
     8
  9
$HANDSEED
  5
16B1
  9
$SURFTAB1
 70
     6
  9
$SURFTAB2
 70
     6
  9
$SURFTYPE
 70
     6
  9
$SURFU
 70
     6
  9
$SURFV
 70
     6
  9
$UCSBASE
  2

  9
$UCSNAME
  2

  9
$UCSORG
 10
0.0
 20
0.0
 30
0.0
  9
$UCSXDIR
 10
1.0
 20
0.0
 30
0.0
  9
$UCSYDIR
 10
0.0
 20
1.0
 30
0.0
  9
$UCSORTHOREF
  2

  9
$UCSORTHOVIEW
 70
     0
  9
$UCSORGTOP
 10
0.0
 20
0.0
 30
0.0
  9
$UCSORGBOTTOM
 10
0.0
 20
0.0
 30
0.0
  9
$UCSORGLEFT
 10
0.0
 20
0.0
 30
0.0
  9
$UCSORGRIGHT
 10
0.0
 20
0.0
 30
0.0
  9
$UCSORGFRONT
 10
0.0
 20
0.0
 30
0.0
  9
$UCSORGBACK
 10
0.0
 20
0.0
 30
0.0
  9
$PUCSBASE
  2

  9
$PUCSNAME
  2

  9
$PUCSORG
 10
0.0
 20
0.0
 30
0.0
  9
$PUCSXDIR
 10
1.0
 20
0.0
 30
0.0
  9
$PUCSYDIR
 10
0.0
 20
1.0
 30
0.0
  9
$PUCSORTHOREF
  2

  9
$PUCSORTHOVIEW
 70
     0
  9
$PUCSORGTOP
 10
0.0
 20
0.0
 30
0.0
  9
$PUCSORGBOTTOM
 10
0.0
 20
0.0
 30
0.0
  9
$PUCSORGLEFT
 10
0.0
 20
0.0
 30
0.0
  9
$PUCSORGRIGHT
 10
0.0
 20
0.0
 30
0.0
  9
$PUCSORGFRONT
 10
0.0
 20
0.0
 30
0.0
  9
$PUCSORGBACK
 10
0.0
 20
0.0
 30
0.0
  9
$USERI1
 70
     0
  9
$USERI2
 70
     0
  9
$USERI3
 70
     0
  9
$USERI4
 70
     0
  9
$USERI5
 70
     0
  9
$USERR1
 40
0.0
  9
$USERR2
 40
0.0
  9
$USERR3
 40
0.0
  9
$USERR4
 40
0.0
  9
$USERR5
 40
0.0
  9
$WORLDVIEW
 70
     1
  9
$SHADEDGE
 70
     3
  9
$SHADEDIF
 70
    70
  9
$TILEMODE
 70
     1
  9
$MAXACTVP
 70
    48
  9
$PINSBASE
 10
0.0
 20
0.0
 30
0.0
  9
$PLIMCHECK
 70
     0
  9
$PEXTMIN
 10
1.000000000000000E+20
 20
1.000000000000000E+20
 30
1.000000000000000E+20
  9
$PEXTMAX
 10
-1.000000000000000E+20
 20
-1.000000000000000E+20
 30
-1.000000000000000E+20
  9
$PLIMMIN
 10
0.0
 20
0.0
  9
$PLIMMAX
 10
420.0
 20
297.0
  9
$UNITMODE
 70
     0
  9
$VISRETAIN
 70
     1
  9
$PLINEGEN
 70
     0
  9
$PSLTSCALE
 70
     1
  9
$TREEDEPTH
 70
  3020
  9
$CMLSTYLE
  2
STANDARD
  9
$CMLJUST
 70
     0
  9
$CMLSCALE
 40
20.0
  9
$PROXYGRAPHICS
 70
     1
  9
$MEASUREMENT
 70
     1
  9
$CELWEIGHT
370
    -1
  9
$ENDCAPS
280
     0
  9
$JOINSTYLE
280
     0
  9
$LWDISPLAY
290
     1
  9
$INSUNITS
 70
     0
  9
$HYPERLINKBASE
  1

  9
$STYLESHEET
  1

  9
$XEDIT
290
     1
  9
$CEPSNTYPE
380
     0
  9
$PSTYLEMODE
290
     1
  9
$FINGERPRINTGUID
  2
{E86D75E0-018A-11D5-92B6-C97639448767}
  9
$VERSIONGUID
  2
{643B133F-B5FC-4FA8-B318-418A8C9206DD}
  9
$EXTNAMES
290
     1
  9
$PSVPSCALE
 40
0.0
  9
$OLESTARTUP
290
     0
  9
$SORTENTS
280
   127
  9
$INDEXCTL
280
     0
  9
$HIDETEXT
280
     0
  9
$XCLIPFRAME
290
     0
  9
$HALOGAP
280
     0
  9
$OBSCOLOR
 70
   257
  9
$OBSLTYPE
280
     0
  9
$INTERSECTIONDISPLAY
280
     0
  9
$INTERSECTIONCOLOR
 70
   257
  9
$DIMASSOC
280
     1
  9
$PROJECTNAME
  1

  0
ENDSEC
  0
SECTION
  2
CLASSES
  0
CLASS
  1
ACDBDICTIONARYWDFLT
  2
AcDbDictionaryWithDefault
  3
ObjectDBX Classes
 90
        0
 91
        1
280
     0
281
     0
  0
CLASS
  1
DICTIONARYVAR
  2
AcDbDictionaryVar
  3
ObjectDBX Classes
 90
        0
 91
        2
280
     0
281
     0
  0
CLASS
  1
TABLESTYLE
  2
AcDbTableStyle
  3
ObjectDBX Classes
 90
     4095
 91
        1
280
     0
281
     0
  0
CLASS
  1
SORTENTSTABLE
  2
AcDbSortentsTable
  3
ObjectDBX Classes
 90
        0
 91
        9
280
     0
281
     0
  0
CLASS
  1
MATERIAL
  2
AcDbMaterial
  3
ObjectDBX Classes
 90
     1024
 91
        3
280
     0
281
     0
  0
CLASS
  1
IMAGEDEF
  2
AcDbRasterImageDef
  3
ISM
 90
        0
 91
        4
280
     0
281
     0
  0
CLASS
  1
VISUALSTYLE
  2
AcDbVisualStyle
  3
ObjectDBX Classes
 90
     4095
 91
       16
280
     0
281
     0
  0
ENDSEC
  0
SECTION
  2
TABLES
  0
TABLE
  2
VPORT
  5
8
330
0
100
AcDbSymbolTable
 70
     1
  0
VPORT
  5
167C
330
8
100
AcDbSymbolTableRecord
100
AcDbViewportTableRecord
  2
*Active
 70
     0
 10
0.0
 20
0.0
 11
1.0
 21
1.0
 12
191.3723505201025
 22
172.9250775553545
 13
0.0
 23
0.0
 14
0.1
 24
0.1
 15
10.0
 25
10.0
 16
0.0
 26
0.0
 36
1.0
 17
0.0
 27
0.0
 37
0.0
 40
356.1674672114701
 41
1.728662420382165
 42
50.0
 43
0.0
 44
0.0
 50
0.0
 51
0.0
 71
     0
 72
   100
 73
     1
 74
     1
 75
     1
 76
     0
 77
     0
 78
     2
281
     0
 65
     1
110
0.0
120
0.0
130
0.0
111
1.0
121
0.0
131
0.0
112
0.0
122
1.0
132
0.0
 79
     0
146
0.0
  0
ENDTAB
  0
TABLE
  2
LTYPE
  5
5
330
0
100
AcDbSymbolTable
 70
     5
  0
LTYPE
  5
12
330
5
100
AcDbSymbolTableRecord
100
AcDbLinetypeTableRecord
  2
BYBLOCK
 70
     0
  3

 72
    65
 73
     0
 40
0.0
  0
LTYPE
  5
13
330
5
100
AcDbSymbolTableRecord
100
AcDbLinetypeTableRecord
  2
BYLAYER
 70
     0
  3

 72
    65
 73
     0
 40
0.0
  0
LTYPE
  5
14
330
5
100
AcDbSymbolTableRecord
100
AcDbLinetypeTableRecord
  2
CONTINUOUS
 70
     0
  3
Solid line
 72
    65
 73
     0
 40
0.0
  0
LTYPE
  5
D4
330
5
100
AcDbSymbolTableRecord
100
AcDbLinetypeTableRecord
  2
DASHED
 70
     0
  3
Dashed __ __ __ __ __ __ __ __ __ __ __ __ __ _
 72
    65
 73
     2
 40
19.05
 49
12.7
 74
     0
 49
-6.349999999999997
 74
     0
  0
LTYPE
  5
D5
330
5
100
AcDbSymbolTableRecord
100
AcDbLinetypeTableRecord
  2
CENTER
 70
     0
  3
Center ____ _ ____ _ ____ _ ____ _ ____ _ ____
 72
    65
 73
     4
 40
50.8
 49
31.75
 74
     0
 49
-6.349999999999997
 74
     0
 49
6.349999999999997
 74
     0
 49
-6.349999999999997
 74
     0
  0
LTYPE
  5
D6
330
5
100
AcDbSymbolTableRecord
100
AcDbLinetypeTableRecord
  2
DIVIDE
 70
     0
  3
Divide ____ . . ____ . . ____ . . ____ . . ____
 72
    65
 73
     6
 40
31.75
 49
12.7
 74
     0
 49
-6.349999999999997
 74
     0
 49
0.0
 74
     0
 49
-6.349999999999997
 74
     0
 49
0.0
 74
     0
 49
-6.349999999999997
 74
     0
  0
ENDTAB
  0
TABLE
  2
LAYER
  5
2
102
{ACAD_XDICTIONARY
360
85D
102
}
330
0
100
AcDbSymbolTable
 70
    10
  0
LAYER
  5
E
330
2
100
AcDbSymbolTableRecord
100
AcDbLayerTableRecord
  2
0
 70
     0
 62
    28
  6
CONTINUOUS
370
    50
390
199
  0
LAYER
  5
5C
330
2
100
AcDbSymbolTableRecord
100
AcDbLayerTableRecord
  2
DEFPOINTS
 70
     0
 62
     7
  6
CONTINUOUS
290
     0
370
    25
390
199
  0
LAYER
  5
D0
330
2
100
AcDbSymbolTableRecord
100
AcDbLayerTableRecord
  2
1
 70
     0
 62
     7
  6
CONTINUOUS
370
    50
390
199
  0
LAYER
  5
D1
330
2
100
AcDbSymbolTableRecord
100
AcDbLayerTableRecord
  2
2
 70
     0
 62
     5
  6
CONTINUOUS
370
    25
390
199
  0
LAYER
  5
D7
330
2
100
AcDbSymbolTableRecord
100
AcDbLayerTableRecord
  2
3
 70
     0
 62
     6
  6
DASHED
370
    25
390
199
  0
LAYER
  5
D8
330
2
100
AcDbSymbolTableRecord
100
AcDbLayerTableRecord
  2
4
 70
     0
 62
     1
  6
CENTER
370
    25
390
199
  0
LAYER
  5
D9
330
2
100
AcDbSymbolTableRecord
100
AcDbLayerTableRecord
  2
5
 70
     0
 62
     3
  6
DIVIDE
370
    25
390
199
  0
LAYER
  5
DA
330
2
100
AcDbSymbolTableRecord
100
AcDbLayerTableRecord
  2
6
 70
     0
 62
     5
  6
CONTINUOUS
370
    25
390
199
  0
LAYER
  5
DB
330
2
100
AcDbSymbolTableRecord
100
AcDbLayerTableRecord
  2
7
 70
     0
 62
     6
  6
CONTINUOUS
370
    25
390
199
  0
LAYER
  5
CD1
330
2
100
AcDbSymbolTableRecord
100
AcDbLayerTableRecord
  2
标注
 70
     0
 62
     2
  6
CONTINUOUS
370
    25
390
199
  0
ENDTAB
  0
TABLE
  2
STYLE
  5
3
330
0
100
AcDbSymbolTable
 70
     2
  0
STYLE
  5
F
330
3
100
AcDbSymbolTableRecord
100
AcDbTextStyleTableRecord
  2
STANDARD
 70
     0
 40
0.0
 41
1.0
 50
0.0
 71
     0
 42
3.5
  3
txt.shx
  4

  0
STYLE
  5
D3
330
3
100
AcDbSymbolTableRecord
100
AcDbTextStyleTableRecord
  2

 70
     1
 40
0.0
 41
1.0
 50
0.0
 71
     0
 42
3.0
  3
ltypeshp.shx
  4

  0
ENDTAB
  0
TABLE
  2
VIEW
  5
6
330
0
100
AcDbSymbolTable
 70
     0
  0
ENDTAB
  0
TABLE
  2
UCS
  5
7
330
0
100
AcDbSymbolTable
 70
     0
  0
ENDTAB
  0
TABLE
  2
APPID
  5
9
330
0
100
AcDbSymbolTable
 70
     4
  0
APPID
  5
10
330
9
100
AcDbSymbolTableRecord
100
AcDbRegAppTableRecord
  2
ACAD
 70
     0
  0
APPID
  5
26D
330
9
100
AcDbSymbolTableRecord
100
AcDbRegAppTableRecord
  2
ACAD_PSEXT
 70
     0
  0
APPID
  5
8C3
330
9
100
AcDbSymbolTableRecord
100
AcDbRegAppTableRecord
  2
ACAD_DSTYLE_DIMTEXT_FILL
 70
     0
  0
APPID
  5
16A3
330
9
100
AcDbSymbolTableRecord
100
AcDbRegAppTableRecord
  2
ACAD_EXEMPT_FROM_CAD_STANDARDS
 70
     0
  0
ENDTAB
  0
TABLE
  2
DIMSTYLE
  5
A
330
0
100
AcDbSymbolTable
 70
     2
100
AcDbDimStyleTable
 71
     1
340
1D
  0
DIMSTYLE
105
1D
330
A
100
AcDbSymbolTableRecord
100
AcDbDimStyleTableRecord
  2
STANDARD
 70
     0
340
F
  0
ENDTAB
  0
TABLE
  2
BLOCK_RECORD
  5
1
330
0
100
AcDbSymbolTable
 70
    17
  0
BLOCK_RECORD
  5
18
102
{ACAD_XDICTIONARY
360
2C2
102
}
330
1
100
AcDbSymbolTableRecord
100
AcDbBlockTableRecord
  2
*MODEL_SPACE
340
19C
  0
BLOCK_RECORD
  5
15
330
1
100
AcDbSymbolTableRecord
100
AcDbBlockTableRecord
  2
*PAPER_SPACE
340
19D
  0
BLOCK_RECORD
  5
26
330
1
100
AcDbSymbolTableRecord
100
AcDbBlockTableRecord
  2
粗糙度
340
0
  0
BLOCK_RECORD
  5
33
330
1
100
AcDbSymbolTableRecord
100
AcDbBlockTableRecord
  2
BB
340
0
  0
BLOCK_RECORD
  5
46
330
1
100
AcDbSymbolTableRecord
100
AcDbBlockTableRecord
  2
AA
340
0
  0
BLOCK_RECORD
  5
6D
330
1
100
AcDbSymbolTableRecord
100
AcDbBlockTableRecord
  2
CC
340
0
  0
BLOCK_RECORD
  5
FE
330
1
100
AcDbSymbolTableRecord
100
AcDbBlockTableRecord
  2
DD
340
0
  0
BLOCK_RECORD
  5
158
330
1
100
AcDbSymbolTableRecord
100
AcDbBlockTableRecord
  2
DDD
340
0
  0
BLOCK_RECORD
  5
2F1
102
{ACAD_XDICTIONARY
360
307
102
}
330
1
100
AcDbSymbolTableRecord
100
AcDbBlockTableRecord
  2
A$C64415893
340
0
  0
BLOCK_RECORD
  5
393
330
1
100
AcDbSymbolTableRecord
100
AcDbBlockTableRecord
  2
CCD
340
0
310
28000000200000002000000001000800000000000004000000000000000000000000000000000000000000004000000080000000FF000000002000004020000080200000FF200000004000004040000080400000FF400000006000004060000080600000FF600000008000004080000080800000FF80000000A0000040A000
310
0080A00000FFA0000000C0000040C0000080C00000FFC0000000FF000040FF000080FF0000FFFF0000000020004000200080002000FF002000002020004020200080202000FF202000004020004040200080402000FF402000006020004060200080602000FF602000008020004080200080802000FF80200000A0200040A0
310
200080A02000FFA0200000C0200040C0200080C02000FFC0200000FF200040FF200080FF2000FFFF2000000040004000400080004000FF004000002040004020400080204000FF204000004040004040400080404000FF404000006040004060400080604000FF604000008040004080400080804000FF80400000A0400040
310
A0400080A04000FFA0400000C0400040C0400080C04000FFC0400000FF400040FF400080FF4000FFFF4000000060004000600080006000FF006000002060004020600080206000FF206000004060004040600080406000FF406000006060004060600080606000FF606000008060004080600080806000FF80600000A06000
310
40A0600080A06000FFA0600000C0600040C0600080C06000FFC0600000FF600040FF600080FF6000FFFF6000000080004000800080008000FF008000002080004020800080208000FF208000004080004040800080408000FF408000006080004060800080608000FF608000008080004080800080808000FF80800000A080
310
0040A0800080A08000FFA0800000C0800040C0800080C08000FFC0800000FF800040FF800080FF8000FFFF80000000A0004000A0008000A000FF00A0000020A0004020A0008020A000FF20A0000040A0004040A0008040A000FF40A0000060A0004060A0008060A000FF60A0000080A0004080A0008080A000FF80A00000A0
310
A00040A0A00080A0A000FFA0A00000C0A00040C0A00080C0A000FFC0A00000FFA00040FFA00080FFA000FFFFA0000000C0004000C0008000C000FF00C0000020C0004020C0008020C000FF20C0000040C0004040C0008040C000FF40C0000060C0004060C0008060C000FF60C0000080C0004080C0008080C000FF80C00000
310
A0C00040A0C00080A0C000FFA0C00000C0C00040C0C00080C0C000FFC0C00000FFC00040FFC00080FFC000FFFFC0000000FF004000FF008000FF00FF00FF000020FF004020FF008020FF00FF20FF000040FF004040FF008040FF00FF40FF000060FF004060FF008060FF00FF60FF000080FF004080FF008080FF00FF80FF00
310
00A0FF0040A0FF0080A0FF00FFA0FF0000C0FF0040C0FF0080C0FF00FFC0FF0000FFFF0040FFFF0080FFFF00FFFFFF00FFFFFFFFFFFFFFFFFFFFFFFFFFFFFFFFFFFFFFFFFFFFFFFFFFFFFFFFFFFFFFFFFFFFFFFFFFFFFFFFFFFFFFFF03FFFFFFFFFFFFFFFFFFFFFFFFFFFFFFFFFFFFFFFFFFFFFFFFFFFFFFFFFFFF03FF03FF
310
FFFFFFFFFFFFFFFFFFFFFFFFFFFFFFFFFFFFFFFFFFFFFFFFFFFFFFFF03FF03FFFFFFFFFFFFFFFFFFFFFFFFFFFFFFFFFFFFFFFFFFFFFFFFFFFFFFFF03FFFFFF03FFFFFFFFFFFFFFFFFFFFFFFFFFFFFFFFFFFFFFFFFFFFFFFFFFFFFF03FFFFFF03FFFFFFFFFFFFFFFFFFFFFFFFFFFFFFFFFFFFFFFFFFFFFFFFFFFF03FFFFFFFF
310
FF03FFFFFFFFFFFFFFFFFFFFFFFFFFFFFFFFFFFFFFFFFFFFFFFFFF03FFFFFFFFFF03FFFFFFFFFFFFFFFFFFFFFFFFFFFFFFFFFFFFFFFFFFFFFFFF03FFFFFFFFFFFFFF03FFFFFFFFFFFFFFFFFFFFFFFFFFFFFFFFFFFFFFFFFFFFFF03FFFFFFFFFFFFFF03FFFFFFFFFFFFFFFFFFFFFFFFFFFFFFFFFFFFFFFFFFFF03FFFFFFFFFF
310
FFFFFFFF03FFFFFFFFFFFFFFFFFFFFFFFFFFFFFFFFFFFFFFFFFF03FFFFFFFFFFFFFFFFFFFF03FFFFFFFFFFFFFFFFFFFFFFFFFFFFFFFFFFFFFF03FFFFFFFFFFFFFFFFFFFFFF03FFFFFFFFFFFFFFFFFFFFFFFFFFFFFFFFFFFFFF03FFFFFFFFFFFFFFFFFFFFFFFF03FFFFFFFFFFFFFFFFFFFFFFFFFFFFFFFFFF03FFFFFFFFFFFF
310
FFFFFFFFFFFFFF03FFFFFFFFFFFFFFFFFFFFFFFFFFFFFFFFFF03FFFFFFFFFFFFFFFFFFFFFFFFFFFF03FFFFFFFFFFFFFFFFFFFFFFFFFFFFFF03FFFFFFFFFFFFFFFFFFFFFFFFFFFFFF03FFFFFFFFFFFFFFFFFFFFFFFFFFFFFF03FFFFFFFFFFFFFFFFFFFFFFFFFFFFFFFF03FFFFFFFFFFFFFFFFFFFFFFFFFF0303030303030303
310
030303030303030303030303FFFFFFFFFFFFFFFFFFFFFFFFFFFFFFFFFFFFFFFFFFFFFFFFFFFFFFFFFFFFFF03FFFFFFFFFFFFFFFFFFFFFFFFFF03030303FFFFFF03FFFFFFFF03030303FFFF03FFFFFFFFFFFFFFFFFFFFFFFFFF03FFFFFF03FFFF03FFFFFF03FFFFFFFF03FFFF03FFFFFFFFFFFFFFFFFFFFFF03FFFFFFFF03FF
310
FF03FFFF03FFFFFFFFFF03FFFFFF03FFFFFFFFFFFFFFFFFFFF03FFFFFFFF03FFFFFFFFFFFFFFFFFFFFFF03FFFFFF03FFFFFFFFFFFFFFFFFFFF03FFFFFFFF03FFFFFFFFFFFFFFFFFFFFFF03FFFFFFFF03FFFFFFFFFFFFFFFFFF0303030303FFFFFFFFFFFFFFFFFF030303FFFFFFFFFF03FFFFFFFFFFFFFFFFFF03FFFFFFFFFF
310
FFFFFFFFFFFFFFFFFFFFFF03FFFFFFFFFF03FFFFFFFFFFFFFFFFFF03FFFFFFFFFFFFFFFFFFFFFFFFFFFFFF03FFFFFFFFFF03FFFFFFFFFFFFFFFFFF03FFFFFFFFFFFFFFFFFF03FFFFFFFFFF03FFFFFFFFFFFF03FFFFFFFFFFFFFFFFFF030303FFFFFFFFFFFFFF0303030303FFFFFFFFFFFFFF03FFFFFFFFFFFFFFFFFFFFFFFF
310
FFFFFFFFFFFFFFFFFFFFFFFFFFFFFFFFFFFFFFFF03FFFFFFFFFFFFFFFFFFFFFFFFFFFFFFFFFFFFFFFFFFFFFFFFFFFFFFFFFFFFFFFFFFFFFF
  0
BLOCK_RECORD
  5
7EE
102
{ACAD_XDICTIONARY
360
7EF
102
}
330
1
100
AcDbSymbolTableRecord
100
AcDbBlockTableRecord
  2
BTL
340
0
  0
BLOCK_RECORD
  5
82A
330
1
100
AcDbSymbolTableRecord
100
AcDbBlockTableRecord
  2
aaaa
340
0
310
28000000200000002000000001000800000000000004000000000000000000000000000000000000000000004000000080000000FF000000002000004020000080200000FF200000004000004040000080400000FF400000006000004060000080600000FF600000008000004080000080800000FF80000000A0000040A000
310
0080A00000FFA0000000C0000040C0000080C00000FFC0000000FF000040FF000080FF0000FFFF0000000020004000200080002000FF002000002020004020200080202000FF202000004020004040200080402000FF402000006020004060200080602000FF602000008020004080200080802000FF80200000A0200040A0
310
200080A02000FFA0200000C0200040C0200080C02000FFC0200000FF200040FF200080FF2000FFFF2000000040004000400080004000FF004000002040004020400080204000FF204000004040004040400080404000FF404000006040004060400080604000FF604000008040004080400080804000FF80400000A0400040
310
A0400080A04000FFA0400000C0400040C0400080C04000FFC0400000FF400040FF400080FF4000FFFF4000000060004000600080006000FF006000002060004020600080206000FF206000004060004040600080406000FF406000006060004060600080606000FF606000008060004080600080806000FF80600000A06000
310
40A0600080A06000FFA0600000C0600040C0600080C06000FFC0600000FF600040FF600080FF6000FFFF6000000080004000800080008000FF008000002080004020800080208000FF208000004080004040800080408000FF408000006080004060800080608000FF608000008080004080800080808000FF80800000A080
310
0040A0800080A08000FFA0800000C0800040C0800080C08000FFC0800000FF800040FF800080FF8000FFFF80000000A0004000A0008000A000FF00A0000020A0004020A0008020A000FF20A0000040A0004040A0008040A000FF40A0000060A0004060A0008060A000FF60A0000080A0004080A0008080A000FF80A00000A0
310
A00040A0A00080A0A000FFA0A00000C0A00040C0A00080C0A000FFC0A00000FFA00040FFA00080FFA000FFFFA0000000C0004000C0008000C000FF00C0000020C0004020C0008020C000FF20C0000040C0004040C0008040C000FF40C0000060C0004060C0008060C000FF60C0000080C0004080C0008080C000FF80C00000
310
A0C00040A0C00080A0C000FFA0C00000C0C00040C0C00080C0C000FFC0C00000FFC00040FFC00080FFC000FFFFC0000000FF004000FF008000FF00FF00FF000020FF004020FF008020FF00FF20FF000040FF004040FF008040FF00FF40FF000060FF004060FF008060FF00FF60FF000080FF004080FF008080FF00FF80FF00
310
00A0FF0040A0FF0080A0FF00FFA0FF0000C0FF0040C0FF0080C0FF00FFC0FF0000FFFF0040FFFF0080FFFF00FFFFFF00FFFFFFFFFFFFFFFFFFFFFFFFFFFFFFFFFFFFFFFFFFFFFFFFFFFFFFFFFFFFFFFFFFFFFFFFFFFFFFFFFFFFFFFFFFFFFFFFFFFFFFFFFFFFFFFFFFFFFFFFFFFFFFFFFFFFFFFFFFFFFFFFFFFFFFFFFFFFFF
310
FFFFFFFFFFFFFFFFFFFFFFFFFFFFFFFFFFFFFFFFFFFFFFFFFFFFFFFFFFFFFFFFFFFFFFFFFFFFFFFFFFFFFFFFFFFFFFFFFFFFFFFFFFFFFFFFFFFFFFFFFFFFFFFFFFFFFFFFFFFFFFFFFFFFFFFFFFFFFFFFFFFFFFFFFFFFFFFFFFFFFFFFFFFFFFFFFFFFFFFFFFFFFFFFFFFFFFFFFFFFFFFFFFFFFFFFFFFFFFFFFFFFFFFFFFFFFF
310
FFFFFFFFFFFFFFFFFFFFFFFFFFFFFFFFFFFFFFFFFFFFFFFFFFFFFFFFFFFFFFFFFFFFFFFFFFFFFFFFFFFFFFFFFFFFFFFFFFFFFFFFFFFFFFFFFFFFFFFFFFFFFFFFFFFFFFFFFFFFFFFFFFFFFFFFFFFFFFFFFFFFFFFFFFFFFFFFFFFFFFFFFFFFFFFFFFFFFFFFFFFFFFFFFFFFFFFFFFFFFFFFFFFFFFFFFFFFFFFFFFFFFFFFFFFFFF
310
FFFFFFFFFFFFFFFFFFFFFFFFFFFFFFFFFFFFFFFFFFFFFFFFFFFFFFFFFFFFFFFFFFFFFFFFFFFFFFFFFFFFFFFFFFFFFFFFFFFFFFFF00000000000000000000000000000000000000000000FFFFFFFFFFFFFFFFFFFF00030303030303030300000000000000000000000000FFFFFFFFFFFFFFFFFFFF0003030303030303030000
310
0000000000000000000000FFFFFFFFFFFFFFFFFFFF00000000000000000000FFFFFFFFFFFFFFFF00FFFF00FFFFFFFFFFFFFFFFFFFF00000000000000000000000000000000000000000000FFFFFFFFFFFFFFFFFFFF00030303030303030300FFFFFF030303030300000000FFFFFFFFFFFFFFFFFFFF00030303030303030300
310
FFFFFF030303030300030303FFFFFFFFFFFFFFFFFFFF00000000000000000000000000000000000000000000FFFFFFFFFFFFFFFFFFFFFFFFFFFFFFFFFFFFFFFFFFFFFFFFFFFFFFFFFFFFFFFFFFFFFFFFFFFFFFFFFFFFFFFFFFFFFFFFFFFFFFFFFFFFFFFFFFFFFFFFFFFFFFFFFFFFFFFFFFFFFFFFFFFFFFFFFFFFFFFFFFFFFF
310
FFFFFFFFFFFFFFFFFFFFFFFFFFFFFFFFFFFFFFFFFFFFFFFFFFFFFFFFFFFFFFFFFFFFFFFFFFFFFFFFFFFFFFFFFFFFFFFFFFFFFFFFFFFFFFFFFFFFFFFFFFFFFFFFFFFFFFFFFFFFFFFFFFFFFFFFFFFFFFFFFFFFFFFFFFFFFFFFFFFFFFFFFFFFFFFFFFFFFFFFFFFFFFFFFFFFFFFFFFFFFFFFFFFFFFFFFFFFFFFFFFFFFFFFFFFFFF
310
FFFFFFFFFFFFFFFFFFFFFFFFFFFFFFFFFFFFFFFFFFFFFFFFFFFFFFFFFFFFFFFFFFFFFFFFFFFFFFFFFFFFFFFFFFFFFFFFFFFFFFFFFFFFFFFFFFFFFFFFFFFFFFFFFFFFFFFFFFFFFFFFFFFFFFFFFFFFFFFFFFFFFFFFFFFFFFFFFFFFFFFFFFFFFFFFFFFFFFFFFFFFFFFFFFFFFFFFFFFFFFFFFFFFFFFFFFFFFFFFFFFFFFFFFFFFFF
310
FFFFFFFFFFFFFFFFFFFFFFFFFFFFFFFFFFFFFFFFFFFFFFFFFFFFFFFFFFFFFFFFFFFFFFFFFFFFFFFFFFFFFFFFFFFFFFFFFFFFFFFFFFFFFFFF
  0
BLOCK_RECORD
  5
85F
102
{ACAD_XDICTIONARY
360
88E
102
}
330
1
100
AcDbSymbolTableRecord
100
AcDbBlockTableRecord
  2
BTL1-WHU
340
0
  0
BLOCK_RECORD
  5
11B6
102
{ACAD_XDICTIONARY
360
11B8
102
}
330
1
100
AcDbSymbolTableRecord
100
AcDbBlockTableRecord
  2
A$C236C3E6C
340
0
  0
BLOCK_RECORD
  5
123B
102
{ACAD_XDICTIONARY
360
123E
102
}
330
1
100
AcDbSymbolTableRecord
100
AcDbBlockTableRecord
  2
A$C7EAA3E3E
340
0
  0
BLOCK_RECORD
  5
125D
102
{ACAD_XDICTIONARY
360
125F
102
}
330
1
100
AcDbSymbolTableRecord
100
AcDbBlockTableRecord
  2
A$C3BFD43EC
340
0
  0
BLOCK_RECORD
  5
12CE
102
{ACAD_XDICTIONARY
360
12D0
102
}
330
1
100
AcDbSymbolTableRecord
100
AcDbBlockTableRecord
  2
A$C439C1006
340
0
  0
BLOCK_RECORD
  5
13BF
102
{ACAD_XDICTIONARY
360
13C1
102
}
330
1
100
AcDbSymbolTableRecord
100
AcDbBlockTableRecord
  2
A$C50185C62
340
0
  0
ENDTAB
  0
ENDSEC
  0
SECTION
  2
BLOCKS
  0
BLOCK
  5
19
330
18
100
AcDbEntity
  8
0
100
AcDbBlockBegin
  2
*MODEL_SPACE
 70
     0
 10
0.0
 20
0.0
 30
0.0
  3
*MODEL_SPACE
  1

  0
ENDBLK
  5
1A
330
18
100
AcDbEntity
  8
0
100
AcDbBlockEnd
  0
BLOCK
  5
16
330
15
100
AcDbEntity
 67
     1
  8
0
100
AcDbBlockBegin
  2
*PAPER_SPACE
 70
     0
 10
0.0
 20
0.0
 30
0.0
  3
*PAPER_SPACE
  1

  0
ENDBLK
  5
17
330
15
100
AcDbEntity
 67
     1
  8
0
100
AcDbBlockEnd
  0
BLOCK
  5
27
330
26
100
AcDbEntity
  8
0
100
AcDbBlockBegin
  2
粗糙度
 70
     0
 10
0.0
 20
0.0
 30
0.0
  3
粗糙度
  1

  0
LINE
  5
28
330
26
100
AcDbEntity
  8
0
100
AcDbLine
 10
0.0
 20
0.0
 30
0.0
 11
4.508789863885652
 21
6.492657403995281
 31
0.0
  0
LINE
  5
29
330
26
100
AcDbEntity
  8
0
100
AcDbLine
 10
2.5
 20
3.599999999999993
 30
0.0
 11
-2.5
 21
3.599999999999993
 31
0.0
  0
LINE
  5
2A
330
26
100
AcDbEntity
  8
0
100
AcDbLine
 10
-2.5
 20
3.599999999999993
 30
0.0
 11
0.0
 21
0.0
 31
0.0
  0
ENDBLK
  5
2B
330
26
100
AcDbEntity
  8
0
100
AcDbBlockEnd
  0
BLOCK
  5
34
330
33
100
AcDbEntity
  8
0
100
AcDbBlockBegin
  2
BB
 70
     2
 10
0.0
 20
0.0
 30
0.0
  3
BB
  1

  0
LINE
  5
35
330
33
100
AcDbEntity
  8
0
100
AcDbLine
 10
-3.0
 20
4.319999999999993
 30
0.0
 11
0.0
 21
0.0
 31
0.0
  0
LINE
  5
36
330
33
100
AcDbEntity
  8
0
100
AcDbLine
 10
0.0
 20
0.0
 30
0.0
 11
5.410547836662771
 21
7.791188884794337
 31
0.0
  0
LINE
  5
37
330
33
100
AcDbEntity
  8
0
100
AcDbLine
 10
3.0
 20
4.319999999999993
 30
0.0
 11
-3.0
 21
4.319999999999993
 31
0.0
  0
ATTDEF
  5
38
330
33
100
AcDbEntity
  8
0
100
AcDbText
 10
-3.436124313821891
 20
5.105814633523891
 30
0.0
 40
2.5
  1
12.5
100
AcDbAttributeDefinition
  3
输入粗糙度值：
  2
BB
 70
     0
  0
ENDBLK
  5
39
330
33
100
AcDbEntity
  8
0
100
AcDbBlockEnd
  0
BLOCK
  5
47
330
46
100
AcDbEntity
  8
0
100
AcDbBlockBegin
  2
AA
 70
     0
 10
0.0
 20
0.0
 30
0.0
  3
AA
  1

  0
LINE
  5
48
330
46
100
AcDbEntity
  8
0
100
AcDbLine
 10
0.0
 20
0.0
 30
0.0
 11
5.410547836662771
 21
7.791188884794337
 31
0.0
  0
CIRCLE
  5
49
330
46
100
AcDbEntity
  8
0
100
AcDbCircle
 10
0.0000000000000284
 20
3.506337120129797
 30
0.0
 40
2.0
  0
LINE
  5
4A
330
46
100
AcDbEntity
  8
0
100
AcDbLine
 10
-3.0
 20
4.319999999999993
 30
0.0
 11
0.0
 21
0.0
 31
0.0
  0
ENDBLK
  5
4B
330
46
100
AcDbEntity
  8
0
100
AcDbBlockEnd
  0
BLOCK
  5
B6
330
6D
100
AcDbEntity
  8
0
100
AcDbBlockBegin
  2
CC
 70
     2
 10
0.0
 20
0.0
 30
0.0
  3
CC
  1

  0
LINE
  5
B7
330
6D
100
AcDbEntity
  8
0
100
AcDbLine
 10
36.73832635363533
 20
3.25
 30
0.0
 11
26.92275942156749
 21
3.25
 31
0.0
  0
LINE
  5
B8
330
6D
100
AcDbEntity
  8
0
100
AcDbLine
 10
26.92275942156749
 20
-3.25
 30
0.0
 11
36.73832635363533
 21
-3.25
 31
0.0
  0
ATTDEF
  5
B9
330
6D
100
AcDbEntity
  8
0
100
AcDbText
 10
20.75535560092891
 20
-1.402542725879754
 30
0.0
 40
3.0
  1
0。03
100
AcDbAttributeDefinition
  3
公差值：
  2
CC
 70
     0
  0
LINE
  5
BA
330
6D
100
AcDbEntity
  8
0
100
AcDbLine
 10
30.73832635363533
 20
3.25
 30
0.0
 11
30.73832635363533
 21
-3.25
 31
0.0
  0
LINE
  5
BB
330
6D
100
AcDbEntity
  8
0
100
AcDbLine
 10
19.79999921458989
 20
-3.25
 30
0.0
 11
19.79999921458989
 21
3.25
 31
0.0
  0
LINE
  5
BC
330
6D
100
AcDbEntity
  8
0
100
AcDbLine
 10
13.79999921458989
 20
3.25
 30
0.0
 11
13.79999921458989
 21
-3.25
 31
0.0
  0
LINE
  5
BD
330
6D
100
AcDbEntity
  8
0
100
AcDbLine
 10
13.79999921458989
 20
-3.25
 30
0.0
 11
23.04610514347661
 21
-3.25
 31
0.0
  0
LINE
  5
BE
330
6D
100
AcDbEntity
  8
0
100
AcDbLine
 10
23.04610514347661
 20
-3.25
 30
0.0
 11
26.92275942156749
 21
-3.25
 31
0.0
  0
LINE
  5
BF
330
6D
100
AcDbEntity
  8
0
100
AcDbLine
 10
21.81262542462429
 20
3.25
 30
0.0
 11
13.79999921458989
 21
3.25
 31
0.0
  0
LINE
  5
C0
330
6D
100
AcDbEntity
  8
0
100
AcDbLine
 10
13.79999921458989
 20
0.0
 30
0.0
 11
2.5
 21
0.0
 31
0.0
  0
SOLID
  5
C1
330
6D
100
AcDbEntity
  8
0
  6
ByBlock
 62
     0
100
AcDbTrace
 10
2.5
 20
0.4166666666666714
 30
0.0
 11
2.5
 21
-0.4166666666666714
 31
0.0
 12
0.0
 22
0.0
 32
0.0
 13
0.0
 23
0.0
 33
0.0
  0
POINT
  5
C2
330
6D
100
AcDbEntity
  8
DEFPOINTS
  6
ByBlock
 62
     0
100
AcDbPoint
 10
13.79999921458989
 20
3.25
 30
0.0
  0
LINE
  5
C3
330
6D
100
AcDbEntity
  8
0
100
AcDbLine
 10
22.86989394172548
 20
3.25
 30
0.0
 11
26.92275942156749
 21
3.25
 31
0.0
  0
LINE
  5
C4
330
6D
100
AcDbEntity
  8
0
100
AcDbLine
 10
21.81262542462429
 20
3.25
 30
0.0
 11
22.16504782812655
 21
3.25
 31
0.0
  0
LINE
  5
C5
330
6D
100
AcDbEntity
  8
0
100
AcDbLine
 10
22.86989394172548
 20
3.25
 30
0.0
 11
22.16504782812655
 21
3.25
 31
0.0
  0
LINE
  5
C6
330
6D
100
AcDbEntity
  8
0
100
AcDbLine
 10
36.73832635363533
 20
-3.25
 30
0.0
 11
36.73832635363533
 21
3.25
 31
0.0
  0
ATTDEF
  5
C7
330
6D
100
AcDbEntity
  8
0
100
AcDbText
 10
32.26256103395281
 20
-1.890251198681426
 30
0.0
 40
4.0
  1
A
100
AcDbAttributeDefinition
  3
基准
  2
DD
 70
     0
  0
POINT
  5
C8
330
6D
100
AcDbEntity
  8
DEFPOINTS
  6
ByBlock
 62
     0
100
AcDbPoint
 10
36.73832635363533
 20
3.25
 30
0.0
  0
POINT
  5
C9
330
6D
100
AcDbEntity
  8
DEFPOINTS
  6
ByBlock
 62
     0
100
AcDbPoint
 10
42.27314290608234
 20
7.867975923741651
 30
0.0
  0
ENDBLK
  5
CA
330
6D
100
AcDbEntity
  8
0
100
AcDbBlockEnd
  0
BLOCK
  5
143
330
FE
100
AcDbEntity
  8
0
100
AcDbBlockBegin
  2
DD
 70
     0
 10
0.0
 20
0.0
 30
0.0
  3
DD
  1

  0
TEXT
  5
FF
330
FE
100
AcDbEntity
  8
2
100
AcDbText
 10
157.75
 20
9.0
 30
0.0
 40
5.0
  1
力
 50
270.0
100
AcDbText
  0
LINE
  5
100
330
FE
100
AcDbEntity
  8
2
100
AcDbLine
 10
120.0
 20
29.0
 30
0.0
 11
180.0
 21
29.0
 31
0.0
  0
LINE
  5
101
330
FE
100
AcDbEntity
  8
2
100
AcDbLine
 10
120.0
 20
23.0
 30
0.0
 11
180.0
 21
23.0
 31
0.0
  0
LINE
  5
102
330
FE
100
AcDbEntity
  8
2
100
AcDbLine
 10
120.0
 20
17.0
 30
0.0
 11
180.0
 21
17.0
 31
0.0
  0
LINE
  5
103
330
FE
100
AcDbEntity
  8
2
100
AcDbLine
 10
0.0
 20
11.0
 30
0.0
 11
180.0
 21
11.0
 31
0.0
  0
LINE
  5
104
330
FE
100
AcDbEntity
  8
1
100
AcDbLine
 10
180.0
 20
35.0
 30
0.0
 11
0.0
 21
35.0
 31
0.0
  0
LINE
  5
105
330
FE
100
AcDbEntity
  8
1
100
AcDbLine
 10
0.0
 20
0.0
 30
0.0
 11
180.0
 21
0.0
 31
0.0
  0
TEXT
  5
106
330
FE
100
AcDbEntity
  8
2
100
AcDbText
 10
29.5
 20
5.75
 30
0.0
 40
4.0
  1
健
 50
270.0
100
AcDbText
  0
TEXT
  5
107
330
FE
100
AcDbEntity
  8
2
100
AcDbText
 10
24.25
 20
16.5
 30
0.0
 40
4.0
  1
沃
 50
270.0
100
AcDbText
  0
LINE
  5
108
330
FE
100
AcDbEntity
  8
2
100
AcDbLine
 10
0.0
 20
30.6
 30
0.0
 11
60.0
 21
30.6
 31
0.0
  0
LINE
  5
109
330
FE
100
AcDbEntity
  8
2
100
AcDbLine
 10
0.0
 20
26.3
 30
0.0
 11
60.0
 21
26.3
 31
0.0
  0
LINE
  5
10A
330
FE
100
AcDbEntity
  8
2
100
AcDbLine
 10
0.0
 20
22.0
 30
0.0
 11
60.0
 21
22.0
 31
0.0
  0
LINE
  5
10B
330
FE
100
AcDbEntity
  8
2
100
AcDbLine
 10
0.0
 20
16.5
 30
0.0
 11
60.0
 21
16.5
 31
0.0
  0
LINE
  5
10C
330
FE
100
AcDbEntity
  8
2
100
AcDbLine
 10
0.0
 20
5.5
 30
0.0
 11
60.0
 21
5.5
 31
0.0
  0
TEXT
  5
10D
330
FE
100
AcDbEntity
  8
2
100
AcDbText
 10
23.5
 20
11.0
 30
0.0
 40
4.0
  1
泽
 50
270.0
100
AcDbText
  0
TEXT
  5
10E
330
FE
100
AcDbEntity
  8
2
100
AcDbText
 10
17.25
 20
11.0
 30
0.0
 40
4.0
  1
袁
 50
270.0
100
AcDbText
  0
TEXT
  5
10F
330
FE
100
AcDbEntity
  8
2
100
AcDbText
 10
2.465942738850798
 20
10.92560056824914
 30
0.0
 40
4.099999999999997
  1
绘
 50
270.0
100
AcDbText
  0
TEXT
  5
110
330
FE
100
AcDbEntity
  8
2
100
AcDbText
 10
8.682793235366659
 20
10.88386720364042
 30
0.0
 40
4.099999999999997
  1
图
 50
270.0
100
AcDbText
  0
LINE
  5
111
330
FE
100
AcDbEntity
  8
2
100
AcDbLine
 10
16.0
 20
0.0
 30
0.0
 11
16.0
 21
35.0
 31
0.0
  0
LINE
  5
112
330
FE
100
AcDbEntity
  8
1
100
AcDbLine
 10
0.0
 20
35.0
 30
0.0
 11
0.0
 21
0.0
 31
0.0
  0
TEXT
  5
113
330
FE
100
AcDbEntity
  8
2
100
AcDbText
 10
9.25
 20
5.5
 30
0.0
 40
4.099999999999997
  1
定
 50
270.0
100
AcDbText
  0
TEXT
  5
114
330
FE
100
AcDbEntity
  8
2
100
AcDbText
 10
2.0
 20
5.5
 30
0.0
 40
4.099999999999997
  1
审
 50
270.0
100
AcDbText
  0
TEXT
  5
115
330
FE
100
AcDbEntity
  8
2
100
AcDbText
 10
18.25
 20
5.5
 30
0.0
 40
4.0
  1
黄
 50
270.0
100
AcDbText
  0
LINE
  5
116
330
FE
100
AcDbEntity
  8
2
100
AcDbLine
 10
8.0
 20
16.5
 30
0.0
 11
8.0
 21
35.0
 31
0.0
  0
TEXT
  5
117
330
FE
100
AcDbEntity
  8
2
100
AcDbText
 10
12.5
 20
22.0
 30
0.0
 40
3.0
  1
数
 50
270.0
100
AcDbText
  0
TEXT
  5
118
330
FE
100
AcDbEntity
  8
2
100
AcDbText
 10
9.0
 20
22.0
 30
0.0
 40
3.0
  1
处
 50
270.0
100
AcDbText
  0
TEXT
  5
119
330
FE
100
AcDbEntity
  8
2
100
AcDbText
 10
9.010240984979514
 20
16.99754153368592
 30
0.0
 40
4.049999999999998
  1
计
 50
270.0
100
AcDbText
  0
TEXT
  5
11A
330
FE
100
AcDbEntity
  8
2
100
AcDbText
 10
2.494012779386038
 20
17.00107711690385
 30
0.0
 40
4.049999999999998
  1
设
 50
270.0
100
AcDbText
  0
TEXT
  5
11B
330
FE
100
AcDbEntity
  8
2
100
AcDbText
 10
1.0
 20
22.0
 30
0.0
 40
3.0
  1
标
 50
270.0
100
AcDbText
  0
TEXT
  5
11C
330
FE
100
AcDbEntity
  8
2
100
AcDbText
 10
5.0
 20
22.0
 30
0.0
 40
3.0
  1
记
 50
270.0
100
AcDbText
  0
TEXT
  5
11D
330
FE
100
AcDbEntity
  8
2
100
AcDbText
 10
17.5
 20
16.5
 30
0.0
 40
4.0
  1
丁
 50
270.0
100
AcDbText
  0
TEXT
  5
11E
330
FE
100
AcDbEntity
  8
2
100
AcDbText
 10
18.0
 20
22.0
 30
0.0
 40
3.0
  1
文
 50
270.0
100
AcDbText
  0
TEXT
  5
11F
330
FE
100
AcDbEntity
  8
2
100
AcDbText
 10
25.0
 20
22.0
 30
0.0
 40
3.0
  1
件
 50
270.0
100
AcDbText
  0
TEXT
  5
120
330
FE
100
AcDbEntity
  8
2
100
AcDbText
 10
65.25
 20
1.75
 30
0.0
 40
4.5
  1
GGKW-05
100
AcDbText
  0
TEXT
  5
121
330
FE
100
AcDbEntity
  8
2
100
AcDbText
 10
150.5
 20
9.0
 30
0.0
 40
5.0
  1
电
 50
270.0
100
AcDbText
  0
TEXT
  5
122
330
FE
100
AcDbEntity
  8
2
100
AcDbText
 10
143.75
 20
8.75
 30
0.0
 40
5.0
  1
利
 50
270.0
100
AcDbText
  0
TEXT
  5
123
330
FE
100
AcDbEntity
  8
2
100
AcDbText
 10
136.5
 20
9.25
 30
0.0
 40
5.0
  1
水
 50
270.0
100
AcDbText
  0
TEXT
  5
124
330
FE
100
AcDbEntity
  8
2
100
AcDbText
 10
129.25
 20
9.25
 30
0.0
 40
5.0
  1
汉
 50
270.0
100
AcDbText
  0
TEXT
  5
125
330
FE
100
AcDbEntity
  8
2
100
AcDbText
 10
121.75
 20
9.25
 30
0.0
 40
5.0
  1
武
 50
270.0
100
AcDbText
  0
TEXT
  5
126
330
FE
100
AcDbEntity
  8
2
100
AcDbText
 10
30.5
 20
11.0
 30
0.0
 40
4.0
  1
虎
 50
270.0
100
AcDbText
  0
LINE
  5
127
330
FE
100
AcDbEntity
  8
2
100
AcDbLine
 10
36.0
 20
0.0
 30
0.0
 11
36.0
 21
35.0
 31
0.0
  0
LINE
  5
128
330
FE
100
AcDbEntity
  8
1
100
AcDbLine
 10
120.0
 20
0.0
 30
0.0
 11
120.0
 21
35.0
 31
0.0
  0
LINE
  5
129
330
FE
100
AcDbEntity
  8
1
100
AcDbLine
 10
60.0
 20
0.0
 30
0.0
 11
60.0
 21
35.0
 31
0.0
  0
LINE
  5
12A
330
FE
100
AcDbEntity
  8
2
100
AcDbLine
 10
50.0
 20
16.5
 30
0.0
 11
50.0
 21
35.0
 31
0.0
  0
TEXT
  5
12B
330
FE
100
AcDbEntity
  8
2
100
AcDbText
 10
44.24999999999999
 20
22.0
 30
0.0
 40
3.0
  1
字
 50
270.0
100
AcDbText
  0
TEXT
  5
12C
330
FE
100
AcDbEntity
  8
2
100
AcDbText
 10
30.5
 20
16.5
 30
0.0
 40
4.0
  1
圻
 50
270.0
100
AcDbText
  0
TEXT
  5
12D
330
FE
100
AcDbEntity
  8
2
100
AcDbText
 10
31.25
 20
22.0
 30
0.0
 40
3.0
  1
号
 50
270.0
100
AcDbText
  0
TEXT
  5
12E
330
FE
100
AcDbEntity
  8
2
100
AcDbText
 10
38.0
 20
22.0
 30
0.0
 40
3.0
  1
签
 50
270.0
100
AcDbText
  0
TEXT
  5
12F
330
FE
100
AcDbEntity
  8
2
100
AcDbText
 10
50.5
 20
22.0
 30
0.0
 40
3.0
  1
日
 50
270.0
100
AcDbText
  0
TEXT
  5
130
330
FE
100
AcDbEntity
  8
2
100
AcDbText
 10
54.75
 20
21.75
 30
0.0
 40
3.0
  1
期
 50
270.0
100
AcDbText
  0
TEXT
  5
131
330
FE
100
AcDbEntity
  8
2
100
AcDbText
 10
122.5
 20
17.0
 30
0.0
 40
4.2
  1
第
 50
270.0
100
AcDbText
  0
TEXT
  5
132
330
FE
100
AcDbEntity
  8
2
100
AcDbText
 10
123.0
 20
23.0
 30
0.0
 40
4.299999999999998
  1
共
 50
270.0
100
AcDbText
  0
TEXT
  5
133
330
FE
100
AcDbEntity
  8
2
100
AcDbText
 10
123.5
 20
35.0
 30
0.0
 40
4.5
  1
材
 50
270.0
100
AcDbText
  0
TEXT
  5
134
330
FE
100
AcDbEntity
  8
2
100
AcDbText
 10
141.25
 20
34.75
 30
0.0
 40
4.5
  1
料
 50
270.0
100
AcDbText
  0
LINE
  5
135
330
FE
100
AcDbEntity
  8
2
100
AcDbLine
 10
150.0
 20
23.0
 30
0.0
 11
150.0
 21
35.0
 31
0.0
  0
TEXT
  5
136
330
FE
100
AcDbEntity
  8
2
100
AcDbText
 10
142.0
 20
23.0
 30
0.0
 40
4.2
  1
重
 50
270.0
100
AcDbText
  0
TEXT
  5
137
330
FE
100
AcDbEntity
  8
2
100
AcDbText
 10
132.5
 20
23.0
 30
0.0
 40
4.299999999999998
  1
张
 50
270.0
100
AcDbText
  0
LINE
  5
138
330
FE
100
AcDbEntity
  8
2
100
AcDbLine
 10
140.0
 20
11.0
 30
0.0
 11
140.0
 21
23.0
 31
0.0
  0
TEXT
  5
139
330
FE
100
AcDbEntity
  8
2
100
AcDbText
 10
132.5
 20
17.25
 30
0.0
 40
4.2
  1
张
 50
270.0
100
AcDbText
  0
TEXT
  5
13A
330
FE
100
AcDbEntity
  8
2
100
AcDbText
 10
152.75
 20
23.0
 30
0.0
 40
4.2
  1
量
 50
270.0
100
AcDbText
  0
LINE
  5
13B
330
FE
100
AcDbEntity
  8
2
100
AcDbLine
 10
160.0
 20
11.0
 30
0.0
 11
160.0
 21
23.0
 31
0.0
  0
TEXT
  5
13C
330
FE
100
AcDbEntity
  8
2
100
AcDbText
 10
154.5
 20
35.0
 30
0.0
 40
4.299999999999998
  1
件
 50
270.0
100
AcDbText
  0
TEXT
  5
13D
330
FE
100
AcDbEntity
  8
2
100
AcDbText
 10
170.75
 20
8.75
 30
0.0
 40
5.0
  1
学
 50
270.0
100
AcDbText
  0
TEXT
  5
13E
330
FE
100
AcDbEntity
  8
2
100
AcDbText
 10
164.25
 20
9.25
 30
0.0
 40
5.0
  1
大
 50
270.0
100
AcDbText
  0
LINE
  5
13F
330
FE
100
AcDbEntity
  8
1
100
AcDbLine
 10
180.0
 20
0.0
 30
0.0
 11
180.0
 21
35.0
 31
0.0
  0
TEXT
  5
140
330
FE
100
AcDbEntity
  8
2
100
AcDbText
 10
172.25
 20
23.0
 30
0.0
 40
4.2
  1
例
 50
270.0
100
AcDbText
  0
TEXT
  5
141
330
FE
100
AcDbEntity
  8
2
100
AcDbText
 10
162.25
 20
23.0
 30
0.0
 40
4.2
  1
比
 50
270.0
100
AcDbText
  0
TEXT
  5
142
330
FE
100
AcDbEntity
  8
2
100
AcDbText
 10
170.0
 20
35.0
 30
0.0
 40
4.299999999999998
  1
数
 50
270.0
100
AcDbText
  0
ENDBLK
  5
144
330
FE
100
AcDbEntity
  8
0
100
AcDbBlockEnd
  0
BLOCK
  5
182
330
158
100
AcDbEntity
  8
0
100
AcDbBlockBegin
  2
DDD
 70
     0
 10
0.0
 20
0.0
 30
0.0
  3
DDD
  1

  0
TEXT
  5
159
330
158
100
AcDbEntity
  8
2
100
AcDbText
 10
-114.75
 20
1.75
 30
0.0
 40
4.5
  1
GGKW-05
100
AcDbText
  0
LINE
  5
15A
330
158
100
AcDbEntity
  8
1
100
AcDbLine
 10
-180.0
 20
0.0
 30
0.0
 11
0.0
 21
0.0
 31
0.0
  0
LINE
  5
15B
330
158
100
AcDbEntity
  8
1
100
AcDbLine
 10
0.0
 20
35.0
 30
0.0
 11
-180.0
 21
35.0
 31
0.0
  0
LINE
  5
15C
330
158
100
AcDbEntity
  8
2
100
AcDbLine
 10
-180.0
 20
11.0
 30
0.0
 11
0.0
 21
11.0
 31
0.0
  0
LINE
  5
15D
330
158
100
AcDbEntity
  8
2
100
AcDbLine
 10
-130.0
 20
16.5
 30
0.0
 11
-130.0
 21
35.0
 31
0.0
  0
LINE
  5
15E
330
158
100
AcDbEntity
  8
1
100
AcDbLine
 10
-120.0
 20
0.0
 30
0.0
 11
-120.0
 21
35.0
 31
0.0
  0
LINE
  5
15F
330
158
100
AcDbEntity
  8
2
100
AcDbLine
 10
-144.0
 20
0.0
 30
0.0
 11
-144.0
 21
35.0
 31
0.0
  0
LINE
  5
160
330
158
100
AcDbEntity
  8
2
100
AcDbLine
 10
-172.0
 20
16.5
 30
0.0
 11
-172.0
 21
35.0
 31
0.0
  0
LINE
  5
161
330
158
100
AcDbEntity
  8
1
100
AcDbLine
 10
-180.0
 20
35.0
 30
0.0
 11
-180.0
 21
0.0
 31
0.0
  0
LINE
  5
162
330
158
100
AcDbEntity
  8
2
100
AcDbLine
 10
-164.0
 20
0.0
 30
0.0
 11
-164.0
 21
35.0
 31
0.0
  0
MTEXT
  5
163
330
158
100
AcDbEntity
  8
2
100
AcDbMText
 10
-177.8523277391125
 20
16.24751806608174
 30
0.0
 40
3.5
 41
12.7813
 71
     1
 72
     5
  1
\f宋体|b0|i0|c134|p2;设计
 73
     1
 44
1.0
  0
MTEXT
  5
164
330
158
100
AcDbEntity
  8
2
100
AcDbMText
 10
-178.1301815100384
 20
10.69747656183085
 30
0.0
 40
3.5
 41
12.5034
 71
     1
 72
     5
  1
\f宋体|b0|i0|c134|p2;绘\fTxt|b0|i0|c134|p2;图
 73
     1
 44
1.0
  0
MTEXT
  5
165
330
158
100
AcDbEntity
  8
2
100
AcDbMText
 10
-178.1301815100384
 20
4.869933293545613
 30
0.0
 40
3.5
 41
13.337
 71
     1
 72
     5
  1
\fTxt|b0|i0|c134|p2;审定
 73
     1
 44
1.0
  0
LINE
  5
166
330
158
100
AcDbEntity
  8
2
100
AcDbLine
 10
-180.0
 20
5.5
 30
0.0
 11
-120.0
 21
5.5
 31
0.0
  0
LINE
  5
167
330
158
100
AcDbEntity
  8
2
100
AcDbLine
 10
-180.0
 20
16.5
 30
0.0
 11
-120.0
 21
16.5
 31
0.0
  0
MTEXT
  5
168
330
158
100
AcDbEntity
  8
2
100
AcDbMText
 10
-162.5703755645561
 20
4.869933293545613
 30
0.0
 40
3.5
 41
15.5598
 71
     1
 72
     5
  1
\f宋体|b0|i0|c134|p2;黄\Ftxt.shx|c134; \f宋体|b0|i0|c134|p2;健
 73
     1
 44
1.0
  0
MTEXT
  5
169
330
158
100
AcDbEntity
  8
2
100
AcDbMText
 10
-162.8482293354821
 20
10.69747656183085
 30
0.0
 40
3.5
 41
16.3934
 71
     1
 72
     5
  1
\f宋体|b0|i0|c134|p2;袁泽虎
 73
     1
 44
1.0
  0
MTEXT
  5
16A
330
158
100
AcDbEntity
  8
2
100
AcDbMText
 10
-163.4039368773344
 20
15.69251453801314
 30
0.0
 40
3.5
 41
18.3383
 71
     1
 72
     5
  1
\f宋体|b0|i0|c134|p2;丁沃圻
 73
     1
 44
1.0
  0
MTEXT
  5
16B
330
158
100
AcDbEntity
  8
2
100
AcDbMText
 10
-178.9637428228166
 20
20.68755182268819
 30
0.0
 40
2.5
 41
8.335599999999999
 71
     1
 72
     5
  1
\fTxt|b0|i0|c134|p2;标记
 73
     1
 44
1.0
  0
LINE
  5
16C
330
158
100
AcDbEntity
  8
2
100
AcDbLine
 10
-180.0
 20
22.0
 30
0.0
 11
-120.0
 21
22.0
 31
0.0
  0
LINE
  5
16D
330
158
100
AcDbEntity
  8
2
100
AcDbLine
 10
-180.0
 20
26.30000000000001
 30
0.0
 11
-120.0
 21
26.30000000000001
 31
0.0
  0
LINE
  5
16E
330
158
100
AcDbEntity
  8
2
100
AcDbLine
 10
-180.0
 20
30.6
 30
0.0
 11
-120.0
 21
30.6
 31
0.0
  0
MTEXT
  5
16F
330
158
100
AcDbEntity
  8
2
100
AcDbMText
 10
-141.7313492780727
 20
20.96505358672255
 30
0.0
 40
2.5
 41
10.8363
 71
     1
 72
     5
  1
\f宋体|b0|i0|c134|p2;签 字
 73
     1
 44
1.0
  0
MTEXT
  5
170
330
158
100
AcDbEntity
  8
2
100
AcDbMText
 10
-162.8482293354821
 20
20.68755113118107
 30
0.0
 40
2.5
 41
18.0605
 71
     1
 72
     5
  1
\f宋体|b0|i0|c134|p2;文 件 号
 73
     1
 44
1.0
  0
MTEXT
  5
171
330
158
100
AcDbEntity
  8
2
100
AcDbMText
 10
-171.1838398500754
 20
20.68755113118107
 30
0.0
 40
2.5
 41
7.779899999999997
 71
     1
 72
     5
  1
\f宋体|b0|i0|c134|p2;处数
 73
     1
 44
1.0
  0
MTEXT
  5
172
330
158
100
AcDbEntity
  8
2
100
AcDbMText
 10
-128.9500797352566
 20
20.96505358672255
 30
0.0
 40
2.5
 41
8.0578
 71
     1
 72
     5
  1
\f宋体|b0|i0|c134|p2;日期
 73
     1
 44
1.0
  0
MTEXT
  5
173
330
158
100
AcDbEntity
  8
2
100
AcDbMText
 10
-57.54168151276668
 20
17.08002474119894
 30
0.0
 40
4.0
 41
16.6712
 71
     1
 72
     5
  1
\f宋体|b0|i0|c134|p2;共 张
 73
     1
 44
1.0
  0
LINE
  5
174
330
158
100
AcDbEntity
  8
1
100
AcDbLine
 10
0.0
 20
0.0
 30
0.0
 11
0.0
 21
35.0
 31
0.0
  0
LINE
  5
175
330
158
100
AcDbEntity
  8
2
100
AcDbLine
 10
-20.0
 20
11.0
 30
0.0
 11
-20.0
 21
23.0
 31
0.0
  0
LINE
  5
176
330
158
100
AcDbEntity
  8
2
100
AcDbLine
 10
-40.0
 20
11.0
 30
0.0
 11
-40.0
 21
23.0
 31
0.0
  0
LINE
  5
177
330
158
100
AcDbEntity
  8
1
100
AcDbLine
 10
-60.0
 20
0.0
 30
0.0
 11
-60.0
 21
35.0
 31
0.0
  0
MTEXT
  5
178
330
158
100
AcDbEntity
  8
2
100
AcDbMText
 10
-58.65309659647095
 20
8.754962139069219
 30
0.0
 40
5.0
 41
57.23790000000001
 71
     1
 72
     5
  1
\f宋体|b0|i0|c134|p2;武汉水利电力大学
 73
     1
 44
1.0
  0
LINE
  5
179
330
158
100
AcDbEntity
  8
2
100
AcDbLine
 10
-60.0
 20
17.0
 30
0.0
 11
0.0
 21
17.0
 31
0.0
  0
MTEXT
  5
17A
330
158
100
AcDbEntity
  8
2
100
AcDbMText
 10
-56.70812019998858
 20
34.28515278202042
 30
0.0
 40
4.0
 41
25.0068
 71
     1
 72
     5
  1
\f宋体|b0|i0|c134|p2;材  料
 73
     1
 44
1.0
  0
LINE
  5
17B
330
158
100
AcDbEntity
  8
2
100
AcDbLine
 10
-60.0
 20
23.0
 30
0.0
 11
0.0
 21
23.0
 31
0.0
  0
LINE
  5
17C
330
158
100
AcDbEntity
  8
2
100
AcDbLine
 10
-60.0
 20
29.0
 30
0.0
 11
0.0
 21
29.0
 31
0.0
  0
MTEXT
  5
17D
330
158
100
AcDbEntity
  8
2
100
AcDbMText
 10
-58.09738905461881
 20
22.63006624544983
 30
0.0
 40
4.0
 41
16.9491
 71
     1
 72
     5
  1
\f宋体|b0|i0|c134|p2;共\Ftxt.shx|c134; \f宋体|b0|i0|c134|p2;张
 73
     1
 44
1.0
  0
MTEXT
  5
17E
330
158
100
AcDbEntity
  8
2
100
AcDbMText
 10
-18.64216534246634
 20
22.63006624544983
 30
0.0
 40
4.0
 41
17.5048
 71
     1
 72
     5
  1
\f宋体|b0|i0|c134|p2;比 例
 73
     1
 44
1.0
  0
MTEXT
  5
17F
330
158
100
AcDbEntity
  8
2
100
AcDbMText
 10
-26.14421454428157
 20
34.56265523756179
 30
0.0
 40
4.0
 41
23.8954
 71
     1
 72
     5
  1
\f宋体|b0|i0|c134|p2;件\Ftxt.shx|c134;  \f宋体|b0|i0|c134|p2;数
 73
     1
 44
1.0
  0
MTEXT
  5
180
330
158
100
AcDbEntity
  8
2
100
AcDbMText
 10
-38.09192408091372
 20
22.90756731797728
 30
0.0
 40
4.0
 41
16.9491
 71
     1
 72
     5
  1
\f宋体|b0|i0|c134|p2;重 量
 73
     1
 44
1.0
  0
LINE
  5
181
330
158
100
AcDbEntity
  8
2
100
AcDbLine
 10
-30.0
 20
23.0
 30
0.0
 11
-30.0
 21
35.0
 31
0.0
  0
ENDBLK
  5
183
330
158
100
AcDbEntity
  8
0
100
AcDbBlockEnd
  0
BLOCK
  5
309
330
2F1
100
AcDbEntity
  8
0
100
AcDbBlockBegin
  2
A$C64415893
 70
     0
 10
0.0
 20
0.0
 30
0.0
  3
A$C64415893
  1

  0
LINE
  5
2F2
330
2F1
100
AcDbEntity
  8
1
100
AcDbLine
 10
0.0000002750255419
 20
-0.0000002637599437
 30
0.0
 11
180.3092845522369
 21
-0.0000002637599437
 31
0.0
  0
MTEXT
  5
2F3
330
2F1
100
AcDbEntity
  8
2
100
AcDbMText
 10
136.5406689951466
 20
4.388657445505058
 30
0.0
 40
2.759999999999998
 41
21.36
 71
     1
 72
     5
  1
{\f宋体|b0|i0|c134|p2;重量（kg）}
 73
     1
 44
1.0
  0
MTEXT
  5
2F4
330
2F1
100
AcDbEntity
  8
2
100
AcDbMText
 10
143.4000002750255
 20
9.399999736240076
 30
0.0
 40
3.0
 41
11.4
 71
     1
 72
     5
  1
{\f宋体|b0|i0|c134|p2;总重}
 73
     1
 44
1.0
  0
LINE
  5
2F5
330
2F1
100
AcDbEntity
  8
2
100
AcDbLine
 10
132.0000002750255
 20
4.99999973624007
 30
0.0
 11
154.0000002750255
 21
4.99999973624007
 31
0.0
  0
LINE
  5
2F6
330
2F1
100
AcDbEntity
  8
1
100
AcDbLine
 10
180.0000002750255
 20
9.99999973624007
 30
0.0
 11
0.0000002750255419
 21
9.99999973624007
 31
0.0
  0
LINE
  5
2F7
330
2F1
100
AcDbEntity
  8
1
100
AcDbLine
 10
180.0000002750255
 20
-0.0000002637599295
 30
0.0
 11
0.0000002750255419
 21
-0.0000002637599295
 31
0.0
  0
LINE
  5
2F8
330
2F1
100
AcDbEntity
  8
2
100
AcDbLine
 10
100.0000002750255
 20
-0.0000002637599295
 30
0.0
 11
100.0000002750255
 21
9.99999973624007
 31
0.0
  0
MTEXT
  5
2F9
330
2F1
100
AcDbEntity
  8
2
100
AcDbMText
 10
2.06200027502544
 20
9.252999736240084
 30
0.0
 40
2.8435
 41
4.235000000000001
 71
     1
 72
     5
  1
{\fTxt|b0|i0|c134|p2;序\P号}
 73
     1
 44
1.0
  0
MTEXT
  5
2FA
330
2F1
100
AcDbEntity
  8
2
100
AcDbMText
 10
103.3000002750254
 20
8.399999736240076
 30
0.0
 40
4.7
 41
29.8
 71
     1
 72
     5
  1
{\f宋体|b0|i0|c134|p2;材}  {\f宋体|b0|i0|c134|p2;料}
 73
     1
 44
1.0
  0
MTEXT
  5
2FB
330
2F1
100
AcDbEntity
  8
2
100
AcDbMText
 10
94.14840797321074
 20
9.287360795193759
 30
0.0
 40
3.0
 41
7.2
 71
     1
 72
     5
  1
{\fSimSun|b0|i0|c134|p2;数}
 73
     1
 44
1.0
  0
MTEXT
  5
2FC
330
2F1
100
AcDbEntity
  8
2
100
AcDbMText
 10
132.9000002750255
 20
9.399999736240076
 30
0.0
 40
3.0
 41
12.2
 71
     1
 72
     5
  1
{\f宋体|b0|i0|c134|p2;单重}
 73
     1
 44
1.0
  0
LINE
  5
2FD
330
2F1
100
AcDbEntity
  8
2
100
AcDbLine
 10
142.0000002750255
 20
4.99999973624007
 30
0.0
 11
142.0000002750255
 21
9.99999973624007
 31
0.0
  0
LINE
  5
2FE
330
2F1
100
AcDbEntity
  8
2
100
AcDbLine
 10
154.0000002750255
 20
-0.0000002637599295
 30
0.0
 11
154.0000002750256
 21
9.99999973624007
 31
0.0
  0
MTEXT
  5
2FF
330
2F1
100
AcDbEntity
  8
2
100
AcDbMText
 10
155.4000002750255
 20
7.999999736240068
 30
0.0
 40
4.7
 41
25.2
 71
     1
 72
     5
  1
{\f宋体|b0|i0|c134|p2;备}  {\f宋体|b0|i0|c134|p2;注}
 73
     1
 44
1.0
  0
MTEXT
  5
300
330
2F1
100
AcDbEntity
  8
2
100
AcDbMText
 10
25.50000027502552
 20
4.99999973624007
 30
0.0
 40
4.0
 41
35.0
 71
     5
 72
     5
  1
{\f宋体|b0|i0|c134|p2;图   号}
 73
     1
 44
1.0
  0
MTEXT
  5
301
330
2F1
100
AcDbEntity
  8
2
100
AcDbMText
 10
71.24513977106215
 20
5.222755352089534
 30
0.0
 40
4.0
 41
50.0
 71
     5
 72
     5
  1
{\f宋体|b0|i0|c134|p2;名      称}  
 73
     1
 44
1.0
  0
LINE
  5
302
330
2F1
100
AcDbEntity
  8
2
100
AcDbLine
 10
8.000000275025456
 20
-0.0000002637599366
 30
0.0
 11
8.000000275025428
 21
9.99999973624007
 31
0.0
  0
LINE
  5
303
330
2F1
100
AcDbEntity
  8
2
100
AcDbLine
 10
48.00000027502545
 20
-0.0000002637598229
 30
0.0
 11
48.0000002750254
 21
9.999999736240182
 31
0.0
  0
LINE
  5
304
330
2F1
100
AcDbEntity
  8
2
100
AcDbLine
 10
92.00000027502552
 20
-0.0000002637599295
 30
0.0
 11
92.00000027502552
 21
9.99999973624007
 31
0.0
  0
MTEXT
  5
305
330
2F1
100
AcDbEntity
  8
2
100
AcDbMText
 10
94.14840797321074
 20
5.08736079519376
 30
0.0
 40
3.0
 41
7.2
 71
     1
 72
     5
  1
{\fSimSun|b0|i0|c134|p54;量}
 73
     1
 44
1.0
  0
LINE
  5
306
330
2F1
100
AcDbEntity
  8
2
100
AcDbLine
 10
132.0000002750255
 20
-0.0000002637599295
 30
0.0
 11
132.0000002750255
 21
9.99999973624007
 31
0.0
  0
ENDBLK
  5
30A
330
2F1
100
AcDbEntity
  8
0
100
AcDbBlockEnd
  0
BLOCK
  5
394
330
393
100
AcDbEntity
  8
0
100
AcDbBlockBegin
  2
CCD
 70
     0
 10
0.0
 20
0.0
 30
0.0
  3
CCD
  1

  0
TEXT
  5
396
330
393
100
AcDbEntity
  8
6
100
AcDbText
 10
-3.552022043185331
 20
7.018100637668695
 30
0.0
 40
3.25
  1
6.3
100
AcDbText
  0
LINE
  5
397
330
393
100
AcDbEntity
  8
6
100
AcDbLine
 10
-3.5
 20
6.062177826491065
 30
0.0
 11
3.5
 21
6.062177826491065
 31
0.0
  0
LINE
  5
398
330
393
100
AcDbEntity
  8
6
100
AcDbLine
 10
0.0
 20
0.0
 30
0.0
 11
-3.5
 21
6.062177826491065
 31
0.0
  0
LINE
  5
399
330
393
100
AcDbEntity
  8
6
100
AcDbLine
 10
0.0
 20
0.0
 30
0.0
 11
6.0
 21
10.39230484541326
 31
0.0
  0
ENDBLK
  5
395
330
393
100
AcDbEntity
  8
0
100
AcDbBlockEnd
  0
BLOCK
  5
7F1
330
7EE
100
AcDbEntity
  8
0
100
AcDbBlockBegin
  2
BTL
 70
     0
 10
0.0
 20
0.0
 30
0.0
  3
BTL
  1

  0
LINE
  5
7F2
330
7EE
100
AcDbEntity
  8
1
100
AcDbLine
 10
-180.3092845522369
 20
56.0
 30
0.0
 11
-180.3092845522369
 21
0.0
 31
0.0
  0
LINE
  5
7F3
330
7EE
100
AcDbEntity
  8
1
100
AcDbLine
 10
-180.3092845522369
 20
56.0
 30
0.0
 11
-0.0000002750255703
 21
56.0
 31
0.0
  0
LINE
  5
7F4
330
7EE
100
AcDbEntity
  8
1
100
AcDbLine
 10
-100.0000002750256
 20
18.0
 30
0.0
 11
-0.0000002750255703
 21
18.0
 31
0.0
  0
LINE
  5
7F5
330
7EE
100
AcDbEntity
  8
1
100
AcDbLine
 10
-41.20000027502562
 20
41.90000000000003
 30
0.0
 11
-0.0000002750255703
 21
41.9
 31
0.0
  0
LINE
  5
7F6
330
7EE
100
AcDbEntity
  8
1
100
AcDbLine
 10
-68.00000027502557
 20
0.0
 30
0.0
 11
-68.00000027502557
 21
18.0
 31
0.0
  0
LINE
  5
7F7
330
7EE
100
AcDbEntity
  8
1
100
AcDbLine
 10
-41.20000027502562
 20
18.0
 30
0.0
 11
-41.20000027502562
 21
56.19999999999998
 31
0.0
  0
LINE
  5
7F8
330
7EE
100
AcDbEntity
  8
1
100
AcDbLine
 10
-100.0000002750256
 20
0.0
 30
0.0
 11
-100.0000002750256
 21
55.99999999999999
 31
0.0
  0
LINE
  5
7F9
330
7EE
100
AcDbEntity
  8
1
100
AcDbLine
 10
-180.309284552237
 20
28.0
 30
0.0
 11
-0.0000002750255703
 21
28.0
 31
0.0
  0
LINE
  5
7FA
330
7EE
100
AcDbEntity
  8
1
100
AcDbLine
 10
-180.309284552237
 20
21.0
 30
0.0
 11
-100.0000002750256
 21
21.0
 31
0.0
  0
LINE
  5
7FB
330
7EE
100
AcDbEntity
  8
1
100
AcDbLine
 10
-180.309284552237
 20
35.0
 30
0.0
 11
-100.0000002750256
 21
35.00000000000001
 31
0.0
  0
LINE
  5
7FC
330
7EE
100
AcDbEntity
  8
2
100
AcDbLine
 10
-180.309284552237
 20
14.0
 30
0.0
 11
-100.0000002750256
 21
14.0
 31
0.0
  0
LINE
  5
7FD
330
7EE
100
AcDbEntity
  8
2
100
AcDbLine
 10
-180.309284552237
 20
7.0
 30
0.0
 11
-100.0000002750256
 21
7.0
 31
0.0
  0
LINE
  5
7FE
330
7EE
100
AcDbEntity
  8
2
100
AcDbLine
 10
-180.309284552237
 20
42.0
 30
0.0
 11
-100.0000002750256
 21
42.00000000000001
 31
0.0
  0
LINE
  5
7FF
330
7EE
100
AcDbEntity
  8
2
100
AcDbLine
 10
-180.309284552237
 20
49.0
 30
0.0
 11
-100.0000002750256
 21
49.00000000000001
 31
0.0
  0
LINE
  5
800
330
7EE
100
AcDbEntity
  8
1
100
AcDbLine
 10
-168.3092845522369
 20
28.00000000000001
 30
0.0
 11
-168.309284552237
 21
0.0
 31
0.0
  0
LINE
  5
801
330
7EE
100
AcDbEntity
  8
1
100
AcDbLine
 10
-156.309284552237
 20
28.00000000000001
 30
0.0
 11
-156.309284552237
 21
-0.0000000000000142
 31
0.0
  0
LINE
  5
802
330
7EE
100
AcDbEntity
  8
1
100
AcDbLine
 10
-140.309284552237
 20
28.00000000000001
 30
0.0
 11
-140.309284552237
 21
-0.0000000000000142
 31
0.0
  0
LINE
  5
803
330
7EE
100
AcDbEntity
  8
1
100
AcDbLine
 10
-128.309284552237
 20
28.00000000000001
 30
0.0
 11
-128.309284552237
 21
-0.0000000000000142
 31
0.0
  0
LINE
  5
804
330
7EE
100
AcDbEntity
  8
1
100
AcDbLine
 10
-116.309284552237
 20
56.00000000000001
 30
0.0
 11
-116.309284552237
 21
28.0
 31
0.0
  0
LINE
  5
805
330
7EE
100
AcDbEntity
  8
1
100
AcDbLine
 10
-170.3092845522369
 20
56.00000000000001
 30
0.0
 11
-170.3092845522369
 21
28.00000000000001
 31
0.0
  0
LINE
  5
806
330
7EE
100
AcDbEntity
  8
1
100
AcDbLine
 10
-160.309284552237
 20
56.0
 30
0.0
 11
-160.3092845522369
 21
28.00000000000001
 31
0.0
  0
LINE
  5
807
330
7EE
100
AcDbEntity
  8
1
100
AcDbLine
 10
-144.309284552237
 20
56.00000000000004
 30
0.0
 11
-144.3092845522369
 21
28.00000000000004
 31
0.0
  0
LINE
  5
808
330
7EE
100
AcDbEntity
  8
1
100
AcDbLine
 10
-128.309284552237
 20
56.00000000000006
 30
0.0
 11
-128.3092845522369
 21
28.00000000000008
 31
0.0
  0
LINE
  5
809
330
7EE
100
AcDbEntity
  8
1
100
AcDbLine
 10
-100.0000002750256
 20
9.0
 30
0.0
 11
-0.0000002750255703
 21
9.0
 31
0.0
  0
MTEXT
  5
80A
330
7EE
100
AcDbEntity
  8
2
100
AcDbMText
 10
-98.33303542638628
 20
6.244748072279093
 30
0.0
 40
3.0
 41
35.91270711289985
 71
     1
 72
     5
  1
{\fSimSun|b0|i0|c134|p54;原图单位及图号}
 73
     1
 44
1.0
  0
MTEXT
  5
80B
330
7EE
100
AcDbEntity
  8
2
100
AcDbMText
 10
-178.8994873800428
 20
26.82944864117633
 30
0.0
 40
3.5
 41
12.7813
 71
     1
 72
     5
  1
{\fSimSun|b0|i0|c134|p2;\H0.9143x;设计}
 73
     1
 44
1.0
  0
MTEXT
  5
80C
330
7EE
100
AcDbEntity
  8
2
100
AcDbMText
 10
-179.1773385402369
 20
12.66860064975083
 30
0.0
 40
3.5
 41
13.337
 71
     1
 72
     5
  1
{\fTxt|b0|i0|c134|p2;\H0.9143x;审查}
 73
     1
 44
1.0
  0
MTEXT
  5
80D
330
7EE
100
AcDbEntity
  8
2
100
AcDbMText
 10
-179.1773398456028
 20
5.668600649750827
 30
0.0
 40
3.5
 41
13.337
 71
     1
 72
     5
  1
{\fSimSun|b0|i0|c134|p54;\H0.9143x;校核}
 73
     1
 44
1.0
  0
MTEXT
  5
80E
330
7EE
100
AcDbEntity
  8
2
100
AcDbMText
 10
-139.177339845603
 20
5.668601349103822
 30
0.0
 40
3.5
 41
13.337
 71
     1
 72
     5
  1
{\fSimSun|b0|i0|c134|p54;\H0.9143x;批准}
 73
     1
 44
1.0
  0
MTEXT
  5
80F
330
7EE
100
AcDbEntity
  8
2
100
AcDbMText
 10
-167.5423722918995
 20
26.48715659116107
 30
0.0
 40
2.799999999999998
 41
12.7813
 71
     1
 72
     5
  1
({\fSimSun|b0|i0|c134|p54;签名})
 73
     1
 44
1.0
  0
MTEXT
  5
810
330
7EE
100
AcDbEntity
  8
2
100
AcDbMText
 10
-127.0930953071402
 20
5.0867839242118
 30
0.0
 40
2.799999999999998
 41
12.7813
 71
     1
 72
     5
  1
({\fSimSun|b0|i0|c134|p54;签名})
 73
     1
 44
1.0
  0
MTEXT
  5
811
330
7EE
100
AcDbEntity
  8
2
100
AcDbMText
 10
-155.3640441223491
 20
26.2037272477162
 30
0.0
 40
3.1
 41
15.21494247882106
 71
     1
 72
     5
  1
{\H0.871x;(\fSimSun|b0|i0|c134|p54;年月日\Ftxt.shx|c0;)}
 73
     1
 44
1.0
  0
MTEXT
  5
812
330
7EE
100
AcDbEntity
  8
2
100
AcDbMText
 10
-139.2956955226532
 20
27.40198343395687
 30
0.0
 40
4.41
 41
19.17082752331453
 71
     1
 72
     5
  1
{\fSimSun|b0|i0|c134|p54;\H0.7256x;重量}
 73
     1
 44
1.0
  0
MTEXT
  5
813
330
7EE
100
AcDbEntity
  8
2
100
AcDbMText
 10
-114.464044122349
 20
33.60372724771619
 30
0.0
 40
3.1
 41
15.21494247882106
 71
     1
 72
     5
  1
{\fSimSun|b0|i0|c134|p54;\H0.9677x;年月日}
 73
     1
 44
1.0
  0
MTEXT
  5
814
330
7EE
100
AcDbEntity
  8
2
100
AcDbMText
 10
-179.5423722918995
 20
33.68055847963285
 30
0.0
 40
3.0
 41
12.7813
 71
     1
 72
     5
  1
{\fSimSun|b0|i0|c134|p54;\H0.9722x;标记\Ftxt.shx|c0;\H1.029x;}
 73
     1
 44
1.0
  0
MTEXT
  5
815
330
7EE
100
AcDbEntity
  8
2
100
AcDbMText
 10
-169.5423722918994
 20
33.68055847963285
 30
0.0
 40
3.0
 41
12.7813
 71
     1
 72
     5
  1
{\fSimSun|b0|i0|c134|p54;处数}
 73
     1
 44
1.0
  0
MTEXT
  5
816
330
7EE
100
AcDbEntity
  8
2
100
AcDbMText
 10
-156.9708326444724
 20
33.68055847963285
 30
0.0
 40
3.0
 41
12.7813
 71
     1
 72
     5
  1
{\fSimSun|b0|i0|c134|p54;分区}
 73
     1
 44
1.0
  0
MTEXT
  5
817
330
7EE
100
AcDbEntity
  8
2
100
AcDbMText
 10
-143.8003987995757
 20
33.47213383250566
 30
0.0
 40
3.0
 41
18.0605
 71
     1
 72
     5
  1
{\fSimSun|b0|i0|c134|p2;\H0.7333x;更改文件号}
 73
     1
 44
1.0
  0
MTEXT
  5
818
330
7EE
100
AcDbEntity
  8
2
100
AcDbMText
 10
-126.2566024681859
 20
33.68715659116113
 30
0.0
 40
2.799999999999998
 41
12.7813
 71
     1
 72
     5
  1
{\fSimSun|b0|i0|c134|p54;\H1.071x;签名}
 73
     1
 44
1.0
  0
MTEXT
  5
819
330
7EE
100
AcDbEntity
  8
2
100
AcDbMText
 10
-114.4654914592061
 20
5.101329383920074
 30
0.0
 40
3.1
 41
15.21494247882106
 71
     1
 72
     5
  1
{\H0.871x;(\fSimSun|b0|i0|c134|p54;年月日\Ftxt.shx|c0;)}
 73
     1
 44
1.0
  0
MTEXT
  5
81A
330
7EE
100
AcDbEntity
  8
2
100
AcDbMText
 10
-94.15909930915541
 20
16.1845600008764
 30
0.0
 40
3.5
 41
32.78712919932809
 71
     1
 72
     5
  1
{\fSimSun|b0|i0|c134|p54;图样名称}
 73
     1
 44
1.0
  0
MTEXT
  5
81B
330
7EE
100
AcDbEntity
  8
2
100
AcDbMText
 10
-178.9236481746222
 20
19.75443720148553
 30
0.0
 40
3.5
 41
12.7813
 71
     1
 72
     5
  1
{\fSimSun|b0|i0|c134|p2;\H0.9143x;绘图}
 73
     1
 44
1.0
  0
MTEXT
  5
81C
330
7EE
100
AcDbEntity
  8
2
100
AcDbMText
 10
-139.2236475500172
 20
19.48888076308124
 30
0.0
 40
3.5
 41
12.7813
 71
     1
 72
     5
  1
{\fSimSun|b0|i0|c134|p2;\H0.9143x;比例}
 73
     1
 44
1.0
  0
MTEXT
  5
81D
330
7EE
100
AcDbEntity
  8
2
100
AcDbMText
 10
-40.21618299021554
 20
51.47399498072038
 30
0.0
 40
4.0
 41
89.07384311883356
 71
     1
 72
     5
  1
{\fSimSun|b0|i0|c134|p54;长江电力检修厂}
 73
     1
 44
1.0
  0
MTEXT
  5
81E
330
7EE
100
AcDbEntity
  8
2
100
AcDbMText
 10
-36.58818540659479
 20
38.15321916632211
 30
0.0
 40
4.0
 41
89.07384311883356
 71
     1
 72
     5
  1
{\fSimSun|b0|i0|c134|p54;\H1.125x;葛洲坝电站}
 73
     1
 44
1.0
  0
MTEXT
  5
81F
330
7EE
100
AcDbEntity
  8
2
100
AcDbMText
 10
-85.19298158708847
 20
25.3124802184066
 30
0.0
 40
3.5
 41
27.43333333333334
 71
     1
 72
     5
  1
{\fTxt|b0|i0|c134|p2;（厂图号）}
 73
     1
 44
1.0
  0
LINE
  5
820
330
7EE
100
AcDbEntity
  8
1
100
AcDbLine
 10
-116.309284552237
 20
7.0
 30
0.0
 11
-116.309284552237
 21
-0.0000000000000142
 31
0.0
  0
LINE
  5
821
330
7EE
100
AcDbEntity
  8
1
100
AcDbLine
 10
-180.3092842772114
 20
55.99999973624007
 30
0.0
 11
-0.0000000000000568
 21
55.99999973624007
 31
0.0
  0
LINE
  5
822
330
7EE
100
AcDbEntity
  8
1
100
AcDbLine
 10
-0.309284277211475
 20
55.99999973624008
 30
0.0
 11
-180.3092845522369
 21
55.99999973624008
 31
0.0
  0
MTEXT
  5
823
330
7EE
100
AcDbEntity
  8
2
100
AcDbMText
 10
-139.2179531337411
 20
12.97093368376212
 30
0.0
 40
3.5
 41
12.7813
 71
     1
 72
     5
  1
{\fSimSun|b0|i0|c134|p2;\H0.9143x;材料}
 73
     1
 44
1.0
  0
LINE
  5
824
330
7EE
100
AcDbEntity
  8
1
100
AcDbLine
 10
-180.3092845522369
 20
0.0
 30
0.0
 11
-0.0000000000000568
 21
0.0
 31
0.0
  0
MTEXT
  5
825
330
7EE
100
AcDbEntity
  8
2
100
AcDbMText
 10
-31.29298158708844
 20
25.6124802184066
 30
0.0
 40
3.5
 41
21.43521402509419
 71
     1
 72
     5
  1
{\fSimSun|b0|i0|c134|p2;（所属）}
 73
     1
 44
1.0
  0
LINE
  5
826
330
7EE
100
AcDbEntity
  8
1
100
AcDbLine
 10
-0.0000000000000568
 20
55.99999973624007
 30
0.0
 11
0.0
 21
0.0
 31
0.0
  0
MTEXT
  5
827
330
7EE
100
AcDbEntity
  8
2
100
AcDbMText
 10
-80.62236028063944
 20
51.47604580587326
 30
0.0
 40
4.0
 41
41.01333333333331
 71
     1
 72
     5
  1
{\fSimHei|b1|i0|c134|p2;\H1.126x;中国长江电力股份有限公司}
 73
     1
 44
1.0
1001
ACAD
1000
ACAD_MTEXT_DEFINED_HEIGHT_BEGIN
1070
    46
1040
11.11002818375108
1000
ACAD_MTEXT_DEFINED_HEIGHT_END
  0
MTEXT
  5
828
330
7EE
100
AcDbEntity
  8
1
100
AcDbMText
 10
-79.45598391094603
 20
36.30095986852135
 30
0.0
 40
3.5
 41
50.19017857142856
 71
     1
 72
     5
  1
{\fArial|b0|i0|c0|p34;\H0.5743x;\C5;\c16646401;China Yangtze Power Co.,Ltd.}
 73
     1
 44
1.0
  0
ENDBLK
  5
829
330
7EE
100
AcDbEntity
  8
0
100
AcDbBlockEnd
  0
BLOCK
  5
82B
330
82A
100
AcDbEntity
  8
0
100
AcDbBlockBegin
  2
aaaa
 70
     0
 10
0.0
 20
0.0
 30
0.0
  3
aaaa
  1

  0
LINE
  5
82C
330
82A
100
AcDbEntity
  8
1
100
AcDbLine
 10
-179.690715447763
 20
0.0000000000002416
 30
0.0
 11
0.0
 21
0.0000000000002416
 31
0.0
  0
LINE
  5
82D
330
82A
100
AcDbEntity
  8
1
100
AcDbLine
 10
-179.9999999999999
 20
55.99999973624033
 30
0.0
 11
-180.0
 21
0.0000000000002416
 31
0.0
  0
LINE
  5
82E
330
82A
100
AcDbEntity
  8
1
100
AcDbLine
 10
-103.2907157227886
 20
18.00000000000023
 30
0.0
 11
0.0000000000000284
 21
18.00000000000023
 31
0.0
  0
LINE
  5
82F
330
82A
100
AcDbEntity
  8
1
100
AcDbLine
 10
-32.59071572278865
 20
41.90000000000025
 30
0.0
 11
0.0000000000000568
 21
41.90000000000024
 31
0.0
  0
LINE
  5
830
330
82A
100
AcDbEntity
  8
1
100
AcDbLine
 10
-67.69071572278858
 20
0.0000000000002416
 30
0.0
 11
-67.69071572278858
 21
18.00000000000023
 31
0.0
  0
LINE
  5
831
330
82A
100
AcDbEntity
  8
1
100
AcDbLine
 10
-32.59071572278863
 20
18.00000000000023
 30
0.0
 11
-32.59071572278859
 21
55.99999973624033
 31
0.0
  0
LINE
  5
832
330
82A
100
AcDbEntity
  8
1
100
AcDbLine
 10
-103.2907157227886
 20
0.0000000000002416
 30
0.0
 11
-103.2907157227886
 21
55.99999973624033
 31
0.0
  0
LINE
  5
833
330
82A
100
AcDbEntity
  8
1
100
AcDbLine
 10
-180.0
 20
28.00000000000024
 30
0.0
 11
0.0000000000000284
 21
28.00000000000025
 31
0.0
  0
LINE
  5
834
330
82A
100
AcDbEntity
  8
1
100
AcDbLine
 10
-180.0
 20
21.00000000000024
 30
0.0
 11
-103.2907157227886
 21
21.00000000000024
 31
0.0
  0
LINE
  5
835
330
82A
100
AcDbEntity
  8
1
100
AcDbLine
 10
-180.0
 20
35.00000000000024
 30
0.0
 11
-103.2907157227886
 21
35.00000000000025
 31
0.0
  0
LINE
  5
836
330
82A
100
AcDbEntity
  8
2
100
AcDbLine
 10
-180.0
 20
14.00000000000024
 30
0.0
 11
-103.2907157227886
 21
14.00000000000024
 31
0.0
  0
LINE
  5
837
330
82A
100
AcDbEntity
  8
2
100
AcDbLine
 10
-180.0
 20
7.00000000000024
 30
0.0
 11
-103.2907157227886
 21
7.00000000000024
 31
0.0
  0
LINE
  5
838
330
82A
100
AcDbEntity
  8
2
100
AcDbLine
 10
-180.0
 20
42.00000000000024
 30
0.0
 11
-103.2907157227886
 21
42.00000000000025
 31
0.0
  0
LINE
  5
839
330
82A
100
AcDbEntity
  8
2
100
AcDbLine
 10
-180.0
 20
49.00000000000024
 30
0.0
 11
-103.2907157227886
 21
49.00000000000027
 31
0.0
  0
LINE
  5
83A
330
82A
100
AcDbEntity
  8
1
100
AcDbLine
 10
-169.7999999999999
 20
28.00000000000024
 30
0.0
 11
-169.8
 21
0.0000000000002416
 31
0.0
  0
LINE
  5
83B
330
82A
100
AcDbEntity
  8
1
100
AcDbLine
 10
-155.8
 20
28.00000000000024
 30
0.0
 11
-155.8
 21
0.0000000000002274
 31
0.0
  0
LINE
  5
83C
330
82A
100
AcDbEntity
  8
1
100
AcDbLine
 10
-141.8
 20
28.00000000000024
 30
0.0
 11
-141.8
 21
0.0000000000002274
 31
0.0
  0
LINE
  5
83D
330
82A
100
AcDbEntity
  8
1
100
AcDbLine
 10
-130.0999999999999
 20
28.59801656604346
 30
0.0
 11
-130.0999999999999
 21
0.0000000000002416
 31
0.0
  0
LINE
  5
83E
330
82A
100
AcDbEntity
  8
1
100
AcDbLine
 10
-119.4
 20
55.99999973624033
 30
0.0
 11
-119.4
 21
28.00000000000024
 31
0.0
  0
LINE
  5
83F
330
82A
100
AcDbEntity
  8
1
100
AcDbLine
 10
-170.0
 20
55.99999973624033
 30
0.0
 11
-169.9999999999999
 21
28.00000000000024
 31
0.0
  0
LINE
  5
840
330
82A
100
AcDbEntity
  8
1
100
AcDbLine
 10
-160.0
 20
55.99999973624033
 30
0.0
 11
-159.9999999999999
 21
28.00000000000024
 31
0.0
  0
LINE
  5
841
330
82A
100
AcDbEntity
  8
1
100
AcDbLine
 10
-146.8
 20
55.99999973624033
 30
0.0
 11
-146.7999999999999
 21
28.00000000000029
 31
0.0
  0
LINE
  5
842
330
82A
100
AcDbEntity
  8
1
100
AcDbLine
 10
-130.0999999999999
 20
55.99999973624033
 30
0.0
 11
-130.0999999999999
 21
28.00000000000033
 31
0.0
  0
LINE
  5
843
330
82A
100
AcDbEntity
  8
1
100
AcDbLine
 10
-103.2907157227886
 20
9.000000000000241
 30
0.0
 11
0.0
 21
9.000000000000241
 31
0.0
  0
MTEXT
  5
844
330
82A
100
AcDbEntity
  8
2
100
AcDbMText
 10
-100.3237508741493
 20
6.644748072279341
 30
0.0
 40
3.0
 41
35.91270711289985
 71
     1
 72
     5
  1
{\fSimSun|b0|i0|c134|p54;\H1.033x;原图单位及图号}
 73
     1
 44
1.0
  0
MTEXT
  5
845
330
82A
100
AcDbEntity
  8
2
100
AcDbMText
 10
-179.2902028278058
 20
26.82944864117657
 30
0.0
 40
3.5
 41
12.7813
 71
     1
 72
     5
  1
{\fSimSun|b0|i0|c134|p2;\H0.9143x;设计}
 73
     1
 44
1.0
  0
MTEXT
  5
846
330
82A
100
AcDbEntity
  8
2
100
AcDbMText
 10
-179.2680539879999
 20
12.26860064975106
 30
0.0
 40
3.5
 41
13.337
 71
     1
 72
     5
  1
{\fTxt|b0|i0|c134|p2;\H0.9143x;审查}
 73
     1
 44
1.0
  0
MTEXT
  5
847
330
82A
100
AcDbEntity
  8
2
100
AcDbMText
 10
-179.4680552933658
 20
5.66860064975107
 30
0.0
 40
3.5
 41
13.337
 71
     1
 72
     5
  1
{\fSimSun|b0|i0|c134|p54;\H0.9143x;校核}
 73
     1
 44
1.0
  0
MTEXT
  5
848
330
82A
100
AcDbEntity
  8
2
100
AcDbMText
 10
-140.6680552933661
 20
5.668601349104066
 30
0.0
 40
3.5
 41
13.337
 71
     1
 72
     5
  1
{\fSimSun|b0|i0|c134|p54;\H0.9143x;批准}
 73
     1
 44
1.0
  0
MTEXT
  5
849
330
82A
100
AcDbEntity
  8
2
100
AcDbMText
 10
-140.3864109704163
 20
27.40198343395711
 30
0.0
 40
4.41
 41
19.17082752331453
 71
     1
 72
     5
  1
{\fSimSun|b0|i0|c134|p54;\H0.7256x;重量}
 73
     1
 44
1.0
  0
MTEXT
  5
84A
330
82A
100
AcDbEntity
  8
2
100
AcDbMText
 10
-117.754759570112
 20
33.70372724771645
 30
0.0
 40
3.1
 41
15.21494247882106
 71
     1
 72
     5
  1
{\fSimSun|b0|i0|c134|p54;\H0.9677x;年月日}
 73
     1
 44
1.0
  0
MTEXT
  5
84B
330
82A
100
AcDbEntity
  8
2
100
AcDbMText
 10
-179.2330877396625
 20
33.68055847963308
 30
0.0
 40
3.0
 41
12.7813
 71
     1
 72
     5
  1
{\fSimSun|b0|i0|c134|p54;标记}
 73
     1
 44
1.0
  0
MTEXT
  5
84C
330
82A
100
AcDbEntity
  8
2
100
AcDbMText
 10
-169.2330877396625
 20
33.68055847963308
 30
0.0
 40
3.0
 41
12.7813
 71
     1
 72
     5
  1
{\fSimSun|b0|i0|c134|p54;处数}
 73
     1
 44
1.0
  0
MTEXT
  5
84D
330
82A
100
AcDbEntity
  8
2
100
AcDbMText
 10
-157.4615480922355
 20
33.68055847963308
 30
0.0
 40
3.0
 41
12.7813
 71
     1
 72
     5
  1
{\fSimSun|b0|i0|c134|p54;分区}
 73
     1
 44
1.0
  0
MTEXT
  5
84E
330
82A
100
AcDbEntity
  8
2
100
AcDbMText
 10
-146.1911142473388
 20
33.7721338325059
 30
0.0
 40
3.0
 41
18.0605
 71
     1
 72
     5
  1
{\fSimSun|b0|i0|c134|p2;\H0.7333x;更改文件号}
 73
     1
 44
1.0
  0
MTEXT
  5
84F
330
82A
100
AcDbEntity
  8
2
100
AcDbMText
 10
-128.747317915949
 20
33.68715659116137
 30
0.0
 40
2.799999999999998
 41
12.7813
 71
     1
 72
     5
  1
{\fSimSun|b0|i0|c134|p54;\H1.071x;签名}
 73
     1
 44
1.0
  0
MTEXT
  5
850
330
82A
100
AcDbEntity
  8
2
100
AcDbMText
 10
-100.1498147569184
 20
16.18456000087664
 30
0.0
 40
3.5
 41
32.78712919932809
 71
     1
 72
     5
  1
{\fSimSun|b0|i0|c134|p54;图} {\fSimSun|b0|i0|c134|p54;样} {\fSimSun|b0|i0|c134|p54;名} {\fSimSun|b0|i0|c134|p54;称}
 73
     1
 44
1.0
  0
MTEXT
  5
851
330
82A
100
AcDbEntity
  8
2
100
AcDbMText
 10
-179.1143636223852
 20
19.75443720148577
 30
0.0
 40
3.5
 41
12.7813
 71
     1
 72
     5
  1
{\fSimSun|b0|i0|c134|p2;\H0.9143x;绘图}
 73
     1
 44
1.0
  0
MTEXT
  5
852
330
82A
100
AcDbEntity
  8
2
100
AcDbMText
 10
-140.7143629977802
 20
19.48888076308148
 30
0.0
 40
3.5
 41
12.7813
 71
     1
 72
     5
  1
{\fSimSun|b0|i0|c134|p2;\H0.9143x;比例}
 73
     1
 44
1.0
  0
MTEXT
  5
853
330
82A
100
AcDbEntity
  8
2
100
AcDbMText
 10
-27.50689843797858
 20
51.0739949807206
 30
0.0
 40
4.0
 41
89.07384311883356
 71
     1
 72
     5
  1
{\fSimSun|b0|i0|c134|p54;\H0.875x;检\Ftxt.shx|c0; \fSimSun|b0|i0|c134|p54;修\Ftxt.shx|c0; \fSimSun|b0|i0|c134|p54;厂}
 73
     1
 44
1.0
  0
MTEXT
  5
854
330
82A
100
AcDbEntity
  8
2
100
AcDbMText
 10
-28.7789008543578
 20
37.45321916632235
 30
0.0
 40
4.0
 41
89.07384311883356
 71
     1
 72
     5
  1
{\fSimSun|b0|i0|c134|p54;\H0.875x;葛洲坝电站}
 73
     1
 44
1.0
  0
LINE
  5
855
330
82A
100
AcDbEntity
  8
1
100
AcDbLine
 10
-116.6953578613943
 20
7.00000000000024
 30
0.0
 11
-116.6953578613942
 21
0.0000000000002274
 31
0.0
  0
LINE
  5
856
330
82A
100
AcDbEntity
  8
1
100
AcDbLine
 10
0.0000002750255135
 20
55.99999973624033
 30
0.0
 11
-179.9999999999999
 21
55.99999973624033
 31
0.0
  0
MTEXT
  5
857
330
82A
100
AcDbEntity
  8
2
100
AcDbMText
 10
-140.7086685815042
 20
12.97093368376237
 30
0.0
 40
3.5
 41
12.7813
 71
     1
 72
     5
  1
{\fSimSun|b0|i0|c134|p2;\H0.9143x;材料}
 73
     1
 44
1.0
  0
MTEXT
  5
858
330
82A
100
AcDbEntity
  8
2
100
AcDbMText
 10
-75.11307572840241
 20
46.67604580587353
 30
0.0
 40
4.0
 41
43.68
 71
     1
 72
     5
  1
{\fSimHei|b0|i0|c134|p2;\H1.8x;长\fSimHei|b1|i0|c134|p2;江电力}
 73
     1
 44
1.0
1001
ACAD
1000
ACAD_MTEXT_DEFINED_HEIGHT_BEGIN
1070
    46
1040
11.11002818375108
1000
ACAD_MTEXT_DEFINED_HEIGHT_END
  0
MTEXT
  5
859
330
82A
100
AcDbEntity
  8
1
100
AcDbMText
 10
-74.14669935870901
 20
37.10095986852159
 30
0.0
 40
3.5
 41
50.19017857142856
 71
     1
 72
     5
  1
{\fArial|b0|i0|c0|p34;\H0.6x;\C5;\c16646401;China Yangtze Power Co.,Ltd.\Ftxt.shx|c0;\C256;}
 73
     1
 44
1.0
  0
LINE
  5
85A
330
82A
100
AcDbEntity
  8
1
100
AcDbLine
 10
-180.0
 20
0.0
 30
0.0
 11
0.0
 21
0.0
 31
0.0
  0
LINE
  5
85B
330
82A
100
AcDbEntity
  8
1
100
AcDbLine
 10
0.0000000000000853
 20
55.99999973624008
 30
0.0
 11
0.0
 21
0.0
 31
0.0
  0
ENDBLK
  5
85C
330
82A
100
AcDbEntity
  8
0
100
AcDbBlockEnd
  0
BLOCK
  5
891
330
85F
100
AcDbEntity
  8
0
100
AcDbBlockBegin
  2
BTL1-WHU
 70
     0
 10
0.0
 20
0.0
 30
0.0
  3
BTL1-WHU
  1

  0
LINE
  5
860
330
85F
100
AcDbEntity
  8
1
100
AcDbLine
 10
-179.690715447763
 20
0.0000000000002416
 30
0.0
 11
0.0
 21
0.0000000000002416
 31
0.0
  0
LINE
  5
861
330
85F
100
AcDbEntity
  8
1
100
AcDbLine
 10
-179.9999999999999
 20
55.99999973624033
 30
0.0
 11
-180.0
 21
0.0000000000002416
 31
0.0
  0
LINE
  5
862
330
85F
100
AcDbEntity
  8
2
100
AcDbLine
 10
-180.0
 20
21.00000000000024
 30
0.0
 11
-100.0
 21
21.00000000000024
 31
0.0
  0
LINE
  5
863
330
85F
100
AcDbEntity
  8
1
100
AcDbLine
 10
-180.0
 20
35.00000000000024
 30
0.0
 11
-100.0
 21
35.00000000000024
 31
0.0
  0
LINE
  5
864
330
85F
100
AcDbEntity
  8
2
100
AcDbLine
 10
-180.0
 20
14.00000000000024
 30
0.0
 11
-100.0
 21
14.00000000000024
 31
0.0
  0
LINE
  5
865
330
85F
100
AcDbEntity
  8
2
100
AcDbLine
 10
-180.0
 20
7.00000000000024
 30
0.0
 11
-100.0
 21
7.00000000000024
 31
0.0
  0
LINE
  5
866
330
85F
100
AcDbEntity
  8
2
100
AcDbLine
 10
-180.0
 20
42.00000000000024
 30
0.0
 11
-100.0
 21
42.00000000000025
 31
0.0
  0
LINE
  5
867
330
85F
100
AcDbEntity
  8
2
100
AcDbLine
 10
-180.0
 20
49.00000000000024
 30
0.0
 11
-100.0
 21
49.00000000000025
 31
0.0
  0
LINE
  5
868
330
85F
100
AcDbEntity
  8
1
100
AcDbLine
 10
-155.8
 20
28.00000000000024
 30
0.0
 11
-155.8
 21
0.0000000000002274
 31
0.0
  0
LINE
  5
869
330
85F
100
AcDbEntity
  8
1
100
AcDbLine
 10
-116.6953578613943
 20
55.99999973624033
 30
0.0
 11
-116.6953578613943
 21
-0.0000000000000009
 31
0.0
  0
LINE
  5
86A
330
85F
100
AcDbEntity
  8
1
100
AcDbLine
 10
-170.0
 20
55.99999973624033
 30
0.0
 11
-169.9999999999999
 21
28.00000000000024
 31
0.0
  0
LINE
  5
86B
330
85F
100
AcDbEntity
  8
1
100
AcDbLine
 10
-160.0
 20
55.99999973624033
 30
0.0
 11
-159.9999999999999
 21
28.00000000000024
 31
0.0
  0
MTEXT
  5
86C
330
85F
100
AcDbEntity
  8
2
100
AcDbMText
 10
-178.4
 20
5.66860064975107
 30
0.0
 40
3.5
 41
12.26894470663416
 71
     1
 72
     5
  1
{\fSimSun|b0|i0|c134|p54;工艺}
 73
     1
 44
1.0
  0
MTEXT
  5
86D
330
85F
100
AcDbEntity
  8
2
100
AcDbMText
 10
-179.2330877396625
 20
33.68055847963308
 30
0.0
 40
3.0
 41
9.929999999999999
 71
     1
 72
     5
  1
{\fSimSun|b0|i0|c134|p54;标记}
 73
     1
 44
1.0
  0
MTEXT
  5
86E
330
85F
100
AcDbEntity
  8
2
100
AcDbMText
 10
-169.2330877396625
 20
33.68055847963308
 30
0.0
 40
3.0
 41
10.68
 71
     1
 72
     5
  1
\pt12;{\fSimSun|b0|i0|c134|p54;处数}
 73
     1
 44
1.0
  0
MTEXT
  5
86F
330
85F
100
AcDbEntity
  8
2
100
AcDbMText
 10
-157.4615480922355
 20
33.68055847963308
 30
0.0
 40
3.0
 41
16.83
 71
     1
 72
     5
  1
{\fSimSun|b0|i0|c134|p54;分 区}
 73
     1
 44
1.0
  0
MTEXT
  5
870
330
85F
100
AcDbEntity
  8
2
100
AcDbMText
 10
-143.9999999999999
 20
33.57213383250591
 30
0.0
 40
3.0
 41
15.8693857526611
 71
     1
 72
     5
  1
{\fSimSun|b0|i0|c134|p2;\H0.7333x;更改文件号}
 73
     1
 44
1.0
  0
LINE
  5
871
330
85F
100
AcDbEntity
  8
1
100
AcDbLine
 10
0.0000002750255135
 20
55.99999973624033
 30
0.0
 11
-179.9999999999999
 21
55.99999973624033
 31
0.0
  0
LINE
  5
872
330
85F
100
AcDbEntity
  8
1
100
AcDbLine
 10
-180.0
 20
0.0
 30
0.0
 11
0.0
 21
0.0
 31
0.0
  0
LINE
  5
873
330
85F
100
AcDbEntity
  8
1
100
AcDbLine
 10
0.0000000000000853
 20
55.99999973624008
 30
0.0
 11
0.0
 21
0.0
 31
0.0
  0
LINE
  5
874
330
85F
100
AcDbEntity
  8
1
100
AcDbLine
 10
-100.0
 20
0.0000000000000009
 30
0.0
 11
-100.0
 21
55.99999973624033
 31
0.0
  0
LINE
  5
875
330
85F
100
AcDbEntity
  8
1
100
AcDbLine
 10
-50.00000000000003
 20
55.99999973624033
 30
0.0
 11
-50.00000000000003
 21
0.0000000000002416
 31
0.0
  0
LINE
  5
876
330
85F
100
AcDbEntity
  8
2
100
AcDbLine
 10
-93.49999999999999
 20
9.000000000000255
 30
0.0
 11
-93.50000000000004
 21
18.00000000000025
 31
0.0
  0
LINE
  5
877
330
85F
100
AcDbEntity
  8
2
100
AcDbLine
 10
-87.00000000000001
 20
9.000000000000255
 30
0.0
 11
-87.00000000000001
 21
18.00000000000025
 31
0.0
  0
LINE
  5
878
330
85F
100
AcDbEntity
  8
2
100
AcDbLine
 10
-80.50000000000002
 20
9.000000000000252
 30
0.0
 11
-80.50000000000002
 21
18.00000000000025
 31
0.0
  0
LINE
  5
879
330
85F
100
AcDbEntity
  8
1
100
AcDbLine
 10
0.0000000000000568
 20
18.00000000000023
 30
0.0
 11
-100.0
 21
18.00000000000026
 31
0.0
  0
LINE
  5
87A
330
85F
100
AcDbEntity
  8
1
100
AcDbLine
 10
0.0000000000000568
 20
38.00000000000024
 30
0.0
 11
-50.00000000000003
 21
38.00000000000025
 31
0.0
  0
LINE
  5
87B
330
85F
100
AcDbEntity
  8
1
100
AcDbLine
 10
-50.00000000000003
 20
9.000000000000248
 30
0.0
 11
-100.0
 21
9.000000000000255
 31
0.0
  0
LINE
  5
87C
330
85F
100
AcDbEntity
  8
1
100
AcDbLine
 10
-179.9999999999999
 20
27.99999986812029
 30
0.0
 11
-50.00000000000007
 21
28.00000008242525
 31
0.0
  0
LINE
  5
87D
330
85F
100
AcDbEntity
  8
1
100
AcDbLine
 10
-62.00000000000002
 20
9.000000000000248
 30
0.0
 11
-62.00000000000002
 21
28.00000006264325
 31
0.0
  0
LINE
  5
87E
330
85F
100
AcDbEntity
  8
1
100
AcDbLine
 10
-74.00000000000003
 20
9.000000000000252
 30
0.0
 11
-74.00000000000003
 21
28.00000004286125
 31
0.0
  0
LINE
  5
87F
330
85F
100
AcDbEntity
  8
1
100
AcDbLine
 10
-128.0
 20
0.0000000000002416
 30
0.0
 11
-128.0
 21
55.99999973624033
 31
0.0
  0
LINE
  5
880
330
85F
100
AcDbEntity
  8
1
100
AcDbLine
 10
-168.0
 20
0.0
 30
0.0
 11
-168.0
 21
27.99999988790228
 31
0.0
  0
LINE
  5
881
330
85F
100
AcDbEntity
  8
1
100
AcDbLine
 10
-140.0
 20
0.0
 30
0.0
 11
-140.0
 21
27.40198343395711
 31
0.0
  0
LINE
  5
882
330
85F
100
AcDbEntity
  8
1
100
AcDbLine
 10
-143.9999999999999
 20
55.99999973624033
 30
0.0
 11
-143.9999999999999
 21
27.99999992746627
 31
0.0
  0
MTEXT
  5
883
330
85F
100
AcDbEntity
  8
2
100
AcDbMText
 10
-96.6
 20
7.5
 30
0.0
 40
3.5
 41
48.24999999999998
 71
     1
 72
     5
  1
{\fSimSun|b0|i0|c134|p54;共   张   第   张   }
 73
     1
 44
1.0
  0
MTEXT
  5
884
330
85F
100
AcDbEntity
  8
2
100
AcDbMText
 10
-97.19999999999998
 20
25.6
 30
0.0
 40
3.5
 41
23.48888888888889
 71
     1
 72
     5
  1
{\fSimSun|b0|i0|c134|p54;阶段标记}
 73
     1
 44
1.0
  0
MTEXT
  5
885
330
85F
100
AcDbEntity
  8
2
100
AcDbMText
 10
-73.19999999999997
 20
25.6
 30
0.0
 40
3.5
 41
13.35555555555555
 71
     1
 72
     5
  1
{\fSimSun|b0|i0|c134|p54;重量}
 73
     1
 44
1.0
  0
MTEXT
  5
886
330
85F
100
AcDbEntity
  8
2
100
AcDbMText
 10
-61.19999999999999
 20
25.6
 30
0.0
 40
3.5
 41
13.35555555555555
 71
     1
 72
     5
  1
{\fSimSun|b0|i0|c134|p54;比例}
 73
     1
 44
1.0
  0
MTEXT
  5
887
330
85F
100
AcDbEntity
  8
2
100
AcDbMText
 10
-178.4
 20
12.66860064975107
 30
0.0
 40
3.5
 41
12.26894470663416
 71
     1
 72
     5
  1
{\fSimSun|b0|i0|c134|p54;审核}
 73
     1
 44
1.0
  0
MTEXT
  5
888
330
85F
100
AcDbEntity
  8
2
100
AcDbMText
 10
-178.709284552237
 20
26.66860064975107
 30
0.0
 40
3.5
 41
12.26894470663416
 71
     1
 72
     5
  1
{\fSimSun|b0|i0|c134|p54;设计}
 73
     1
 44
1.0
  0
MTEXT
  5
889
330
85F
100
AcDbEntity
  8
2
100
AcDbMText
 10
-138.709284552237
 20
5.668600649750827
 30
0.0
 40
3.5
 41
12.26894470663416
 71
     1
 72
     5
  1
{\fSimSun|b0|i0|c134|p54;批准}
 73
     1
 44
1.0
  0
MTEXT
  5
88A
330
85F
100
AcDbEntity
  8
2
100
AcDbMText
 10
-127.2330877396625
 20
33.68055847963308
 30
0.0
 40
3.0
 41
9.929999999999999
 71
     1
 72
     5
  1
{\fSimSun|b0|i0|c134|p54;签名}
 73
     1
 44
1.0
  0
MTEXT
  5
88B
330
85F
100
AcDbEntity
  8
2
100
AcDbMText
 10
-115.9284456010569
 20
33.68055847963308
 30
0.0
 40
3.0
 41
16.97999999999999
 71
     1
 72
     5
  1
{\fSimSun|b0|i0|c134|p54; 年月日}
 73
     1
 44
1.0
  0
MTEXT
  5
88C
330
85F
100
AcDbEntity
  8
2
100
AcDbMText
 10
-139.2330877396626
 20
26.08254191358997
 30
0.0
 40
2.5
 41
13.23
 71
     1
 72
     5
  1
{\fSimSun|b0|i0|c134|p54;标准化}
 73
     1
 44
1.0
  0
MTEXT
  5
88D
330
85F
100
AcDbEntity
  8
2
100
AcDbMText
 10
-46.79999999999998
 20
54.6
 30
0.0
 40
3.5
 41
45.9711111111111
 71
     1
 72
     5
  1
{\fSimSun|b0|i0|c134|p54; \H1.429x; 武汉大学\P 机械工程系}
 73
     1
 44
1.0
  0
ENDBLK
  5
892
330
85F
100
AcDbEntity
  8
0
100
AcDbBlockEnd
  0
BLOCK
  5
11BA
330
11B6
100
AcDbEntity
  8
0
100
AcDbBlockBegin
  2
A$C236C3E6C
 70
     0
 10
0.0
 20
0.0
 30
0.0
  3
A$C236C3E6C
  1

  0
MTEXT
  5
11B7
330
11B6
100
AcDbEntity
  8
2
100
AcDbMText
 10
0.6573031777377027
 20
4.643379567650498
 30
0.0
 40
3.5
 41
4.400000000000003
 71
     1
 72
     5
  1
{\fTimes New Roman|b0|i0|c0|p18;1}
 73
     1
 44
1.0
  0
ENDBLK
  5
11BB
330
11B6
100
AcDbEntity
  8
0
100
AcDbBlockEnd
  0
BLOCK
  5
1240
330
123B
100
AcDbEntity
  8
0
100
AcDbBlockBegin
  2
A$C7EAA3E3E
 70
     0
 10
0.0
 20
0.0
 30
0.0
  3
A$C7EAA3E3E
  1

  0
MTEXT
  5
123C
330
123B
100
AcDbEntity
  8
2
100
AcDbMText
 10
85.22373363819559
 20
6.523389627060992
 30
0.0
 40
2.0
 41
13.19999999999999
 71
     1
 72
     5
  1
{\fSimSun|b0|i0|c134|p54;主数组中盒子入口}
 73
     1
 44
1.0
  0
MTEXT
  5
123D
102
{ACAD_XDICTIONARY
360
1697
102
}
330
123B
100
AcDbEntity
  8
2
100
AcDbMText
 10
0.0
 20
29.78058020796686
 30
0.0
 40
2.0
 41
5.25
 71
     1
 72
     1
  1
\U+4E3B\U+6570\U+7EC4
 73
     1
 44
1.0
  0
ENDBLK
  5
1241
330
123B
100
AcDbEntity
  8
0
100
AcDbBlockEnd
  0
BLOCK
  5
1261
330
125D
100
AcDbEntity
  8
0
100
AcDbBlockBegin
  2
A$C3BFD43EC
 70
     0
 10
0.0
 20
0.0
 30
0.0
  3
A$C3BFD43EC
  1

  0
MTEXT
  5
125E
330
125D
100
AcDbEntity
  8
2
100
AcDbMText
 10
0.3756025705514219
 20
2.653360184331715
 30
0.0
 40
2.0
 41
4.400000000000003
 71
     1
 72
     5
  1
{\fTimes New Roman|b0|i0|c0|p18;1}
 73
     1
 44
1.0
  0
ENDBLK
  5
1262
330
125D
100
AcDbEntity
  8
0
100
AcDbBlockEnd
  0
BLOCK
  5
12D2
330
12CE
100
AcDbEntity
  8
0
100
AcDbBlockBegin
  2
A$C439C1006
 70
     0
 10
0.0
 20
0.0
 30
0.0
  3
A$C439C1006
  1

  0
MTEXT
  5
12CF
330
12CE
100
AcDbEntity
  8
2
100
AcDbMText
 10
0.136236289383362
 20
2.653359729971212
 30
0.0
 40
2.0
 41
1.260634290332944
 71
     1
 72
     5
  1
{\fTimes New Roman|b0|i0|c0|p18;0}
 73
     1
 44
1.0
  0
ENDBLK
  5
12D3
330
12CE
100
AcDbEntity
  8
0
100
AcDbBlockEnd
  0
BLOCK
  5
13C3
330
13BF
100
AcDbEntity
  8
0
100
AcDbBlockBegin
  2
A$C50185C62
 70
     0
 10
0.0
 20
0.0
 30
0.0
  3
A$C50185C62
  1

  0
LWPOLYLINE
  5
13C0
330
13BF
100
AcDbEntity
  8
2
100
AcDbPolyline
 90
        3
 70
     0
 10
2.780227360271993
 20
7.245048793911704
 40
0.0
 41
0.0
 10
0.8999994367796373
 20
2.24604168443872
 40
1.0
 41
0.0
 10
-0.0000005632203681
 20
0.0000001838435537
 40
0.0
 41
0.0
  0
ENDBLK
  5
13C4
330
13BF
100
AcDbEntity
  8
0
100
AcDbBlockEnd
  0
ENDSEC
  0
SECTION
  2
ENTITIES
  0
CIRCLE
  5
16A9
330
18
100
AcDbEntity
  8
2
100
AcDbCircle
 10
89.10000000000001
 20
210.8
 30
0.0
 40
118.0782791202514
  0
LINE
  5
16AA
330
18
100
AcDbEntity
  8
2
100
AcDbLine
 10
91.90000000000001
 20
219.8
 30
0.0
 11
361.6
 21
225.3
 31
0.0
  0
LINE
  5
16AB
330
18
100
AcDbEntity
  8
2
100
AcDbLine
 10
361.6
 20
225.3
 30
0.0
 11
387.5
 21
218.5
 31
0.0
  0
LINE
  5
16AC
330
18
100
AcDbEntity
  8
2
100
AcDbLine
 10
387.5
 20
218.5
 30
0.0
 11
387.5
 21
218.5
 31
0.0
  0
LINE
  5
16AD
330
18
100
AcDbEntity
  8
2
100
AcDbLine
 10
387.5
 20
218.5
 30
0.0
 11
387.5
 21
187.2
 31
0.0
  0
ENDSEC
  0
SECTION
  2
OBJECTS
  0
DICTIONARY
  5
C
330
0
100
AcDbDictionary
281
     1
  3
ACAD_COLOR
350
1E1
  3
ACAD_GROUP
350
D
  3
ACAD_IMAGE_DICT
350
893
  3
ACAD_LAYOUT
350
19A
  3
ACAD_MATERIAL
350
1E0
  3
ACAD_MLINESTYLE
350
1B
  3
ACAD_PLOTSETTINGS
350
19B
  3
ACAD_PLOTSTYLENAME
350
198
  3
ACAD_TABLESTYLE
350
264
  3
ACAD_VISUALSTYLE
350
1682
  3
AcDbVariableDictionary
350
1D4
  0
DICTIONARY
  5
85D
330
2
100
AcDbDictionary
280
     1
281
     1
  3
ACAD_LAYERSTATES
360
85E
  0
DICTIONARY
  5
2C2
330
18
100
AcDbDictionary
280
     1
281
     1
  3
ACAD_SORTENTS
360
2C3
  0
DICTIONARY
  5
307
330
2F1
100
AcDbDictionary
280
     1
281
     1
  3
ACAD_SORTENTS
360
88F
  0
DICTIONARY
  5
7EF
330
7EE
100
AcDbDictionary
280
     1
281
     1
  3
ACAD_SORTENTS
360
7F0
  0
DICTIONARY
  5
88E
330
85F
100
AcDbDictionary
280
     1
281
     1
  3
ACAD_SORTENTS
360
890
  0
DICTIONARY
  5
11B8
330
11B6
100
AcDbDictionary
280
     1
281
     1
  3
ACAD_SORTENTS
360
11B9
  0
DICTIONARY
  5
123E
330
123B
100
AcDbDictionary
280
     1
281
     1
  3
ACAD_SORTENTS
360
123F
  0
DICTIONARY
  5
125F
330
125D
100
AcDbDictionary
280
     1
281
     1
  3
ACAD_SORTENTS
360
1260
  0
DICTIONARY
  5
12D0
330
12CE
100
AcDbDictionary
280
     1
281
     1
  3
ACAD_SORTENTS
360
12D1
  0
DICTIONARY
  5
13C1
330
13BF
100
AcDbDictionary
280
     1
281
     1
  3
ACAD_SORTENTS
360
13C2
  0
DICTIONARY
  5
1697
330
123D
100
AcDbDictionary
280
     1
281
     1
  3
ACAD_MTEXT_RT
360
16B0
  0
DICTIONARY
  5
1E1
102
{ACAD_REACTORS
330
C
102
}
330
C
100
AcDbDictionary
281
     1
  0
DICTIONARY
  5
D
102
{ACAD_REACTORS
330
C
102
}
330
C
100
AcDbDictionary
281
     1
  0
DICTIONARY
  5
893
102
{ACAD_REACTORS
330
C
102
}
330
C
100
AcDbDictionary
281
     1
  3
A$C1D321C68
350
894
  3
A$C26AA3725
350
895
  3
A$C30E1299D
350
896
  3
A$C63204559
350
897
  0
DICTIONARY
  5
19A
102
{ACAD_REACTORS
330
C
102
}
330
C
100
AcDbDictionary
281
     1
  3
Layout1
350
19D
  3
Model
350
19C
  0
DICTIONARY
  5
1E0
102
{ACAD_REACTORS
330
C
102
}
330
C
100
AcDbDictionary
281
     1
  3
ByBlock
350
1681
  3
ByLayer
350
1680
  3
Global
350
6D2
  0
DICTIONARY
  5
1B
102
{ACAD_REACTORS
330
C
102
}
330
C
100
AcDbDictionary
281
     1
  3
STANDARD
350
1C
  0
DICTIONARY
  5
19B
102
{ACAD_REACTORS
330
C
102
}
330
C
100
AcDbDictionary
281
     1
  0
ACDBDICTIONARYWDFLT
  5
198
102
{ACAD_REACTORS
330
C
102
}
330
C
100
AcDbDictionary
281
     1
  3
Normal
350
199
100
AcDbDictionaryWithDefault
340
199
  0
DICTIONARY
  5
264
102
{ACAD_REACTORS
330
C
102
}
330
C
100
AcDbDictionary
281
     1
  3
Standard
350
265
  0
DICTIONARY
  5
1682
102
{ACAD_REACTORS
330
C
102
}
330
C
100
AcDbDictionary
281
     1
  3
2dWireframe
350
1688
  3
3D Hidden
350
168A
  3
3dWireframe
350
1689
  3
Basic
350
1687
  3
Brighten
350
168E
  3
ColorChange
350
1692
  3
Conceptual
350
168B
  3
Dim
350
168D
  3
Facepattern
350
1691
  3
Flat
350
1683
  3
FlatWithEdges
350
1684
  3
Gouraud
350
1685
  3
GouraudWithEdges
350
1686
  3
Linepattern
350
1690
  3
Realistic
350
168C
  3
Thicken
350
168F
  0
DICTIONARY
  5
1D4
102
{ACAD_REACTORS
330
C
102
}
330
C
100
AcDbDictionary
281
     1
  3
CTABLESTYLE
350
27F
  3
DIMASSOC
350
1D5
  0
DICTIONARY
  5
85E
102
{ACAD_REACTORS
330
85D
102
}
330
85D
100
AcDbDictionary
281
     1
  0
SORTENTSTABLE
  5
2C3
102
{ACAD_REACTORS
330
2C2
102
}
330
2C2
100
AcDbSortentsTable
330
18
  0
SORTENTSTABLE
  5
88F
102
{ACAD_REACTORS
330
307
102
}
330
307
100
AcDbSortentsTable
330
2F1
  0
SORTENTSTABLE
  5
7F0
102
{ACAD_REACTORS
330
7EF
102
}
330
7EF
100
AcDbSortentsTable
330
7EE
  0
SORTENTSTABLE
  5
890
102
{ACAD_REACTORS
330
88E
102
}
330
88E
100
AcDbSortentsTable
330
85F
  0
SORTENTSTABLE
  5
11B9
102
{ACAD_REACTORS
330
11B8
102
}
330
11B8
100
AcDbSortentsTable
330
11B6
  0
SORTENTSTABLE
  5
123F
102
{ACAD_REACTORS
330
123E
102
}
330
123E
100
AcDbSortentsTable
330
123B
  0
SORTENTSTABLE
  5
1260
102
{ACAD_REACTORS
330
125F
102
}
330
125F
100
AcDbSortentsTable
330
125D
  0
SORTENTSTABLE
  5
12D1
102
{ACAD_REACTORS
330
12D0
102
}
330
12D0
100
AcDbSortentsTable
330
12CE
  0
SORTENTSTABLE
  5
13C2
102
{ACAD_REACTORS
330
13C1
102
}
330
13C1
100
AcDbSortentsTable
330
13BF
  0
XRECORD
  5
16B0
102
{ACAD_REACTORS
330
1697
102
}
330
1697
100
AcDbXrecord
280
     1
 40
14464.0
  1
主数组
  0
IMAGEDEF
  5
894
102
{ACAD_REACTORS
330
893
102
}
330
893
100
AcDbRasterImageDef
 90
        0
  1
c:\windows\TEMP\A$C1D321C68.dib
 10
385.0
 20
358.0
 11
0.0025974025974026
 21
0.0025974025974026
280
     1
281
     0
  0
IMAGEDEF
  5
895
102
{ACAD_REACTORS
330
893
102
}
330
893
100
AcDbRasterImageDef
 90
        0
  1
c:\windows\TEMP\A$C26AA3725.dib
 10
385.0
 20
358.0
 11
0.0025974025974026
 21
0.0025974025974026
280
     1
281
     0
  0
IMAGEDEF
  5
896
102
{ACAD_REACTORS
330
893
102
}
330
893
100
AcDbRasterImageDef
 90
        0
  1
c:\windows\TEMP\A$C30E1299D.dib
 10
385.0
 20
358.0
 11
0.0025974025974026
 21
0.0025974025974026
280
     1
281
     0
  0
IMAGEDEF
  5
897
102
{ACAD_REACTORS
330
893
102
}
330
893
100
AcDbRasterImageDef
 90
        0
  1
c:\windows\TEMP\A$C63204559.dib
 10
385.0
 20
358.0
 11
0.0025974025974026
 21
0.0025974025974026
280
     1
281
     0
  0
LAYOUT
  5
19D
102
{ACAD_REACTORS
330
19A
102
}
330
19A
100
AcDbPlotSettings
  1

  2
EPSON Stylus COLOR 580
  4

  6

 40
0.0
 41
0.0
 42
0.0
 43
0.0
 44
0.0
 45
0.0
 46
0.0
 47
0.0
 48
0.0
 49
0.0
140
0.0
141
0.0
142
1.0
143
1.0
 70
   688
 72
     0
 73
     0
 74
     5
  7

 75
    16
147
1.0
 76
     0
 77
     2
 78
   300
148
0.0
149
0.0
100
AcDbLayout
  1
Layout1
 70
     1
 71
     1
 10
0.0
 20
0.0
 11
420.0
 21
297.0
 12
0.0
 22
0.0
 32
0.0
 14
1.000000000000000E+20
 24
1.000000000000000E+20
 34
1.000000000000000E+20
 15
-1.000000000000000E+20
 25
-1.000000000000000E+20
 35
-1.000000000000000E+20
146
0.0
 13
0.0
 23
0.0
 33
0.0
 16
1.0
 26
0.0
 36
0.0
 17
0.0
 27
1.0
 37
0.0
 76
     0
330
15
  0
LAYOUT
  5
19C
102
{ACAD_REACTORS
330
19A
102
}
330
19A
100
AcDbPlotSettings
  1

  2
在 QUYF 上自动 hp LaserJet 1010
  4
A4
  6

 40
4.603749752044675
 41
8.032736778259277
 42
5.154098510742186
 43
4.9847412109375
 44
210.0156707763672
 45
297.0106506347656
 46
0.0
 47
0.0
 48
0.0
 49
0.0
140
0.0
141
0.0
142
1.0
143
0.8799075284422494
 70
 11952
 72
     1
 73
     1
 74
     0
  7

 75
     0
147
1.136483059498714
 76
     0
 77
     2
 78
   300
148
-195.6923319409452
149
13.90853476294376
100
AcDbLayout
  1
Model
 70
     1
 71
     0
 10
0.0
 20
0.0
 11
12.0
 21
9.0
 12
0.0
 22
0.0
 32
0.0
 14
0.0
 24
0.0
 34
0.0
 15
0.0
 25
0.0
 35
0.0
146
0.0
 13
0.0
 23
0.0
 33
0.0
 16
1.0
 26
0.0
 36
0.0
 17
0.0
 27
1.0
 37
0.0
 76
     0
330
18
331
167C
1001
ACAD_PSEXT
1000
在 QUYF 上自动 hp LaserJet 1010
1000
hp LaserJet 1010
1000
\\QUYF
1000

1070
     0
  0
MATERIAL
  5
1681
102
{ACAD_XDICTIONARY
360
169B
102
}
102
{ACAD_REACTORS
330
1E0
102
}
330
1E0
100
AcDbMaterial
  1
ByBlock
  0
MATERIAL
  5
1680
102
{ACAD_XDICTIONARY
360
1699
102
}
102
{ACAD_REACTORS
330
1E0
102
}
330
1E0
100
AcDbMaterial
  1
ByLayer
  0
MATERIAL
  5
6D2
102
{ACAD_XDICTIONARY
360
6D3
102
}
102
{ACAD_REACTORS
330
1E0
102
}
330
1E0
100
AcDbMaterial
  1
Global
  0
MLINESTYLE
  5
1C
102
{ACAD_REACTORS
330
1B
102
}
330
1B
100
AcDbMlineStyle
  2
STANDARD
 70
     0
  3

 62
   256
 51
90.0
 52
90.0
 71
     2
 49
0.5
 62
   256
  6
BYLAYER
 49
-0.5
 62
   256
  6
BYLAYER
  0
ACDBPLACEHOLDER
  5
199
102
{ACAD_REACTORS
330
198
102
}
330
198
  0
TABLESTYLE
  5
265
102
{ACAD_XDICTIONARY
360
16AE
102
}
102
{ACAD_REACTORS
330
264
102
}
330
264
100
AcDbTableStyle
  3
Standard
 70
     0
 71
     0
 40
1.5
 41
1.5
280
     0
281
     0
  7
STANDARD
140
4.5
170
     2
 62
     0
 63
     7
283
     0
274
    -2
284
     1
 64
     0
275
    -2
285
     1
 65
     0
276
    -2
286
     1
 66
     0
277
    -2
287
     1
 67
     0
278
    -2
288
     1
 68
     0
279
    -2
289
     1
 69
     0
  7
STANDARD
140
6.0
170
     5
 62
     0
 63
     7
283
     0
274
    -2
284
     1
 64
     0
275
    -2
285
     1
 65
     0
276
    -2
286
     1
 66
     0
277
    -2
287
     1
 67
     0
278
    -2
288
     1
 68
     0
279
    -2
289
     1
 69
     0
  7
STANDARD
140
4.5
170
     5
 62
     0
 63
     7
283
     0
274
    -2
284
     1
 64
     0
275
    -2
285
     1
 65
     0
276
    -2
286
     1
 66
     0
277
    -2
287
     1
 67
     0
278
    -2
288
     1
 68
     0
279
    -2
289
     1
 69
     0
  0
VISUALSTYLE
  5
1688
102
{ACAD_REACTORS
330
1682
102
}
330
1682
100
AcDbVisualStyle
  2
2dWireframe
 70
     4
 71
     0
 72
     2
 73
     0
 90
        0
 40
-0.6
 41
-30.0
 62
     5
 63
     7
421
 16777215
 74
     1
 91
        4
 64
     7
 65
   257
 75
     1
175
     1
 42
1.0
 92
        0
 66
   257
 43
1.0
 76
     1
 77
     6
 78
     2
 67
     7
 79
     5
170
     0
171
     0
290
     0
174
     0
 93
        1
 44
0.0
173
     0
291
     0
 45
0.0
1001
ACAD
1000
AcDbSavedByObjectVersion
1070
     0
1000
AcDbSavedByObjectVersion
1070
     0
  0
VISUALSTYLE
  5
168A
102
{ACAD_REACTORS
330
1682
102
}
330
1682
100
AcDbVisualStyle
  2
3D Hidden
 70
     6
 71
     1
 72
     2
 73
     2
 90
        0
 40
-0.6
 41
-30.0
 62
     5
 63
     7
421
 16777215
 74
     2
 91
        2
 64
     7
 65
   257
 75
     2
175
     1
 42
40.0
 92
        0
 66
   257
 43
1.0
 76
     1
 77
     6
 78
     2
 67
     7
 79
     3
170
     0
171
     0
290
     0
174
     0
 93
        1
 44
0.0
173
     0
291
     0
 45
0.0
1001
ACAD
1000
AcDbSavedByObjectVersion
1070
     0
1000
AcDbSavedByObjectVersion
1070
     0
  0
VISUALSTYLE
  5
1689
102
{ACAD_REACTORS
330
1682
102
}
330
1682
100
AcDbVisualStyle
  2
3dWireframe
 70
     5
 71
     0
 72
     2
 73
     0
 90
        0
 40
-0.6
 41
-30.0
 62
     5
 63
     7
421
 16777215
 74
     1
 91
        4
 64
     7
 65
   257
 75
     1
175
     1
 42
1.0
 92
        0
 66
   257
 43
1.0
 76
     1
 77
     6
 78
     2
 67
     7
 79
     5
170
     0
171
     0
290
     0
174
     0
 93
        1
 44
0.0
173
     0
291
     0
 45
0.0
1001
ACAD
1000
AcDbSavedByObjectVersion
1070
     0
1000
AcDbSavedByObjectVersion
1070
     0
  0
VISUALSTYLE
  5
1687
102
{ACAD_REACTORS
330
1682
102
}
330
1682
100
AcDbVisualStyle
  2
Basic
 70
     7
 71
     1
 72
     0
 73
     1
 90
        0
 40
-0.6
 41
-30.0
 62
     5
 63
     7
421
 16777215
 74
     0
 91
        4
 64
     7
 65
   257
 75
     1
175
     1
 42
1.0
 92
        8
 66
     7
 43
1.0
 76
     1
 77
     6
 78
     2
 67
     7
 79
     5
170
     0
171
     0
290
     0
174
     0
 93
        1
 44
0.0
173
     0
291
     1
 45
0.0
1001
ACAD
1000
AcDbSavedByObjectVersion
1070
     0
1000
AcDbSavedByObjectVersion
1070
     0
  0
VISUALSTYLE
  5
168E
102
{ACAD_REACTORS
330
1682
102
}
330
1682
100
AcDbVisualStyle
  2
Brighten
 70
    12
 71
     2
 72
     2
 73
     0
 90
        0
 40
-0.6
 41
-30.0
 62
     5
 63
     7
421
 16777215
 74
     1
 91
        4
 64
     7
 65
   257
 75
     1
175
     1
 42
1.0
 92
        8
 66
     7
 43
1.0
 76
     1
 77
     6
 78
     2
 67
     7
 79
     5
170
     0
171
     0
290
     0
174
     0
 93
        1
 44
50.0
173
     0
291
     1
 45
0.0
1001
ACAD
1000
AcDbSavedByObjectVersion
1070
     0
1000
AcDbSavedByObjectVersion
1070
     0
  0
VISUALSTYLE
  5
1692
102
{ACAD_REACTORS
330
1682
102
}
330
1682
100
AcDbVisualStyle
  2
ColorChange
 70
    16
 71
     2
 72
     2
 73
     3
 90
        0
 40
-0.6
 41
-30.0
 62
     5
 63
     8
421
  8421504
 74
     1
 91
        4
 64
     7
 65
   257
 75
     1
175
     1
 42
1.0
 92
        8
 66
     8
424
  8421504
 43
1.0
 76
     1
 77
     6
 78
     2
 67
     7
 79
     5
170
     0
171
     0
290
     0
174
     0
 93
        1
 44
0.0
173
     0
291
     1
 45
0.0
1001
ACAD
1000
AcDbSavedByObjectVersion
1070
     0
1000
AcDbSavedByObjectVersion
1070
     0
  0
VISUALSTYLE
  5
168B
102
{ACAD_REACTORS
330
1682
102
}
330
1682
100
AcDbVisualStyle
  2
Conceptual
 70
     9
 71
     3
 72
     2
 73
     0
 90
        0
 40
-0.6
 41
-30.0
 62
     5
 63
     7
421
 16777215
 74
     2
 91
        2
 64
     7
 65
   257
 75
     1
175
     1
 42
40.0
 92
        8
 66
     7
 43
1.0
 76
     1
 77
     6
 78
     2
 67
     7
 79
     3
170
     0
171
     0
290
     0
174
     0
 93
        1
 44
0.0
173
     0
291
     0
 45
0.0
1001
ACAD
1000
AcDbSavedByObjectVersion
1070
     0
1000
AcDbSavedByObjectVersion
1070
     0
  0
VISUALSTYLE
  5
168D
102
{ACAD_REACTORS
330
1682
102
}
330
1682
100
AcDbVisualStyle
  2
Dim
 70
    11
 71
     2
 72
     2
 73
     0
 90
        0
 40
-0.6
 41
-30.0
 62
     5
 63
     7
421
 16777215
 74
     1
 91
        4
 64
     7
 65
   257
 75
     1
175
     1
 42
1.0
 92
        8
 66
     7
 43
1.0
 76
     1
 77
     6
 78
     2
 67
     7
 79
     5
170
     0
171
     0
290
     0
174
     0
 93
        1
 44
-50.0
173
     0
291
     1
 45
0.0
1001
ACAD
1000
AcDbSavedByObjectVersion
1070
     0
1000
AcDbSavedByObjectVersion
1070
     0
  0
VISUALSTYLE
  5
1691
102
{ACAD_REACTORS
330
1682
102
}
330
1682
100
AcDbVisualStyle
  2
Facepattern
 70
    15
 71
     2
 72
     2
 73
     0
 90
        0
 40
-0.6
 41
-30.0
 62
     5
 63
     7
421
 16777215
 74
     1
 91
        4
 64
     7
 65
   257
 75
     1
175
     1
 42
1.0
 92
        8
 66
     7
 43
1.0
 76
     1
 77
     6
 78
     2
 67
     7
 79
     5
170
     0
171
     0
290
     0
174
     0
 93
        1
 44
0.0
173
     0
291
     1
 45
0.0
1001
ACAD
1000
AcDbSavedByObjectVersion
1070
     0
1000
AcDbSavedByObjectVersion
1070
     0
  0
VISUALSTYLE
  5
1683
102
{ACAD_REACTORS
330
1682
102
}
330
1682
100
AcDbVisualStyle
  2
Flat
 70
     0
 71
     2
 72
     1
 73
     1
 90
        2
 40
-0.6
 41
30.0
 62
     5
 63
     7
421
 16777215
 74
     0
 91
        4
 64
     7
 65
   257
 75
     1
175
     1
 42
1.0
 92
        8
 66
     7
 43
1.0
 76
     1
 77
     6
 78
     2
 67
     7
 79
     5
170
     0
171
     0
290
     0
174
     0
 93
       13
 44
0.0
173
     0
291
     1
 45
0.0
1001
ACAD
1000
AcDbSavedByObjectVersion
1070
     0
1000
AcDbSavedByObjectVersion
1070
     0
  0
VISUALSTYLE
  5
1684
102
{ACAD_REACTORS
330
1682
102
}
330
1682
100
AcDbVisualStyle
  2
FlatWithEdges
 70
     1
 71
     2
 72
     1
 73
     1
 90
        2
 40
-0.6
 41
30.0
 62
     5
 63
     7
421
 16777215
 74
     1
 91
        4
 64
     7
 65
   257
 75
     1
175
     1
 42
1.0
 92
        0
 66
   257
 43
1.0
 76
     1
 77
     6
 78
     2
 67
     7
 79
     5
170
     0
171
     0
290
     0
174
     0
 93
       13
 44
0.0
173
     0
291
     1
 45
0.0
1001
ACAD
1000
AcDbSavedByObjectVersion
1070
     0
1000
AcDbSavedByObjectVersion
1070
     0
  0
VISUALSTYLE
  5
1685
102
{ACAD_REACTORS
330
1682
102
}
330
1682
100
AcDbVisualStyle
  2
Gouraud
 70
     2
 71
     2
 72
     2
 73
     1
 90
        2
 40
-0.6
 41
30.0
 62
     5
 63
     7
421
 16777215
 74
     0
 91
        4
 64
     7
 65
   257
 75
     1
175
     1
 42
1.0
 92
        0
 66
     7
 43
1.0
 76
     1
 77
     6
 78
     2
 67
     7
 79
     5
170
     0
171
     0
290
     0
174
     0
 93
       13
 44
0.0
173
     0
291
     1
 45
0.0
1001
ACAD
1000
AcDbSavedByObjectVersion
1070
     0
1000
AcDbSavedByObjectVersion
1070
     0
  0
VISUALSTYLE
  5
1686
102
{ACAD_REACTORS
330
1682
102
}
330
1682
100
AcDbVisualStyle
  2
GouraudWithEdges
 70
     3
 71
     2
 72
     2
 73
     1
 90
        2
 40
-0.6
 41
30.0
 62
     5
 63
     7
421
 16777215
 74
     1
 91
        4
 64
     7
 65
   257
 75
     1
175
     1
 42
1.0
 92
        0
 66
   257
 43
1.0
 76
     1
 77
     6
 78
     2
 67
     7
 79
     5
170
     0
171
     0
290
     0
174
     0
 93
       13
 44
0.0
173
     0
291
     1
 45
0.0
1001
ACAD
1000
AcDbSavedByObjectVersion
1070
     0
1000
AcDbSavedByObjectVersion
1070
     0
  0
VISUALSTYLE
  5
1690
102
{ACAD_REACTORS
330
1682
102
}
330
1682
100
AcDbVisualStyle
  2
Linepattern
 70
    14
 71
     2
 72
     2
 73
     0
 90
        0
 40
-0.6
 41
-30.0
 62
     5
 63
     7
421
 16777215
 74
     1
 91
        4
 64
     7
 65
   257
 75
     7
175
     7
 42
1.0
 92
        8
 66
     7
 43
1.0
 76
     1
 77
     6
 78
     2
 67
     7
 79
     5
170
     0
171
     0
290
     0
174
     0
 93
        1
 44
0.0
173
     0
291
     1
 45
0.0
1001
ACAD
1000
AcDbSavedByObjectVersion
1070
     0
1000
AcDbSavedByObjectVersion
1070
     0
  0
VISUALSTYLE
  5
168C
102
{ACAD_REACTORS
330
1682
102
}
330
1682
100
AcDbVisualStyle
  2
Realistic
 70
     8
 71
     2
 72
     2
 73
     0
 90
        0
 40
-0.6
 41
-30.0
 62
     5
 63
     7
421
 16777215
 74
     1
 91
        0
 64
     7
 65
   257
 75
     1
175
     1
 42
1.0
 92
        8
 66
     8
424
  7895160
 43
1.0
 76
     1
 77
     6
 78
     2
 67
     7
 79
     5
170
     0
171
     0
290
     0
174
     0
 93
       13
 44
0.0
173
     0
291
     0
 45
0.0
1001
ACAD
1000
AcDbSavedByObjectVersion
1070
     0
1000
AcDbSavedByObjectVersion
1070
     0
  0
VISUALSTYLE
  5
168F
102
{ACAD_REACTORS
330
1682
102
}
330
1682
100
AcDbVisualStyle
  2
Thicken
 70
    13
 71
     2
 72
     2
 73
     0
 90
        0
 40
-0.6
 41
-30.0
 62
     5
 63
     7
421
 16777215
 74
     1
 91
        4
 64
     7
 65
   257
 75
     1
175
     1
 42
1.0
 92
       12
 66
     7
 43
1.0
 76
     1
 77
     6
 78
     2
 67
     7
 79
     5
170
     0
171
     0
290
     0
174
     0
 93
        1
 44
0.0
173
     0
291
     1
 45
0.0
1001
ACAD
1000
AcDbSavedByObjectVersion
1070
     0
1000
AcDbSavedByObjectVersion
1070
     0
  0
DICTIONARYVAR
  5
27F
102
{ACAD_REACTORS
330
1D4
102
}
330
1D4
100
DictionaryVariables
280
     0
  1
STANDARD
  0
DICTIONARYVAR
  5
1D5
102
{ACAD_REACTORS
330
1D4
102
}
330
1D4
100
DictionaryVariables
280
     0
  1
1
  0
DICTIONARY
  5
169B
330
1681
100
AcDbDictionary
280
     1
281
     1
  3
ACAD_XREC_ROUNDTRIP
360
169C
  0
DICTIONARY
  5
1699
330
1680
100
AcDbDictionary
280
     1
281
     1
  3
ACAD_XREC_ROUNDTRIP
360
169A
  0
DICTIONARY
  5
6D3
330
6D2
100
AcDbDictionary
280
     1
281
     1
  3
ACAD_XREC_ROUNDTRIP
360
6D4
  0
DICTIONARY
  5
16AE
330
265
100
AcDbDictionary
280
     1
281
     1
  3
ACAD_XREC_ROUNDTRIP
360
16AF
  0
XRECORD
  5
169C
102
{ACAD_REACTORS
330
169B
102
}
330
169B
100
AcDbXrecord
280
     1
102
MATERIAL
148
0.0
149
0.0
149
0.0
 93
        0
 94
       63
282
     0
 72
     1
 77
     1
171
     1
175
     1
179
     1
273
     0
  0
XRECORD
  5
169A
102
{ACAD_REACTORS
330
1699
102
}
330
1699
100
AcDbXrecord
280
     1
102
MATERIAL
148
0.0
149
0.0
149
0.0
 93
        0
 94
       63
282
     0
 72
     1
 77
     1
171
     1
175
     1
179
     1
273
     0
  0
XRECORD
  5
6D4
102
{ACAD_REACTORS
330
6D3
102
}
330
6D3
100
AcDbXrecord
280
     1
102
MATERIAL
148
0.0
149
0.0
149
0.0
 93
        0
 94
       63
282
     0
 72
     1
 77
     1
171
     1
175
     1
179
     1
273
     0
  0
XRECORD
  5
16AF
102
{ACAD_REACTORS
330
16AE
102
}
330
16AE
100
AcDbXrecord
280
     1
102
ACAD_ROUNDTRIP_PRE2007_TABLESTYLE
 90
        4
 91
        0
  1

 92
        4
 93
        0
  2

 94
        4
 95
        0
  3

  0
ENDSEC
  0
EOF
