  0
SECTION
  2
HEADER
  9
$ACADVER
  1
AC1018
  9
$ACADMAINTVER
 70
   104
  9
$DWGCODEPAGE
  3
ANSI_936
  9
$LASTSAVEDBY
  1
Administrator
  9
$INSBASE
 10
0.0
 20
0.0
 30
0.0
  9
$EXTMIN
 10
-185.9082546369948
 20
0.0
 30
0.0
  9
$EXTMAX
 10
350.0
 20
489.5178488279426
 30
0.0
  9
$LIMMIN
 10
0.0
 20
0.0
  9
$LIMMAX
 10
420.0
 20
297.0
  9
$ORTHOMODE
 70
     0
  9
$REGENMODE
 70
     1
  9
$FILLMODE
 70
     1
  9
$QTEXTMODE
 70
     0
  9
$MIRRTEXT
 70
     0
  9
$LTSCALE
 40
1.0
  9
$ATTMODE
 70
     1
  9
$TEXTSIZE
 40
2.5
  9
$TRACEWID
 40
1.0
  9
$TEXTSTYLE
  7
Standard
  9
$CLAYER
  8
0
  9
$CELTYPE
  6
ByLayer
  9
$CECOLOR
 62
   256
  9
$CELTSCALE
 40
1.0
  9
$DISPSILH
 70
     0
  9
$DIMSCALE
 40
1.0
  9
$DIMASZ
 40
2.5
  9
$DIMEXO
 40
0.625
  9
$DIMDLI
 40
3.75
  9
$DIMRND
 40
0.0
  9
$DIMDLE
 40
0.0
  9
$DIMEXE
 40
1.25
  9
$DIMTP
 40
0.0
  9
$DIMTM
 40
0.0
  9
$DIMTXT
 40
2.5
  9
$DIMCEN
 40
2.5
  9
$DIMTSZ
 40
0.0
  9
$DIMTOL
 70
     0
  9
$DIMLIM
 70
     0
  9
$DIMTIH
 70
     0
  9
$DIMTOH
 70
     0
  9
$DIMSE1
 70
     0
  9
$DIMSE2
 70
     0
  9
$DIMTAD
 70
     1
  9
$DIMZIN
 70
     8
  9
$DIMBLK
  1

  9
$DIMASO
 70
     1
  9
$DIMSHO
 70
     1
  9
$DIMPOST
  1

  9
$DIMAPOST
  1

  9
$DIMALT
 70
     0
  9
$DIMALTD
 70
     3
  9
$DIMALTF
 40
0.03937007874016
  9
$DIMLFAC
 40
1.0
  9
$DIMTOFL
 70
     1
  9
$DIMTVP
 40
0.0
  9
$DIMTIX
 70
     0
  9
$DIMSOXD
 70
     0
  9
$DIMSAH
 70
     0
  9
$DIMBLK1
  1

  9
$DIMBLK2
  1

  9
$DIMSTYLE
  2
ISO-25
  9
$DIMCLRD
 70
     0
  9
$DIMCLRE
 70
     0
  9
$DIMCLRT
 70
     0
  9
$DIMTFAC
 40
1.0
  9
$DIMGAP
 40
0.625
  9
$DIMJUST
 70
     0
  9
$DIMSD1
 70
     0
  9
$DIMSD2
 70
     0
  9
$DIMTOLJ
 70
     0
  9
$DIMTZIN
 70
     8
  9
$DIMALTZ
 70
     0
  9
$DIMALTTZ
 70
     0
  9
$DIMUPT
 70
     0
  9
$DIMDEC
 70
     4
  9
$DIMTDEC
 70
     4
  9
$DIMALTU
 70
     2
  9
$DIMALTTD
 70
     3
  9
$DIMTXSTY
  7
Standard
  9
$DIMAUNIT
 70
     0
  9
$DIMADEC
 70
     3
  9
$DIMALTRND
 40
0.0
  9
$DIMAZIN
 70
     0
  9
$DIMDSEP
 70
    44
  9
$DIMATFIT
 70
     3
  9
$DIMFRAC
 70
     0
  9
$DIMLDRBLK
  1

  9
$DIMLUNIT
 70
     2
  9
$DIMLWD
 70
    -2
  9
$DIMLWE
 70
    -2
  9
$DIMTMOVE
 70
     0
  9
$LUNITS
 70
     2
  9
$LUPREC
 70
     4
  9
$SKETCHINC
 40
1.0
  9
$FILLETRAD
 40
0.0
  9
$AUNITS
 70
     0
  9
$AUPREC
 70
     0
  9
$MENU
  1
.
  9
$ELEVATION
 40
0.0
  9
$PELEVATION
 40
0.0
  9
$THICKNESS
 40
0.0
  9
$LIMCHECK
 70
     0
  9
$CHAMFERA
 40
0.0
  9
$CHAMFERB
 40
0.0
  9
$CHAMFERC
 40
0.0
  9
$CHAMFERD
 40
0.0
  9
$SKPOLY
 70
     0
  9
$TDCREATE
 40
2455308.932038658
  9
$TDUCREATE
 40
2455308.598705324
  9
$TDUPDATE
 40
2455374.667368704
  9
$TDUUPDATE
 40
2455374.334035370
  9
$TDINDWG
 40
0.0392140509
  9
$TDUSRTIMER
 40
0.0392109606
  9
$USRTIMER
 70
     1
  9
$ANGBASE
 50
0.0
  9
$ANGDIR
 70
     0
  9
$PDMODE
 70
     0
  9
$PDSIZE
 40
0.0
  9
$PLINEWID
 40
0.0
  9
$SPLFRAME
 70
     0
  9
$SPLINETYPE
 70
     6
  9
$SPLINESEGS
 70
     8
  9
$HANDSEED
  5
47A
  9
$SURFTAB1
 70
     6
  9
$SURFTAB2
 70
     6
  9
$SURFTYPE
 70
     6
  9
$SURFU
 70
     6
  9
$SURFV
 70
     6
  9
$UCSBASE
  2

  9
$UCSNAME
  2

  9
$UCSORG
 10
0.0
 20
0.0
 30
0.0
  9
$UCSXDIR
 10
1.0
 20
0.0
 30
0.0
  9
$UCSYDIR
 10
0.0
 20
1.0
 30
0.0
  9
$UCSORTHOREF
  2

  9
$UCSORTHOVIEW
 70
     0
  9
$UCSORGTOP
 10
0.0
 20
0.0
 30
0.0
  9
$UCSORGBOTTOM
 10
0.0
 20
0.0
 30
0.0
  9
$UCSORGLEFT
 10
0.0
 20
0.0
 30
0.0
  9
$UCSORGRIGHT
 10
0.0
 20
0.0
 30
0.0
  9
$UCSORGFRONT
 10
0.0
 20
0.0
 30
0.0
  9
$UCSORGBACK
 10
0.0
 20
0.0
 30
0.0
  9
$PUCSBASE
  2

  9
$PUCSNAME
  2

  9
$PUCSORG
 10
0.0
 20
0.0
 30
0.0
  9
$PUCSXDIR
 10
1.0
 20
0.0
 30
0.0
  9
$PUCSYDIR
 10
0.0
 20
1.0
 30
0.0
  9
$PUCSORTHOREF
  2

  9
$PUCSORTHOVIEW
 70
     0
  9
$PUCSORGTOP
 10
0.0
 20
0.0
 30
0.0
  9
$PUCSORGBOTTOM
 10
0.0
 20
0.0
 30
0.0
  9
$PUCSORGLEFT
 10
0.0
 20
0.0
 30
0.0
  9
$PUCSORGRIGHT
 10
0.0
 20
0.0
 30
0.0
  9
$PUCSORGFRONT
 10
0.0
 20
0.0
 30
0.0
  9
$PUCSORGBACK
 10
0.0
 20
0.0
 30
0.0
  9
$USERI1
 70
     0
  9
$USERI2
 70
     0
  9
$USERI3
 70
     0
  9
$USERI4
 70
     0
  9
$USERI5
 70
     0
  9
$USERR1
 40
0.0
  9
$USERR2
 40
0.0
  9
$USERR3
 40
0.0
  9
$USERR4
 40
0.0
  9
$USERR5
 40
0.0
  9
$WORLDVIEW
 70
     1
  9
$SHADEDGE
 70
     3
  9
$SHADEDIF
 70
    70
  9
$TILEMODE
 70
     1
  9
$MAXACTVP
 70
    64
  9
$PINSBASE
 10
0.0
 20
0.0
 30
0.0
  9
$PLIMCHECK
 70
     0
  9
$PEXTMIN
 10
0.0
 20
0.0
 30
0.0
  9
$PEXTMAX
 10
0.0
 20
0.0
 30
0.0
  9
$PLIMMIN
 10
0.0
 20
0.0
  9
$PLIMMAX
 10
12.0
 20
9.0
  9
$UNITMODE
 70
     0
  9
$VISRETAIN
 70
     1
  9
$PLINEGEN
 70
     0
  9
$PSLTSCALE
 70
     1
  9
$TREEDEPTH
 70
  3020
  9
$CMLSTYLE
  2
Standard
  9
$CMLJUST
 70
     0
  9
$CMLSCALE
 40
20.0
  9
$PROXYGRAPHICS
 70
     1
  9
$MEASUREMENT
 70
     1
  9
$CELWEIGHT
370
    -1
  9
$ENDCAPS
280
     0
  9
$JOINSTYLE
280
     0
  9
$LWDISPLAY
290
     0
  9
$INSUNITS
 70
     4
  9
$HYPERLINKBASE
  1

  9
$STYLESHEET
  1

  9
$XEDIT
290
     1
  9
$CEPSNTYPE
380
     0
  9
$PSTYLEMODE
290
     1
  9
$FINGERPRINTGUID
  2
{10A9D3CC-0960-4BA7-9D32-8C8F35F36D13}
  9
$VERSIONGUID
  2
{C9ECC68B-4299-406D-BB49-6DBF12488B3D}
  9
$EXTNAMES
290
     1
  9
$PSVPSCALE
 40
0.0
  9
$OLESTARTUP
290
     0
  9
$SORTENTS
280
   127
  9
$INDEXCTL
280
     0
  9
$HIDETEXT
280
     1
  9
$XCLIPFRAME
290
     0
  9
$HALOGAP
280
     0
  9
$OBSCOLOR
 70
   257
  9
$OBSLTYPE
280
     0
  9
$INTERSECTIONDISPLAY
280
     0
  9
$INTERSECTIONCOLOR
 70
   257
  9
$DIMASSOC
280
     2
  9
$PROJECTNAME
  1

  0
ENDSEC
  0
SECTION
  2
CLASSES
  0
CLASS
  1
ACDBDICTIONARYWDFLT
  2
AcDbDictionaryWithDefault
  3
ObjectDBX Classes
 90
        0
 91
        1
280
     0
281
     0
  0
CLASS
  1
DICTIONARYVAR
  2
AcDbDictionaryVar
  3
ObjectDBX Classes
 90
        0
 91
        9
280
     0
281
     0
  0
CLASS
  1
TABLESTYLE
  2
AcDbTableStyle
  3
ObjectDBX Classes
 90
     4095
 91
        1
280
     0
281
     0
  0
CLASS
  1
MATERIAL
  2
AcDbMaterial
  3
ObjectDBX Classes
 90
     1024
 91
        3
280
     0
281
     0
  0
CLASS
  1
VISUALSTYLE
  2
AcDbVisualStyle
  3
ObjectDBX Classes
 90
     4095
 91
       16
280
     0
281
     0
  0
CLASS
  1
SORTENTSTABLE
  2
AcDbSortentsTable
  3
ObjectDBX Classes
 90
        0
 91
        2
280
     0
281
     0
  0
CLASS
  1
DIMASSOC
  2
AcDbDimAssoc
  3
"AcDbDimAssoc|Product Desc:     AcDim ARX App For Dimension|Company:          Autodesk, Inc.|WEB Address:      www.autodesk.com"
 90
        0
 91
        3
280
     0
281
     0
  0
ENDSEC
  0
SECTION
  2
TABLES
  0
TABLE
  2
VPORT
  5
8
330
0
100
AcDbSymbolTable
 70
     1
  0
VPORT
  5
EA
330
8
100
AcDbSymbolTableRecord
100
AcDbViewportTableRecord
  2
*Active
 70
     0
 10
0.0
 20
0.0
 11
1.0
 21
1.0
 12
256.2395964938581
 22
151.2071558278583
 13
0.0
 23
0.0
 14
10.0
 24
10.0
 15
10.0
 25
10.0
 16
0.0
 26
0.0
 36
1.0
 17
0.0
 27
0.0
 37
0.0
 40
812.5718028419999
 41
1.844972067039106
 42
50.0
 43
0.0
 44
0.0
 50
0.0
 51
0.0
 71
     0
 72
  1000
 73
     1
 74
     3
 75
     0
 76
     0
 77
     0
 78
     0
281
     0
 65
     1
110
0.0
120
0.0
130
0.0
111
1.0
121
0.0
131
0.0
112
0.0
122
1.0
132
0.0
 79
     0
146
0.0
  0
ENDTAB
  0
TABLE
  2
LTYPE
  5
5
330
0
100
AcDbSymbolTable
 70
     1
  0
LTYPE
  5
14
330
5
100
AcDbSymbolTableRecord
100
AcDbLinetypeTableRecord
  2
ByBlock
 70
     0
  3

 72
    65
 73
     0
 40
0.0
  0
LTYPE
  5
15
330
5
100
AcDbSymbolTableRecord
100
AcDbLinetypeTableRecord
  2
ByLayer
 70
     0
  3

 72
    65
 73
     0
 40
0.0
  0
LTYPE
  5
16
330
5
100
AcDbSymbolTableRecord
100
AcDbLinetypeTableRecord
  2
Continuous
 70
     0
  3
Solid line
 72
    65
 73
     0
 40
0.0
  0
ENDTAB
  0
TABLE
  2
LAYER
  5
2
102
{ACAD_XDICTIONARY
360
1B7
102
}
330
0
100
AcDbSymbolTable
 70
     5
  0
LAYER
  5
10
330
2
100
AcDbSymbolTableRecord
100
AcDbLayerTableRecord
  2
0
 70
     0
 62
     7
  6
Continuous
370
    -3
390
F
  0
LAYER
  5
1B5
330
2
100
AcDbSymbolTableRecord
100
AcDbLayerTableRecord
  2
Layer1
 70
     0
 62
     1
  6
Continuous
370
    -3
390
F
1001
AcAecLayerStandard
1000

1000

  0
LAYER
  5
1BB
330
2
100
AcDbSymbolTableRecord
100
AcDbLayerTableRecord
  2
Defpoints
 70
     0
 62
     7
  6
Continuous
290
     0
370
    -3
390
F
  0
LAYER
  5
3C1
330
2
100
AcDbSymbolTableRecord
100
AcDbLayerTableRecord
  2
1
 70
     0
 62
     7
  6
Continuous
370
    50
390
F
  0
LAYER
  5
3C2
330
2
100
AcDbSymbolTableRecord
100
AcDbLayerTableRecord
  2
2
 70
     0
 62
     5
  6
Continuous
370
    25
390
F
  0
ENDTAB
  0
TABLE
  2
STYLE
  5
3
330
0
100
AcDbSymbolTable
 70
     1
  0
STYLE
  5
11
330
3
100
AcDbSymbolTableRecord
100
AcDbTextStyleTableRecord
  2
Standard
 70
     0
 40
0.0
 41
1.0
 50
0.0
 71
     0
 42
2.5
  3
txt
  4

  0
ENDTAB
  0
TABLE
  2
VIEW
  5
6
330
0
100
AcDbSymbolTable
 70
     0
  0
ENDTAB
  0
TABLE
  2
UCS
  5
7
330
0
100
AcDbSymbolTable
 70
     0
  0
ENDTAB
  0
TABLE
  2
APPID
  5
9
330
0
100
AcDbSymbolTable
 70
     4
  0
APPID
  5
12
330
9
100
AcDbSymbolTableRecord
100
AcDbRegAppTableRecord
  2
ACAD
 70
     0
  0
APPID
  5
9E
330
9
100
AcDbSymbolTableRecord
100
AcDbRegAppTableRecord
  2
ACAD_PSEXT
 70
     0
  0
APPID
  5
110
330
9
100
AcDbSymbolTableRecord
100
AcDbRegAppTableRecord
  2
ACAD_EXEMPT_FROM_CAD_STANDARDS
 70
     0
  0
APPID
  5
1B6
330
9
100
AcDbSymbolTableRecord
100
AcDbRegAppTableRecord
  2
AcAecLayerStandard
 70
     0
  0
ENDTAB
  0
TABLE
  2
DIMSTYLE
  5
A
330
0
100
AcDbSymbolTable
 70
     2
100
AcDbDimStyleTable
 71
     1
340
27
  0
DIMSTYLE
105
27
330
A
100
AcDbSymbolTableRecord
100
AcDbDimStyleTableRecord
  2
ISO-25
 70
     0
 41
2.5
 42
0.625
 43
3.75
 44
1.25
 73
     0
 74
     0
 77
     1
 78
     8
140
2.5
141
2.5
143
0.03937007874016
147
0.625
171
     3
172
     1
179
     3
274
     3
278
    44
283
     0
284
     8
340
11
  0
DIMSTYLE
105
3C3
330
A
100
AcDbSymbolTableRecord
100
AcDbDimStyleTableRecord
  2
STANDARD
 70
     0
340
11
  0
ENDTAB
  0
TABLE
  2
BLOCK_RECORD
  5
1
330
0
100
AcDbSymbolTable
 70
    12
  0
BLOCK_RECORD
  5
1F
102
{ACAD_XDICTIONARY
360
12D
102
}
330
1
100
AcDbSymbolTableRecord
100
AcDbBlockTableRecord
  2
*Model_Space
340
22
  0
BLOCK_RECORD
  5
D2
330
1
100
AcDbSymbolTableRecord
100
AcDbBlockTableRecord
  2
*Paper_Space
340
D3
  0
BLOCK_RECORD
  5
D6
330
1
100
AcDbSymbolTableRecord
100
AcDbBlockTableRecord
  2
*Paper_Space0
340
D7
  0
BLOCK_RECORD
  5
1BC
330
1
100
AcDbSymbolTableRecord
100
AcDbBlockTableRecord
  2
*D1
340
0
  0
BLOCK_RECORD
  5
1D4
330
1
100
AcDbSymbolTableRecord
100
AcDbBlockTableRecord
  2
*D2
340
0
  0
BLOCK_RECORD
  5
212
330
1
100
AcDbSymbolTableRecord
100
AcDbBlockTableRecord
  2
*D3
340
0
  0
BLOCK_RECORD
  5
242
330
1
100
AcDbSymbolTableRecord
100
AcDbBlockTableRecord
  2
*D4
340
0
  0
BLOCK_RECORD
  5
265
330
1
100
AcDbSymbolTableRecord
100
AcDbBlockTableRecord
  2
*D5
340
0
  0
BLOCK_RECORD
  5
27D
330
1
100
AcDbSymbolTableRecord
100
AcDbBlockTableRecord
  2
*D6
340
0
  0
BLOCK_RECORD
  5
33B
330
1
100
AcDbSymbolTableRecord
100
AcDbBlockTableRecord
  2
*D7
340
0
  0
BLOCK_RECORD
  5
357
330
1
100
AcDbSymbolTableRecord
100
AcDbBlockTableRecord
  2
*D8
340
0
  0
BLOCK_RECORD
  5
373
330
1
100
AcDbSymbolTableRecord
100
AcDbBlockTableRecord
  2
*D9
340
0
  0
BLOCK_RECORD
  5
38F
330
1
100
AcDbSymbolTableRecord
100
AcDbBlockTableRecord
  2
*D10
340
0
  0
ENDTAB
  0
ENDSEC
  0
SECTION
  2
BLOCKS
  0
BLOCK
  5
20
330
1F
100
AcDbEntity
  8
0
100
AcDbBlockBegin
  2
*Model_Space
 70
     0
 10
0.0
 20
0.0
 30
0.0
  3
*Model_Space
  1

  0
ENDBLK
  5
21
330
1F
100
AcDbEntity
  8
0
100
AcDbBlockEnd
  0
BLOCK
  5
D4
330
D2
100
AcDbEntity
 67
     1
  8
0
100
AcDbBlockBegin
  2
*Paper_Space
 70
     0
 10
0.0
 20
0.0
 30
0.0
  3
*Paper_Space
  1

  0
ENDBLK
  5
D5
330
D2
100
AcDbEntity
 67
     1
  8
0
100
AcDbBlockEnd
  0
BLOCK
  5
D8
330
D6
100
AcDbEntity
 67
     1
  8
0
100
AcDbBlockBegin
  2
*Paper_Space0
 70
     0
 10
0.0
 20
0.0
 30
0.0
  3
*Paper_Space0
  1

  0
ENDBLK
  5
D9
330
D6
100
AcDbEntity
 67
     1
  8
0
100
AcDbBlockEnd
  0
BLOCK
  5
1C6
330
1BC
100
AcDbEntity
  8
0
100
AcDbBlockBegin
  2
*D1
 70
     1
 10
0.0
 20
0.0
 30
0.0
  3
*D1
  1

  0
ARC
  5
1FD
330
1BC
100
AcDbEntity
  8
0
 62
     0
370
    -2
100
AcDbCircle
 10
350.0
 20
349.9999999999998
 30
0.0
 40
25.33944410696117
100
AcDbArc
 50
253.1551203998807
 51
309.7385307210708
  0
SOLID
  5
1FE
330
1BC
100
AcDbEntity
  8
0
 62
     0
100
AcDbTrace
 10
342.516828366694
 20
325.3554534222176
 30
0.0
 11
342.7973636640516
 21
326.1401472423671
 31
0.0
 12
340.3030145549241
 22
326.589406224365
 32
0.0
 13
340.3030145549241
 23
326.589406224365
 33
0.0
  0
SOLID
  5
1FF
330
1BC
100
AcDbEntity
  8
0
 62
     0
100
AcDbTrace
 10
365.9172785911883
 20
330.8216062702233
 30
0.0
 11
366.4809787665669
 21
330.2078583115932
 31
0.0
 12
368.0403725547678
 22
332.2058328170439
 32
0.0
 13
368.0403725547678
 23
332.2058328170439
 33
0.0
  0
MTEXT
  5
200
102
{ACAD_XDICTIONARY
360
413
102
}
330
1BC
100
AcDbEntity
  8
0
 62
     0
100
AcDbMText
 10
354.6153707878811
 20
327.206469321195
 30
0.0
 40
2.5
 41
0.0
 71
     5
 72
     1
  1
67,894\U+00B0
 11
0.9801093097927852
 21
0.1984584109014035
 31
0.0
 73
     1
 44
1.0
  0
POINT
  5
201
330
1BC
100
AcDbEntity
  8
Defpoints
 62
     0
100
AcDbPoint
 10
350.0580315684808
 20
324.6606223441287
 30
0.0
  0
POINT
  5
202
330
1BC
100
AcDbEntity
  8
Defpoints
 62
     0
100
AcDbPoint
 10
350.0
 20
349.9999999999998
 30
0.0
  0
POINT
  5
203
330
1BC
100
AcDbEntity
  8
Defpoints
 62
     0
100
AcDbPoint
 10
350.0
 20
349.9999999999998
 30
0.0
  0
POINT
  5
204
330
1BC
100
AcDbEntity
  8
Defpoints
 62
     0
100
AcDbPoint
 10
432.6113154120958
 20
268.5161197096099
 30
0.0
  0
POINT
  5
205
330
1BC
100
AcDbEntity
  8
Defpoints
 62
     0
100
AcDbPoint
 10
226.9290081513796
 20
52.88034234437692
 30
0.0
  0
ENDBLK
  5
1C7
330
1BC
100
AcDbEntity
  8
0
100
AcDbBlockEnd
  0
BLOCK
  5
1DE
330
1D4
100
AcDbEntity
  8
0
100
AcDbBlockBegin
  2
*D2
 70
     1
 10
0.0
 20
0.0
 30
0.0
  3
*D2
  1

  0
ARC
  5
206
330
1D4
100
AcDbEntity
  8
0
 62
     0
370
    -2
100
AcDbCircle
 10
350.0
 20
350.0
 30
0.0
 40
85.25621686055153
100
AcDbArc
 50
244.1396683674865
 51
245.8198341837424
  0
ARC
  5
207
330
1D4
100
AcDbEntity
  8
0
 62
     0
370
    -2
100
AcDbCircle
 10
350.0
 20
350.0
 30
0.0
 40
85.25621686055153
100
AcDbArc
 50
260.4301658162555
 51
262.1103316325114
  0
ARC
  5
208
330
1D4
100
AcDbEntity
  8
0
 62
     0
370
    -2
100
AcDbCircle
 10
350.0
 20
350.0
 30
0.0
 40
85.25621686055153
100
AcDbArc
 50
247.4999999999984
 51
258.7499999999996
  0
SOLID
  5
209
330
1D4
100
AcDbEntity
  8
0
 62
     0
100
AcDbTrace
 10
315.2435130025312
 20
272.6065666519346
 30
0.0
 11
314.9133563931453
 21
271.8414254507676
 31
0.0
 12
317.3738583013393
 22
271.2335262231937
 32
0.0
 13
317.3738583013393
 23
271.2335262231937
 33
0.0
  0
SOLID
  5
20A
330
1D4
100
AcDbEntity
  8
0
 62
     0
100
AcDbTrace
 10
335.7509004819889
 20
265.5204255568947
 30
0.0
 11
335.9014749694091
 21
266.3400423991951
 31
0.0
 12
333.3673371987976
 22
266.3819574403054
 32
0.0
 13
333.3673371987976
 23
266.3819574403054
 33
0.0
  0
MTEXT
  5
20B
102
{ACAD_XDICTIONARY
360
415
102
}
330
1D4
100
AcDbEntity
  8
0
 62
     0
100
AcDbMText
 10
325.8561863489771
 20
270.4085129136483
 30
0.0
 40
2.5
 41
0.0
 71
     5
 72
     1
  1
11,250\U+00B0
 11
0.9569403357322038
 21
-0.2902846772544793
 31
0.0
 73
     1
 44
1.0
  0
POINT
  5
20C
330
1D4
100
AcDbEntity
  8
Defpoints
 62
     0
100
AcDbPoint
 10
322.5952872385722
 20
269.2683195279757
 30
0.0
  0
POINT
  5
20D
330
1D4
100
AcDbEntity
  8
Defpoints
 62
     0
100
AcDbPoint
 10
350.0
 20
350.0
 30
0.0
  0
POINT
  5
20E
330
1D4
100
AcDbEntity
  8
Defpoints
 62
     0
100
AcDbPoint
 10
350.0
 20
350.0
 30
0.0
  0
POINT
  5
20F
330
1D4
100
AcDbEntity
  8
Defpoints
 62
     0
100
AcDbPoint
 10
282.5767847112242
 20
11.04060709264439
 30
0.0
  0
POINT
  5
210
330
1D4
100
AcDbEntity
  8
Defpoints
 62
     0
100
AcDbPoint
 10
226.9290081513796
 20
52.88034234437692
 30
0.0
  0
ENDBLK
  5
1DF
330
1D4
100
AcDbEntity
  8
0
100
AcDbBlockEnd
  0
BLOCK
  5
21C
330
212
100
AcDbEntity
  8
0
100
AcDbBlockBegin
  2
*D3
 70
     1
 10
0.0
 20
0.0
 30
0.0
  3
*D3
  1

  0
LINE
  5
21F
330
212
100
AcDbEntity
  8
0
 62
     0
370
    -2
100
AcDbLine
 10
349.4225752921805
 20
350.2391771452283
 30
0.0
 11
313.2766953177381
 21
365.2112908545524
 31
0.0
  0
LINE
  5
220
330
212
100
AcDbEntity
  8
0
 62
     0
370
    -2
100
AcDbLine
 10
226.3515834435669
 20
53.1195194895985
 30
0.0
 11
190.2057034691245
 21
68.0916331989227
 31
0.0
  0
LINE
  5
221
330
212
100
AcDbEntity
  8
0
 62
     0
370
    -2
100
AcDbLine
 10
313.4748361524645
 20
362.4232377328178
 30
0.0
 11
192.3172614656763
 21
69.92297773974455
 31
0.0
  0
SOLID
  5
222
330
212
100
AcDbEntity
  8
0
 62
     0
100
AcDbTrace
 10
313.0898863472515
 20
362.5826891629699
 30
0.0
 11
313.8597859576776
 21
362.2637863026657
 31
0.0
 12
314.4315447333771
 22
364.7329365640961
 32
0.0
 13
314.4315447333771
 23
364.7329365640961
 33
0.0
  0
SOLID
  5
223
330
212
100
AcDbEntity
  8
0
 62
     0
100
AcDbTrace
 10
191.9323116604634
 20
70.08242916989667
 30
0.0
 11
192.7022112708894
 21
69.76352630959244
 31
0.0
 12
191.3605528847636
 22
67.61327890846634
 32
0.0
 13
191.3605528847636
 23
67.61327890846634
 33
0.0
  0
MTEXT
  5
224
330
212
100
AcDbEntity
  8
0
 62
     0
100
AcDbMText
 10
250.9712997830052
 20
216.9703648870418
 30
0.0
 40
2.5
 41
0.0
 71
     5
 72
     1
  1
321,6
 11
0.3826834323650921
 21
0.9238795325112858
 31
0.0
 73
     1
 44
1.0
  0
POINT
  5
225
330
212
100
AcDbEntity
  8
Defpoints
 62
     0
100
AcDbPoint
 10
350.0
 20
350.0
 30
0.0
  0
POINT
  5
226
330
212
100
AcDbEntity
  8
Defpoints
 62
     0
100
AcDbPoint
 10
226.9290081513865
 20
52.88034234437033
 30
0.0
  0
POINT
  5
227
330
212
100
AcDbEntity
  8
Defpoints
 62
     0
100
AcDbPoint
 10
191.3605528847636
 20
67.61327890846634
 30
0.0
  0
ENDBLK
  5
21D
330
212
100
AcDbEntity
  8
0
100
AcDbBlockEnd
  0
BLOCK
  5
24B
330
242
100
AcDbEntity
  8
0
100
AcDbBlockBegin
  2
*D4
 70
     1
 10
0.0
 20
0.0
 30
0.0
  3
*D4
  1

  0
LINE
  5
24E
330
242
100
AcDbEntity
  8
0
 62
     0
370
    -2
100
AcDbLine
 10
607.7993473075951
 20
92.20065269240398
 30
0.0
 11
599.2551403682575
 21
100.7448596317415
 31
0.0
  0
LINE
  5
24F
330
242
100
AcDbEntity
  8
0
 62
     0
370
    -2
100
AcDbLine
 10
100.7448596317425
 20
599.2551403682583
 30
0.0
 11
98.97709267877615
 21
601.0229073212245
 31
0.0
  0
MTEXT
  5
250
102
{ACAD_XDICTIONARY
360
417
102
}
330
242
100
AcDbEntity
  8
0
 62
     0
100
AcDbMText
 10
605.7369525291342
 20
96.91469790031424
 30
0.0
 40
2.5
 41
0.0
 71
     5
 72
     1
  1
\U+2205700
 11
0.7071067811865463
 21
-0.7071067811865488
 31
0.0
 73
     1
 44
1.0
  0
LINE
  5
251
330
242
100
AcDbEntity
  8
0
 62
     0
370
    -2
100
AcDbLine
 10
102.5126265847089
 20
597.4873734152919
 30
0.0
 11
597.4873734152912
 21
102.5126265847078
 31
0.0
  0
SOLID
  5
252
330
242
100
AcDbEntity
  8
0
 62
     0
100
AcDbTrace
 10
101.0394874572369
 20
599.5497681937527
 30
0.0
 11
100.4502318062481
 21
598.9605125427639
 31
0.0
 12
102.5126265847089
 22
597.4873734152919
 32
0.0
 13
102.5126265847089
 23
597.4873734152919
 33
0.0
  0
SOLID
  5
253
330
242
100
AcDbEntity
  8
0
 62
     0
100
AcDbTrace
 10
599.549768193752
 20
101.0394874572358
 30
0.0
 11
598.9605125427631
 21
100.450231806247
 31
0.0
 12
597.4873734152912
 22
102.5126265847078
 32
0.0
 13
597.4873734152912
 23
102.5126265847078
 33
0.0
  0
POINT
  5
254
330
242
100
AcDbEntity
  8
Defpoints
 62
     0
100
AcDbPoint
 10
597.4873734152912
 20
102.5126265847078
 30
0.0
  0
POINT
  5
255
330
242
100
AcDbEntity
  8
Defpoints
 62
     0
100
AcDbPoint
 10
102.5126265847089
 20
597.4873734152919
 30
0.0
  0
ENDBLK
  5
24C
330
242
100
AcDbEntity
  8
0
100
AcDbBlockEnd
  0
BLOCK
  5
26F
330
265
100
AcDbEntity
  8
0
100
AcDbBlockBegin
  2
*D5
 70
     1
 10
0.0
 20
0.0
 30
0.0
  3
*D5
  1

  0
LINE
  5
272
330
265
100
AcDbEntity
  8
0
 62
     0
370
    -2
100
AcDbLine
 10
340.8
 20
174.375
 30
0.0
 11
340.8
 21
154.0818201393285
 31
0.0
  0
LINE
  5
273
330
265
100
AcDbEntity
  8
0
 62
     0
370
    -2
100
AcDbLine
 10
350.0
 20
174.375
 30
0.0
 11
350.0
 21
154.0818201393285
 31
0.0
  0
LINE
  5
274
330
265
100
AcDbEntity
  8
0
 62
     0
370
    -2
100
AcDbLine
 10
343.3
 20
155.3318201393285
 30
0.0
 11
347.5
 21
155.3318201393285
 31
0.0
  0
SOLID
  5
275
330
265
100
AcDbEntity
  8
0
 62
     0
100
AcDbTrace
 10
343.3
 20
155.7484868059952
 30
0.0
 11
343.3
 21
154.9151534726619
 31
0.0
 12
340.8
 22
155.3318201393285
 32
0.0
 13
340.8
 23
155.3318201393285
 33
0.0
  0
SOLID
  5
276
330
265
100
AcDbEntity
  8
0
 62
     0
100
AcDbTrace
 10
347.5
 20
155.7484868059952
 30
0.0
 11
347.5
 21
154.9151534726619
 31
0.0
 12
350.0
 22
155.3318201393285
 32
0.0
 13
350.0
 23
155.3318201393285
 33
0.0
  0
MTEXT
  5
277
330
265
100
AcDbEntity
  8
0
 62
     0
100
AcDbMText
 10
345.4
 20
157.4151534726619
 30
0.0
 40
2.5
 41
0.0
 71
     5
 72
     1
  1
9,2
 73
     1
 44
1.0
  0
POINT
  5
278
330
265
100
AcDbEntity
  8
Defpoints
 62
     0
100
AcDbPoint
 10
340.8
 20
175.0
 30
0.0
  0
POINT
  5
279
330
265
100
AcDbEntity
  8
Defpoints
 62
     0
100
AcDbPoint
 10
350.0
 20
175.0
 30
0.0
  0
POINT
  5
27A
330
265
100
AcDbEntity
  8
Defpoints
 62
     0
100
AcDbPoint
 10
350.0
 20
155.3318201393285
 30
0.0
  0
ENDBLK
  5
270
330
265
100
AcDbEntity
  8
0
100
AcDbBlockEnd
  0
BLOCK
  5
289
330
27D
100
AcDbEntity
  8
0
100
AcDbBlockBegin
  2
*D6
 70
     1
 10
0.0
 20
0.0
 30
0.0
  3
*D6
  1

  0
LINE
  5
28C
330
27D
100
AcDbEntity
  8
0
 62
     0
370
    -2
100
AcDbLine
 10
344.4796964536782
 20
209.3366076443869
 30
0.0
 11
344.4796964536782
 21
212.8042031735786
 31
0.0
  0
LINE
  5
28D
330
27D
100
AcDbEntity
  8
0
 62
     0
370
    -2
100
AcDbLine
 10
346.6374240705653
 20
209.7658063528224
 30
0.0
 11
346.6374240705653
 21
212.8042031735786
 31
0.0
  0
LINE
  5
28E
330
27D
100
AcDbEntity
  8
0
 62
     0
370
    -2
100
AcDbLine
 10
341.9796964536782
 20
211.5542031735786
 30
0.0
 11
339.4796964536782
 21
211.5542031735786
 31
0.0
  0
LINE
  5
28F
330
27D
100
AcDbEntity
  8
0
 62
     0
370
    -2
100
AcDbLine
 10
349.1374240705653
 20
211.5542031735786
 30
0.0
 11
364.9707574038986
 21
211.5542031735786
 31
0.0
  0
LINE
  5
290
330
27D
100
AcDbEntity
  8
0
 62
     0
370
    -2
100
AcDbLine
 10
344.4796964536782
 20
211.5542031735786
 30
0.0
 11
346.6374240705653
 21
211.5542031735786
 31
0.0
  0
SOLID
  5
291
330
27D
100
AcDbEntity
  8
0
 62
     0
100
AcDbTrace
 10
341.9796964536782
 20
211.9708698402452
 30
0.0
 11
341.9796964536782
 21
211.1375365069119
 31
0.0
 12
344.4796964536782
 22
211.5542031735786
 32
0.0
 13
344.4796964536782
 23
211.5542031735786
 33
0.0
  0
SOLID
  5
292
330
27D
100
AcDbEntity
  8
0
 62
     0
100
AcDbTrace
 10
349.1374240705653
 20
211.9708698402452
 30
0.0
 11
349.1374240705653
 21
211.1375365069119
 31
0.0
 12
346.6374240705653
 22
211.5542031735786
 32
0.0
 13
346.6374240705653
 23
211.5542031735786
 33
0.0
  0
MTEXT
  5
293
330
27D
100
AcDbEntity
  8
0
 62
     0
100
AcDbMText
 10
358.304090737232
 20
213.6375365069119
 30
0.0
 40
2.5
 41
0.0
 71
     5
 72
     1
  1
2,1577
 73
     1
 44
1.0
  0
POINT
  5
294
330
27D
100
AcDbEntity
  8
Defpoints
 62
     0
100
AcDbPoint
 10
344.4796964536782
 20
208.7116076443869
 30
0.0
  0
POINT
  5
295
330
27D
100
AcDbEntity
  8
Defpoints
 62
     0
100
AcDbPoint
 10
346.6374240705653
 20
209.1408063528224
 30
0.0
  0
POINT
  5
296
330
27D
100
AcDbEntity
  8
Defpoints
 62
     0
100
AcDbPoint
 10
346.6374240705653
 20
211.5542031735786
 30
0.0
  0
ENDBLK
  5
28A
330
27D
100
AcDbEntity
  8
0
100
AcDbBlockEnd
  0
BLOCK
  5
347
330
33B
100
AcDbEntity
  8
0
100
AcDbBlockBegin
  2
*D7
 70
     1
 10
0.0
 20
0.0
 30
0.0
  3
*D7
  1

  0
ARC
  5
34A
330
33B
100
AcDbEntity
  8
0
 62
     0
370
    -2
100
AcDbCircle
 10
175.0
 20
175.0
 30
0.0
 40
29.6426989657594
100
AcDbArc
 50
242.6663667759665
 51
247.4999999999999
  0
LINE
  5
34B
330
33B
100
AcDbEntity
  8
0
 62
     0
370
    -2
100
AcDbLine
 10
161.3889292177097
 20
148.6669721806603
 30
0.0
 11
149.1741463150408
 21
154.9805748479705
 31
0.0
  0
ARC
  5
34C
330
33B
100
AcDbEntity
  8
0
 62
     0
370
    -2
100
AcDbCircle
 10
175.0
 20
175.0
 30
0.0
 40
29.6426989657594
100
AcDbArc
 50
252.3336332240332
 51
253.9163667759665
  0
SOLID
  5
34D
330
33B
100
AcDbEntity
  8
0
 62
     0
100
AcDbTrace
 10
165.8611412213486
 20
146.3639257280833
 30
0.0
 11
166.1472945969279
 21
147.1465882927234
 31
0.0
 12
163.656230215218
 22
147.6137171371414
 32
0.0
 13
163.656230215218
 23
147.6137171371414
 33
0.0
  0
SOLID
  5
34E
330
33B
100
AcDbEntity
  8
0
 62
     0
100
AcDbTrace
 10
166.8862290967183
 20
146.922434962809
 30
0.0
 11
166.6893329095575
 21
146.112696526074
 31
0.0
 12
169.2169963133427
 22
145.9268771829591
 32
0.0
 13
169.2169963133427
 23
145.9268771829591
 33
0.0
  0
MTEXT
  5
34F
102
{ACAD_XDICTIONARY
360
419
102
}
330
33B
100
AcDbEntity
  8
0
 62
     0
100
AcDbMText
 10
156.2381442311192
 20
153.6744981965379
 30
0.0
 40
2.5
 41
0.0
 71
     5
 72
     1
  1
11,250\U+00B0
 11
0.8883478474668331
 21
-0.4591711030771037
 31
0.0
 73
     1
 44
1.0
  0
POINT
  5
350
330
33B
100
AcDbEntity
  8
Defpoints
 62
     0
100
AcDbPoint
 10
167.3279049594206
 20
146.3673515080607
 30
0.0
  0
POINT
  5
351
330
33B
100
AcDbEntity
  8
Defpoints
 62
     0
100
AcDbPoint
 10
175.0
 20
175.0
 30
0.0
  0
POINT
  5
352
330
33B
100
AcDbEntity
  8
Defpoints
 62
     0
100
AcDbPoint
 10
175.0
 20
175.0
 30
0.0
  0
POINT
  5
353
330
33B
100
AcDbEntity
  8
Defpoints
 62
     0
100
AcDbPoint
 10
141.2883923556126
 20
5.520303546321883
 30
0.0
  0
POINT
  5
354
330
33B
100
AcDbEntity
  8
Defpoints
 62
     0
100
AcDbPoint
 10
111.5510869138678
 20
21.82077350962877
 30
0.0
  0
ENDBLK
  5
348
330
33B
100
AcDbEntity
  8
0
100
AcDbBlockEnd
  0
BLOCK
  5
363
330
357
100
AcDbEntity
  8
0
100
AcDbBlockBegin
  2
*D8
 70
     1
 10
0.0
 20
0.0
 30
0.0
  3
*D8
  1

  0
ARC
  5
366
330
357
100
AcDbEntity
  8
0
 62
     0
370
    -2
100
AcDbCircle
 10
175.0
 20
175.0
 30
0.0
 40
16.92908711513038
100
AcDbArc
 50
230.5622969551019
 51
239.0311484775509
  0
ARC
  5
367
330
357
100
AcDbEntity
  8
0
 62
     0
370
    -2
100
AcDbCircle
 10
175.0
 20
175.0
 30
0.0
 40
16.92908711513038
100
AcDbArc
 50
314.07902643484
 51
322.5478779572891
  0
ARC
  5
368
330
357
100
AcDbEntity
  8
0
 62
     0
370
    -2
100
AcDbCircle
 10
175.0
 20
175.0
 30
0.0
 40
16.92908711513038
100
AcDbArc
 50
247.4999999999999
 51
305.6101749123911
  0
SOLID
  5
369
330
357
100
AcDbEntity
  8
0
 62
     0
100
AcDbTrace
 10
166.476205565781
 20
160.8563276672589
 30
0.0
 11
166.1013258213498
 21
160.1120766197893
 31
0.0
 12
168.5215188359741
 22
159.3595629102305
 32
0.0
 13
168.5215188359741
 23
159.3595629102305
 33
0.0
  0
SOLID
  5
36A
330
357
100
AcDbEntity
  8
0
 62
     0
100
AcDbTrace
 10
187.0436788060929
 20
162.5185551506057
 30
0.0
 11
186.509755839962
 21
163.1583759932503
 31
0.0
 12
184.8572547950938
 22
161.2366966735352
 32
0.0
 13
184.8572547950938
 23
161.2366966735352
 33
0.0
  0
MTEXT
  5
36B
102
{ACAD_XDICTIONARY
360
41B
102
}
330
357
100
AcDbEntity
  8
0
 62
     0
100
AcDbMText
 10
176.6947680685689
 20
160.251299496447
 30
0.0
 40
2.5
 41
0.0
 71
     5
 72
     1
  1
58,110\U+00B0
 11
0.993462556386784
 21
0.1141584383978519
 31
0.0
 73
     1
 44
1.0
  0
POINT
  5
36C
330
357
100
AcDbEntity
  8
Defpoints
 62
     0
100
AcDbPoint
 10
174.0756613128629
 20
158.0961664542289
 30
0.0
  0
POINT
  5
36D
330
357
100
AcDbEntity
  8
Defpoints
 62
     0
100
AcDbPoint
 10
175.0
 20
175.0
 30
0.0
  0
POINT
  5
36E
330
357
100
AcDbEntity
  8
Defpoints
 62
     0
100
AcDbPoint
 10
175.0
 20
175.0
 30
0.0
  0
POINT
  5
36F
330
357
100
AcDbEntity
  8
Defpoints
 62
     0
100
AcDbPoint
 10
197.5746144058922
 20
143.4799396987363
 30
0.0
  0
POINT
  5
370
330
357
100
AcDbEntity
  8
Defpoints
 62
     0
100
AcDbPoint
 10
111.5510869138678
 20
21.82077350962875
 30
0.0
  0
ENDBLK
  5
364
330
357
100
AcDbEntity
  8
0
100
AcDbBlockEnd
  0
BLOCK
  5
37F
330
373
100
AcDbEntity
  8
0
100
AcDbBlockBegin
  2
*D9
 70
     1
 10
0.0
 20
0.0
 30
0.0
  3
*D9
  1

  0
ARC
  5
382
330
373
100
AcDbEntity
  8
0
 62
     0
370
    -2
100
AcDbCircle
 10
175.0
 20
175.0
 30
0.0
 40
21.82721777943029
100
AcDbArc
 50
245.6179681377755
 51
252.1839840688877
  0
ARC
  5
383
330
373
100
AcDbEntity
  8
0
 62
     0
370
    -2
100
AcDbCircle
 10
175.0
 20
175.0
 30
0.0
 40
21.82721777943029
100
AcDbArc
 50
312.1761908435032
 51
318.7422067746155
  0
ARC
  5
384
330
373
100
AcDbEntity
  8
0
 62
     0
370
    -2
100
AcDbCircle
 10
175.0
 20
175.0
 30
0.0
 40
21.82721777943029
100
AcDbArc
 50
258.7499999999999
 51
305.610174912391
  0
SOLID
  5
385
330
373
100
AcDbEntity
  8
0
 62
     0
100
AcDbTrace
 10
168.4262703429244
 20
154.6228650468136
 30
0.0
 11
168.2171555845225
 21
153.8161956831565
 31
0.0
 12
170.7417210546947
 22
153.5921860897791
 32
0.0
 13
170.7417210546947
 23
153.5921860897791
 33
0.0
  0
SOLID
  5
386
330
373
100
AcDbEntity
  8
0
 62
     0
100
AcDbTrace
 10
189.9166837240941
 20
158.4999063525614
 30
0.0
 11
189.3934583433597
 21
159.1485045682543
 31
0.0
 12
187.7092763866486
 22
157.2545293182048
 32
0.0
 13
187.7092763866486
 23
157.2545293182048
 33
0.0
  0
MTEXT
  5
387
102
{ACAD_XDICTIONARY
360
41D
102
}
330
373
100
AcDbEntity
  8
0
 62
     0
100
AcDbMText
 10
179.1656652983276
 20
155.7005646289033
 30
0.0
 40
2.5
 41
0.0
 71
     5
 72
     1
  1
46,860\U+00B0
 11
0.977489278960598
 21
0.2109850931158181
 31
0.0
 73
     1
 44
1.0
  0
POINT
  5
388
330
373
100
AcDbEntity
  8
Defpoints
 62
     0
100
AcDbPoint
 10
176.6631898312272
 20
153.2362403161591
 30
0.0
  0
POINT
  5
389
330
373
100
AcDbEntity
  8
Defpoints
 62
     0
100
AcDbPoint
 10
175.0
 20
175.0
 30
0.0
  0
POINT
  5
38A
330
373
100
AcDbEntity
  8
Defpoints
 62
     0
100
AcDbPoint
 10
175.0
 20
175.0
 30
0.0
  0
POINT
  5
38B
330
373
100
AcDbEntity
  8
Defpoints
 62
     0
100
AcDbPoint
 10
197.5746144058922
 20
143.4799396987363
 30
0.0
  0
POINT
  5
38C
330
373
100
AcDbEntity
  8
Defpoints
 62
     0
100
AcDbPoint
 10
141.2883923556126
 20
5.520303546321883
 30
0.0
  0
ENDBLK
  5
380
330
373
100
AcDbEntity
  8
0
100
AcDbBlockEnd
  0
BLOCK
  5
39B
330
38F
100
AcDbEntity
  8
0
100
AcDbBlockBegin
  2
*D10
 70
     1
 10
0.0
 20
0.0
 30
0.0
  3
*D10
  1

  0
ARC
  5
39E
330
38F
100
AcDbEntity
  8
0
 62
     0
370
    -2
100
AcDbCircle
 10
175.0
 20
175.0
 30
0.0
 40
10.7761750762609
100
AcDbArc
 50
234.1777749897167
 51
247.4999999999999
  0
LINE
  5
39F
330
38F
100
AcDbEntity
  8
0
 62
     0
370
    -2
100
AcDbLine
 10
168.6930038496263
 20
166.2622801124436
 30
0.0
 11
157.5439971191614
 21
174.3097734441619
 31
0.0
  0
ARC
  5
3A0
330
38F
100
AcDbEntity
  8
0
 62
     0
370
    -2
100
AcDbCircle
 10
175.0
 20
175.0
 30
0.0
 40
10.7761750762609
100
AcDbArc
 50
260.8222250102831
 51
292.2879499021078
  0
SOLID
  5
3A1
330
38F
100
AcDbEntity
  8
0
 62
     0
100
AcDbTrace
 10
173.1674965722919
 20
163.9609321971873
 30
0.0
 11
173.3949409522021
 21
164.7626263399199
 31
0.0
 12
170.8761363340493
 22
165.0441124082843
 32
0.0
 13
170.8761363340493
 23
165.0441124082843
 33
0.0
  0
SOLID
  5
3A2
330
38F
100
AcDbEntity
  8
0
 62
     0
100
AcDbTrace
 10
178.8853090978721
 20
165.3935226426638
 30
0.0
 11
179.2886689868153
 21
164.6643140000682
 31
0.0
 12
181.2746149701306
 22
166.2389979881956
 32
0.0
 13
181.2746149701306
 23
166.2389979881956
 33
0.0
  0
MTEXT
  5
3A3
102
{ACAD_XDICTIONARY
360
41F
102
}
330
38F
100
AcDbEntity
  8
0
 62
     0
100
AcDbMText
 10
164.3378176558663
 20
171.9752702223126
 30
0.0
 40
2.5
 41
0.0
 71
     5
 72
     1
  1
58,110\U+00B0
 11
0.8108368531247124
 21
-0.5852722423067866
 31
0.0
 73
     1
 44
1.0
  0
POINT
  5
3A4
330
38F
100
AcDbEntity
  8
Defpoints
 62
     0
100
AcDbPoint
 10
178.0137017980087
 20
164.6538146765628
 30
0.0
  0
POINT
  5
3A5
330
38F
100
AcDbEntity
  8
Defpoints
 62
     0
100
AcDbPoint
 10
175.0
 20
175.0
 30
0.0
  0
POINT
  5
3A6
330
38F
100
AcDbEntity
  8
Defpoints
 62
     0
100
AcDbPoint
 10
175.0
 20
175.0
 30
0.0
  0
POINT
  5
3A7
330
38F
100
AcDbEntity
  8
Defpoints
 62
     0
100
AcDbPoint
 10
197.5746144058922
 20
143.4799396987363
 30
0.0
  0
POINT
  5
3A8
330
38F
100
AcDbEntity
  8
Defpoints
 62
     0
100
AcDbPoint
 10
111.5510869138678
 20
21.82077350962875
 30
0.0
  0
ENDBLK
  5
39C
330
38F
100
AcDbEntity
  8
0
100
AcDbBlockEnd
  0
ENDSEC
  0
SECTION
  2
ENTITIES
  0
LINE
  5
44D
330
1F
100
AcDbEntity
  8
1
100
AcDbLine
 10
165.0000002897102
 20
0.0000002850262035
 30
0.0
 11
165.0000002897102
 21
22.10580866059379
 31
0.0
  0
LINE
  5
44E
330
1F
100
AcDbEntity
  8
1
100
AcDbLine
 10
247.5000002897102
 20
22.10580866059381
 30
0.0
 11
236.4470961019263
 21
41.25000028502615
 31
0.0
  0
ARC
  5
44F
330
1F
100
AcDbEntity
  8
1
100
AcDbCircle
 10
165.0000002897102
 20
82.5000002850262
 30
0.0
 40
82.5
100
AcDbArc
 50
270.0
 51
329.9999999999999
  0
LINE
  5
450
330
1F
100
AcDbEntity
  8
1
100
AcDbLine
 10
247.5000002897102
 20
22.10580866059381
 30
0.0
 11
236.4470961019263
 21
41.25000028502615
 31
0.0
  0
ARC
  5
451
330
1F
100
AcDbEntity
  8
1
100
AcDbCircle
 10
206.2500002897102
 20
93.55290447280999
 30
0.0
 40
82.5
100
AcDbArc
 50
300.0
 51
0.0
  0
LINE
  5
452
330
1F
100
AcDbEntity
  8
1
100
AcDbLine
 10
330.0000002897102
 20
165.0000002850262
 30
0.0
 11
307.8941919141426
 21
165.0000002850262
 31
0.0
  0
ARC
  5
453
330
1F
100
AcDbEntity
  8
1
100
AcDbCircle
 10
236.4470961019264
 20
123.7500002850262
 30
0.0
 40
82.5
100
AcDbArc
 50
330.0
 51
29.9999999999999
  0
LINE
  5
454
330
1F
100
AcDbEntity
  8
1
100
AcDbLine
 10
330.0000002897102
 20
165.0000002850262
 30
0.0
 11
307.8941919141426
 21
165.0000002850262
 31
0.0
  0
LINE
  5
455
330
1F
100
AcDbEntity
  8
1
100
AcDbLine
 10
307.8941919141426
 20
247.5000002850262
 30
0.0
 11
288.7500002897103
 21
236.4470960972423
 31
0.0
  0
ARC
  5
456
330
1F
100
AcDbEntity
  8
1
100
AcDbCircle
 10
247.5000002897102
 20
165.0000002850262
 30
0.0
 40
82.5
100
AcDbArc
 50
0.0
 51
59.99999999999988
  0
LINE
  5
457
330
1F
100
AcDbEntity
  8
1
100
AcDbLine
 10
307.8941919141426
 20
247.5000002850262
 30
0.0
 11
288.7500002897103
 21
236.4470960972423
 31
0.0
  0
LINE
  5
458
330
1F
100
AcDbEntity
  8
1
100
AcDbLine
 10
247.5000002897104
 20
307.8941919094586
 30
0.0
 11
236.4470961019265
 21
288.7500002850262
 31
0.0
  0
ARC
  5
459
330
1F
100
AcDbEntity
  8
1
100
AcDbCircle
 10
236.4470961019264
 20
206.2500002850262
 30
0.0
 40
82.5
100
AcDbArc
 50
29.99999999999999
 51
89.99999999999991
  0
LINE
  5
45A
330
1F
100
AcDbEntity
  8
1
100
AcDbLine
 10
247.5000002897104
 20
307.8941919094586
 30
0.0
 11
236.4470961019265
 21
288.7500002850262
 31
0.0
  0
LINE
  5
45B
330
1F
100
AcDbEntity
  8
1
100
AcDbLine
 10
165.0000002897103
 20
330.0000002850261
 30
0.0
 11
165.0000002897103
 21
307.8941919094586
 31
0.0
  0
ARC
  5
45C
330
1F
100
AcDbEntity
  8
1
100
AcDbCircle
 10
206.2500002897103
 20
236.4470960972424
 30
0.0
 40
82.5
100
AcDbArc
 50
59.99999999999988
 51
119.9999999999999
  0
LINE
  5
45D
330
1F
100
AcDbEntity
  8
1
100
AcDbLine
 10
165.0000002897103
 20
330.0000002850261
 30
0.0
 11
165.0000002897103
 21
307.8941919094586
 31
0.0
  0
LINE
  5
45E
330
1F
100
AcDbEntity
  8
1
100
AcDbLine
 10
82.50000028971035
 20
307.8941919094587
 30
0.0
 11
93.55290447749423
 21
288.7500002850263
 31
0.0
  0
ARC
  5
45F
330
1F
100
AcDbEntity
  8
1
100
AcDbCircle
 10
165.0000002897103
 20
247.5000002850261
 30
0.0
 40
82.5
100
AcDbArc
 50
90.0
 51
149.9999999999999
  0
LINE
  5
460
330
1F
100
AcDbEntity
  8
1
100
AcDbLine
 10
82.50000028971035
 20
307.8941919094587
 30
0.0
 11
93.55290447749423
 21
288.7500002850263
 31
0.0
  0
LINE
  5
461
330
1F
100
AcDbEntity
  8
1
100
AcDbLine
 10
22.10580866527795
 20
247.5000002850264
 30
0.0
 11
41.25000028971028
 21
236.4470960972426
 31
0.0
  0
ARC
  5
462
330
1F
100
AcDbEntity
  8
1
100
AcDbCircle
 10
123.7500002897102
 20
236.4470960972425
 30
0.0
 40
82.5
100
AcDbArc
 50
119.9999999999999
 51
179.9999999999999
  0
LINE
  5
463
330
1F
100
AcDbEntity
  8
1
100
AcDbLine
 10
22.10580866527791
 20
247.5000002850263
 30
0.0
 11
41.25000028971025
 21
236.4470960972425
 31
0.0
  0
LINE
  5
464
330
1F
100
AcDbEntity
  8
1
100
AcDbLine
 10
0.0000002897101989
 20
165.0000002850263
 30
0.0
 11
22.10580866527779
 21
165.0000002850263
 31
0.0
  0
ARC
  5
465
330
1F
100
AcDbEntity
  8
1
100
AcDbCircle
 10
93.55290447749402
 20
206.2500002850262
 30
0.0
 40
82.5
100
AcDbArc
 50
150.0
 51
210.0
  0
LINE
  5
466
330
1F
100
AcDbEntity
  8
1
100
AcDbLine
 10
0.0000002897101989
 20
165.0000002850262
 30
0.0
 11
22.10580866527786
 21
165.0000002850262
 31
0.0
  0
LINE
  5
467
330
1F
100
AcDbEntity
  8
1
100
AcDbLine
 10
22.10580866527782
 20
82.50000028502624
 30
0.0
 11
41.25000028971011
 21
93.55290447280999
 31
0.0
  0
ARC
  5
468
330
1F
100
AcDbEntity
  8
1
100
AcDbCircle
 10
82.50000028971021
 20
165.0000002850262
 30
0.0
 40
82.5
100
AcDbArc
 50
180.0
 51
239.9999999999999
  0
LINE
  5
469
330
1F
100
AcDbEntity
  8
1
100
AcDbLine
 10
22.10580866527786
 20
82.5000002850262
 30
0.0
 11
41.25000028971018
 21
93.55290447280999
 31
0.0
  0
LINE
  5
46A
330
1F
100
AcDbEntity
  8
1
100
AcDbLine
 10
82.50000028971021
 20
22.10580866059381
 30
0.0
 11
93.55290447749402
 21
41.2500002850262
 31
0.0
  0
ARC
  5
46B
330
1F
100
AcDbEntity
  8
1
100
AcDbCircle
 10
93.55290447749402
 20
123.7500002850262
 30
0.0
 40
82.5
100
AcDbArc
 50
210.0
 51
269.9999999999999
  0
LINE
  5
46C
330
1F
100
AcDbEntity
  8
1
100
AcDbLine
 10
165.0000002897102
 20
0.0000002850262035
 30
0.0
 11
165.0000002897102
 21
22.10580866059379
 31
0.0
  0
ARC
  5
46D
330
1F
100
AcDbEntity
  8
1
100
AcDbCircle
 10
123.7500002897102
 20
93.55290447280999
 30
0.0
 40
82.5
100
AcDbArc
 50
240.0
 51
300.0
  0
LINE
  5
46E
330
1F
100
AcDbEntity
  8
1
100
AcDbLine
 10
288.7500002897102
 20
93.55290447280991
 30
0.0
 11
307.8941919141426
 21
82.50000028502604
 31
0.0
  0
ENDSEC
  0
SECTION
  2
OBJECTS
  0
DICTIONARY
  5
C
330
0
100
AcDbDictionary
281
     1
  3
ACAD_COLOR
350
6B
  3
ACAD_GROUP
350
D
  3
ACAD_LAYOUT
350
1A
  3
ACAD_MATERIAL
350
6A
  3
ACAD_MLINESTYLE
350
17
  3
ACAD_PLOTSETTINGS
350
19
  3
ACAD_PLOTSTYLENAME
350
E
  3
ACAD_TABLESTYLE
350
7E
  3
ACAD_VISUALSTYLE
350
EF
  3
AcDbVariableDictionary
350
5E
  0
DICTIONARY
  5
1B7
330
2
100
AcDbDictionary
280
     1
281
     1
  3
ACAD_LAYERFILTERS
360
1B9
  3
ACAD_LAYERSTATES
360
3C4
  3
ACLYDICTIONARY
360
1B8
  0
DICTIONARY
  5
12D
330
1F
100
AcDbDictionary
280
     1
281
     1
  3
ACAD_SORTENTS
360
12E
  0
DICTIONARY
  5
413
330
200
100
AcDbDictionary
280
     1
281
     1
  3
ACAD_MTEXT_RT
360
473
  0
DICTIONARY
  5
415
330
20B
100
AcDbDictionary
280
     1
281
     1
  3
ACAD_MTEXT_RT
360
474
  0
DICTIONARY
  5
417
330
250
100
AcDbDictionary
280
     1
281
     1
  3
ACAD_MTEXT_RT
360
475
  0
DICTIONARY
  5
419
330
34F
100
AcDbDictionary
280
     1
281
     1
  3
ACAD_MTEXT_RT
360
476
  0
DICTIONARY
  5
41B
330
36B
100
AcDbDictionary
280
     1
281
     1
  3
ACAD_MTEXT_RT
360
477
  0
DICTIONARY
  5
41D
330
387
100
AcDbDictionary
280
     1
281
     1
  3
ACAD_MTEXT_RT
360
478
  0
DICTIONARY
  5
41F
330
3A3
100
AcDbDictionary
280
     1
281
     1
  3
ACAD_MTEXT_RT
360
479
  0
DICTIONARY
  5
6B
102
{ACAD_REACTORS
330
C
102
}
330
C
100
AcDbDictionary
281
     1
  0
DICTIONARY
  5
D
102
{ACAD_REACTORS
330
C
102
}
330
C
100
AcDbDictionary
281
     1
  0
DICTIONARY
  5
1A
102
{ACAD_REACTORS
330
C
102
}
330
C
100
AcDbDictionary
281
     1
  3
Layout1
350
D3
  3
Layout2
350
D7
  3
Model
350
22
  0
DICTIONARY
  5
6A
102
{ACAD_REACTORS
330
C
102
}
330
C
100
AcDbDictionary
281
     1
  3
ByBlock
350
ED
  3
ByLayer
350
EC
  3
Global
350
EE
  0
DICTIONARY
  5
17
102
{ACAD_REACTORS
330
C
102
}
330
C
100
AcDbDictionary
281
     1
  3
Standard
350
18
  0
DICTIONARY
  5
19
102
{ACAD_REACTORS
330
C
102
}
330
C
100
AcDbDictionary
281
     1
  0
ACDBDICTIONARYWDFLT
  5
E
102
{ACAD_REACTORS
330
C
102
}
330
C
100
AcDbDictionary
281
     1
  3
Normal
350
F
100
AcDbDictionaryWithDefault
340
F
  0
DICTIONARY
  5
7E
102
{ACAD_REACTORS
330
C
102
}
330
C
100
AcDbDictionary
281
     1
  3
Standard
350
7F
  0
DICTIONARY
  5
EF
102
{ACAD_REACTORS
330
C
102
}
330
C
100
AcDbDictionary
281
     1
  3
2dWireframe
350
F5
  3
3D Hidden
350
F7
  3
3dWireframe
350
F6
  3
Basic
350
F4
  3
Brighten
350
FB
  3
ColorChange
350
FF
  3
Conceptual
350
F8
  3
Dim
350
FA
  3
Facepattern
350
FE
  3
Flat
350
F0
  3
FlatWithEdges
350
F1
  3
Gouraud
350
F2
  3
GouraudWithEdges
350
F3
  3
Linepattern
350
FD
  3
Realistic
350
F9
  3
Thicken
350
FC
  0
DICTIONARY
  5
5E
102
{ACAD_REACTORS
330
C
102
}
330
C
100
AcDbDictionary
281
     1
  3
CTABLESTYLE
350
84
  3
DIMASSOC
350
5F
  3
HIDETEXT
350
63
  3
INDEXCTL
350
3AB
  3
PSOLHEIGHT
350
470
  3
PSOLWIDTH
350
46F
  3
SORTENTS
350
3AA
  0
DICTIONARY
  5
1B9
102
{ACAD_REACTORS
330
1B7
102
}
330
1B7
100
AcDbDictionary
281
     1
  0
DICTIONARY
  5
3C4
102
{ACAD_REACTORS
330
1B7
102
}
330
1B7
100
AcDbDictionary
281
     1
  0
DICTIONARY
  5
1B8
102
{ACAD_REACTORS
330
1B7
102
}
330
1B7
100
AcDbDictionary
281
     1
1001
ACAD
1000
<All
  0
SORTENTSTABLE
  5
12E
102
{ACAD_REACTORS
330
12D
102
}
330
12D
100
AcDbSortentsTable
330
1F
  0
XRECORD
  5
473
102
{ACAD_REACTORS
330
413
102
}
330
413
100
AcDbXrecord
280
     1
 40
5252.0
  1
67,894бу
  0
XRECORD
  5
474
102
{ACAD_REACTORS
330
415
102
}
330
415
100
AcDbXrecord
280
     1
 40
5167.0
  1
11,250бу
  0
XRECORD
  5
475
102
{ACAD_REACTORS
330
417
102
}
330
417
100
AcDbXrecord
280
     1
 40
2852.0
  1
\U+2205700
  0
XRECORD
  5
476
102
{ACAD_REACTORS
330
419
102
}
330
419
100
AcDbXrecord
280
     1
 40
5167.0
  1
11,250бу
  0
XRECORD
  5
477
102
{ACAD_REACTORS
330
41B
102
}
330
41B
100
AcDbXrecord
280
     1
 40
5161.0
  1
58,110бу
  0
XRECORD
  5
478
102
{ACAD_REACTORS
330
41D
102
}
330
41D
100
AcDbXrecord
280
     1
 40
5209.0
  1
46,860бу
  0
XRECORD
  5
479
102
{ACAD_REACTORS
330
41F
102
}
330
41F
100
AcDbXrecord
280
     1
 40
5161.0
  1
58,110бу
  0
LAYOUT
  5
D3
102
{ACAD_REACTORS
330
1A
102
}
330
1A
100
AcDbPlotSettings
  1

  2
C:\Documents and Settings\basas\Application Data\Autodesk\AutoCAD 2005\R16.1\enu\plotters\Default Windows System Printer.pc3
  4

  6

 40
0.0
 41
0.0
 42
0.0
 43
0.0
 44
0.0
 45
0.0
 46
0.0
 47
0.0
 48
0.0
 49
0.0
140
0.0
141
0.0
142
1.0
143
1.0
 70
   688
 72
     0
 73
     0
 74
     5
  7

 75
    16
147
1.0
 76
     0
 77
     2
 78
   300
148
0.0
149
0.0
100
AcDbLayout
  1
Layout1
 70
     1
 71
     1
 10
0.0
 20
0.0
 11
12.0
 21
9.0
 12
0.0
 22
0.0
 32
0.0
 14
0.0
 24
0.0
 34
0.0
 15
0.0
 25
0.0
 35
0.0
146
0.0
 13
0.0
 23
0.0
 33
0.0
 16
1.0
 26
0.0
 36
0.0
 17
0.0
 27
1.0
 37
0.0
 76
     0
330
D2
  0
LAYOUT
  5
D7
102
{ACAD_REACTORS
330
1A
102
}
330
1A
100
AcDbPlotSettings
  1

  2
C:\Documents and Settings\basas\Application Data\Autodesk\AutoCAD 2005\R16.1\enu\plotters\Default Windows System Printer.pc3
  4

  6

 40
0.0
 41
0.0
 42
0.0
 43
0.0
 44
0.0
 45
0.0
 46
0.0
 47
0.0
 48
0.0
 49
0.0
140
0.0
141
0.0
142
1.0
143
1.0
 70
   688
 72
     0
 73
     0
 74
     5
  7

 75
    16
147
1.0
 76
     0
 77
     2
 78
   300
148
0.0
149
0.0
100
AcDbLayout
  1
Layout2
 70
     1
 71
     2
 10
0.0
 20
0.0
 11
12.0
 21
9.0
 12
0.0
 22
0.0
 32
0.0
 14
0.0
 24
0.0
 34
0.0
 15
0.0
 25
0.0
 35
0.0
146
0.0
 13
0.0
 23
0.0
 33
0.0
 16
1.0
 26
0.0
 36
0.0
 17
0.0
 27
1.0
 37
0.0
 76
     0
330
D6
  0
LAYOUT
  5
22
102
{ACAD_REACTORS
330
1A
102
}
330
1A
100
AcDbPlotSettings
  1

  2
none_device
  4
ISO_A4_(210.00_x_297.00_MM)
  6

 40
7.5
 41
20.0
 42
7.5
 43
20.0
 44
210.0
 45
297.0
 46
11.54999923706054
 47
-13.65000009536743
 48
0.0
 49
0.0
140
0.0
141
0.0
142
1.0
143
8.704084754739808
 70
 11952
 72
     1
 73
     0
 74
     0
  7

 75
     0
147
0.1148885871608098
 76
     0
 77
     2
 78
   300
148
0.0
149
0.0
100
AcDbLayout
  1
Model
 70
     1
 71
     0
 10
0.0
 20
0.0
 11
12.0
 21
9.0
 12
0.0
 22
0.0
 32
0.0
 14
0.0
 24
0.0
 34
0.0
 15
0.0
 25
0.0
 35
0.0
146
0.0
 13
0.0
 23
0.0
 33
0.0
 16
1.0
 26
0.0
 36
0.0
 17
0.0
 27
1.0
 37
0.0
 76
     0
330
1F
331
EA
1001
ACAD_PSEXT
1000
None
1000
None
1000
Not applicable
1000
The layout will not be plotted unless a new plotter configuration name is selected.
1070
     0
  0
MATERIAL
  5
ED
102
{ACAD_XDICTIONARY
360
3B9
102
}
102
{ACAD_REACTORS
330
6A
102
}
330
6A
100
AcDbMaterial
  1
ByBlock
  0
MATERIAL
  5
EC
102
{ACAD_XDICTIONARY
360
3B7
102
}
102
{ACAD_REACTORS
330
6A
102
}
330
6A
100
AcDbMaterial
  1
ByLayer
  0
MATERIAL
  5
EE
102
{ACAD_XDICTIONARY
360
3BB
102
}
102
{ACAD_REACTORS
330
6A
102
}
330
6A
100
AcDbMaterial
  1
Global
  0
MLINESTYLE
  5
18
102
{ACAD_REACTORS
330
17
102
}
330
17
100
AcDbMlineStyle
  2
STANDARD
 70
     0
  3

 62
   256
 51
90.0
 52
90.0
 71
     2
 49
0.5
 62
   256
  6
BYLAYER
 49
-0.5
 62
   256
  6
BYLAYER
  0
ACDBPLACEHOLDER
  5
F
102
{ACAD_REACTORS
330
E
102
}
330
E
  0
TABLESTYLE
  5
7F
102
{ACAD_XDICTIONARY
360
471
102
}
102
{ACAD_REACTORS
330
7E
102
}
330
7E
100
AcDbTableStyle
  3
Standard
 70
     0
 71
     0
 40
1.5
 41
1.5
280
     0
281
     0
  7
Standard
140
4.5
170
     2
 62
     0
 63
     7
283
     0
274
    -2
284
     1
 64
     0
275
    -2
285
     1
 65
     0
276
    -2
286
     1
 66
     0
277
    -2
287
     1
 67
     0
278
    -2
288
     1
 68
     0
279
    -2
289
     1
 69
     0
  7
Standard
140
6.0
170
     5
 62
     0
 63
     7
283
     0
274
    -2
284
     1
 64
     0
275
    -2
285
     1
 65
     0
276
    -2
286
     1
 66
     0
277
    -2
287
     1
 67
     0
278
    -2
288
     1
 68
     0
279
    -2
289
     1
 69
     0
  7
Standard
140
4.5
170
     5
 62
     0
 63
     7
283
     0
274
    -2
284
     1
 64
     0
275
    -2
285
     1
 65
     0
276
    -2
286
     1
 66
     0
277
    -2
287
     1
 67
     0
278
    -2
288
     1
 68
     0
279
    -2
289
     1
 69
     0
  0
VISUALSTYLE
  5
F5
102
{ACAD_REACTORS
330
EF
102
}
330
EF
100
AcDbVisualStyle
  2
2dWireframe
 70
     4
 71
     0
 72
     2
 73
     1
 90
        0
 40
-0.6
 41
-30.0
 62
     5
 63
     7
 74
     1
 91
        4
 64
     7
 65
   257
 75
     1
175
     1
 42
1.0
 92
        0
 66
   257
 43
1.0
 76
     1
 77
     6
 78
     2
 67
     7
 79
     5
170
     0
171
     0
290
     0
174
     0
 93
        1
 44
0.0
173
     0
291
     0
 45
0.0
1001
ACAD
1000
AcDbSavedByObjectVersion
1070
     0
1000
AcDbSavedByObjectVersion
1070
     0
1000
AcDbSavedByObjectVersion
1070
     0
  0
VISUALSTYLE
  5
F7
102
{ACAD_REACTORS
330
EF
102
}
330
EF
100
AcDbVisualStyle
  2
3D Hidden
 70
     6
 71
     1
 72
     2
 73
     2
 90
        0
 40
-0.6
 41
-30.0
 62
     5
 63
     7
 74
     2
 91
        2
 64
     7
 65
   257
 75
     2
175
     1
 42
40.0
 92
        0
 66
   257
 43
1.0
 76
     1
 77
     6
 78
     2
 67
     7
 79
     3
170
     0
171
     0
290
     0
174
     0
 93
        1
 44
0.0
173
     0
291
     0
 45
0.0
1001
ACAD
1000
AcDbSavedByObjectVersion
1070
     0
1000
AcDbSavedByObjectVersion
1070
     0
1000
AcDbSavedByObjectVersion
1070
     0
  0
VISUALSTYLE
  5
F6
102
{ACAD_REACTORS
330
EF
102
}
330
EF
100
AcDbVisualStyle
  2
3dWireframe
 70
     5
 71
     0
 72
     2
 73
     1
 90
        0
 40
-0.6
 41
-30.0
 62
     5
 63
     7
 74
     1
 91
        4
 64
     7
 65
   257
 75
     1
175
     1
 42
1.0
 92
        0
 66
   257
 43
1.0
 76
     1
 77
     6
 78
     2
 67
     7
 79
     5
170
     0
171
     0
290
     0
174
     0
 93
        1
 44
0.0
173
     0
291
     0
 45
0.0
1001
ACAD
1000
AcDbSavedByObjectVersion
1070
     0
1000
AcDbSavedByObjectVersion
1070
     0
1000
AcDbSavedByObjectVersion
1070
     0
  0
VISUALSTYLE
  5
F4
102
{ACAD_REACTORS
330
EF
102
}
330
EF
100
AcDbVisualStyle
  2
Basic
 70
     7
 71
     1
 72
     0
 73
     1
 90
        0
 40
-0.6
 41
-30.0
 62
     5
 63
     7
 74
     0
 91
        4
 64
     7
 65
   257
 75
     1
175
     1
 42
1.0
 92
        8
 66
     7
 43
1.0
 76
     1
 77
     6
 78
     2
 67
     7
 79
     5
170
     0
171
     0
290
     0
174
     0
 93
        1
 44
0.0
173
     0
291
     1
 45
0.0
1001
ACAD
1000
AcDbSavedByObjectVersion
1070
     0
1000
AcDbSavedByObjectVersion
1070
     0
1000
AcDbSavedByObjectVersion
1070
     0
  0
VISUALSTYLE
  5
FB
102
{ACAD_REACTORS
330
EF
102
}
330
EF
100
AcDbVisualStyle
  2
Brighten
 70
    12
 71
     2
 72
     2
 73
     1
 90
        0
 40
-0.6
 41
-30.0
 62
     5
 63
     7
 74
     1
 91
        4
 64
     7
 65
   257
 75
     1
175
     1
 42
1.0
 92
        8
 66
     7
 43
1.0
 76
     1
 77
     6
 78
     2
 67
     7
 79
     5
170
     0
171
     0
290
     0
174
     0
 93
        1
 44
50.0
173
     0
291
     1
 45
0.0
1001
ACAD
1000
AcDbSavedByObjectVersion
1070
     0
1000
AcDbSavedByObjectVersion
1070
     0
1000
AcDbSavedByObjectVersion
1070
     0
  0
VISUALSTYLE
  5
FF
102
{ACAD_REACTORS
330
EF
102
}
330
EF
100
AcDbVisualStyle
  2
ColorChange
 70
    16
 71
     2
 72
     2
 73
     3
 90
        0
 40
-0.6
 41
-30.0
 62
     5
 63
     8
 74
     1
 91
        4
 64
     7
 65
   257
 75
     1
175
     1
 42
1.0
 92
        8
 66
     8
 43
1.0
 76
     1
 77
     6
 78
     2
 67
     7
 79
     5
170
     0
171
     0
290
     0
174
     0
 93
        1
 44
0.0
173
     0
291
     1
 45
0.0
1001
ACAD
1000
AcDbSavedByObjectVersion
1070
     0
1000
AcDbSavedByObjectVersion
1070
     0
1000
AcDbSavedByObjectVersion
1070
     0
  0
VISUALSTYLE
  5
F8
102
{ACAD_REACTORS
330
EF
102
}
330
EF
100
AcDbVisualStyle
  2
Conceptual
 70
     9
 71
     3
 72
     2
 73
     1
 90
        0
 40
-0.6
 41
-30.0
 62
     5
 63
     7
 74
     2
 91
        2
 64
     7
 65
   257
 75
     1
175
     1
 42
40.0
 92
        8
 66
     7
 43
1.0
 76
     1
 77
     6
 78
     2
 67
     7
 79
     3
170
     0
171
     0
290
     0
174
     0
 93
        1
 44
0.0
173
     0
291
     0
 45
0.0
1001
ACAD
1000
AcDbSavedByObjectVersion
1070
     0
1000
AcDbSavedByObjectVersion
1070
     0
1000
AcDbSavedByObjectVersion
1070
     0
  0
VISUALSTYLE
  5
FA
102
{ACAD_REACTORS
330
EF
102
}
330
EF
100
AcDbVisualStyle
  2
Dim
 70
    11
 71
     2
 72
     2
 73
     1
 90
        0
 40
-0.6
 41
-30.0
 62
     5
 63
     7
 74
     1
 91
        4
 64
     7
 65
   257
 75
     1
175
     1
 42
1.0
 92
        8
 66
     7
 43
1.0
 76
     1
 77
     6
 78
     2
 67
     7
 79
     5
170
     0
171
     0
290
     0
174
     0
 93
        1
 44
-50.0
173
     0
291
     1
 45
0.0
1001
ACAD
1000
AcDbSavedByObjectVersion
1070
     0
1000
AcDbSavedByObjectVersion
1070
     0
1000
AcDbSavedByObjectVersion
1070
     0
  0
VISUALSTYLE
  5
FE
102
{ACAD_REACTORS
330
EF
102
}
330
EF
100
AcDbVisualStyle
  2
Facepattern
 70
    15
 71
     2
 72
     2
 73
     1
 90
        0
 40
-0.6
 41
-30.0
 62
     5
 63
     7
 74
     1
 91
        4
 64
     7
 65
   257
 75
     1
175
     1
 42
1.0
 92
        8
 66
     7
 43
1.0
 76
     1
 77
     6
 78
     2
 67
     7
 79
     5
170
     0
171
     0
290
     0
174
     0
 93
        1
 44
0.0
173
     0
291
     1
 45
0.0
1001
ACAD
1000
AcDbSavedByObjectVersion
1070
     0
1000
AcDbSavedByObjectVersion
1070
     0
1000
AcDbSavedByObjectVersion
1070
     0
  0
VISUALSTYLE
  5
F0
102
{ACAD_REACTORS
330
EF
102
}
330
EF
100
AcDbVisualStyle
  2
Flat
 70
     0
 71
     2
 72
     1
 73
     1
 90
        2
 40
-0.6
 41
30.0
 62
     5
 63
     7
 74
     0
 91
        4
 64
     7
 65
   257
 75
     1
175
     1
 42
1.0
 92
        8
 66
     7
 43
1.0
 76
     1
 77
     6
 78
     2
 67
     7
 79
     5
170
     0
171
     0
290
     0
174
     0
 93
        1
 44
0.0
173
     0
291
     1
 45
0.0
1001
ACAD
1000
AcDbSavedByObjectVersion
1070
     0
1000
AcDbSavedByObjectVersion
1070
     0
1000
AcDbSavedByObjectVersion
1070
     0
  0
VISUALSTYLE
  5
F1
102
{ACAD_REACTORS
330
EF
102
}
330
EF
100
AcDbVisualStyle
  2
FlatWithEdges
 70
     1
 71
     2
 72
     1
 73
     1
 90
        2
 40
-0.6
 41
30.0
 62
     5
 63
     7
 74
     1
 91
        4
 64
     7
 65
   257
 75
     1
175
     1
 42
1.0
 92
        0
 66
   257
 43
1.0
 76
     1
 77
     6
 78
     2
 67
     7
 79
     5
170
     0
171
     0
290
     0
174
     0
 93
        1
 44
0.0
173
     0
291
     1
 45
0.0
1001
ACAD
1000
AcDbSavedByObjectVersion
1070
     0
1000
AcDbSavedByObjectVersion
1070
     0
1000
AcDbSavedByObjectVersion
1070
     0
  0
VISUALSTYLE
  5
F2
102
{ACAD_REACTORS
330
EF
102
}
330
EF
100
AcDbVisualStyle
  2
Gouraud
 70
     2
 71
     2
 72
     2
 73
     1
 90
        2
 40
-0.6
 41
30.0
 62
     5
 63
     7
 74
     0
 91
        4
 64
     7
 65
   257
 75
     1
175
     1
 42
1.0
 92
        0
 66
     7
 43
1.0
 76
     1
 77
     6
 78
     2
 67
     7
 79
     5
170
     0
171
     0
290
     0
174
     0
 93
        1
 44
0.0
173
     0
291
     1
 45
0.0
1001
ACAD
1000
AcDbSavedByObjectVersion
1070
     0
1000
AcDbSavedByObjectVersion
1070
     0
1000
AcDbSavedByObjectVersion
1070
     0
  0
VISUALSTYLE
  5
F3
102
{ACAD_REACTORS
330
EF
102
}
330
EF
100
AcDbVisualStyle
  2
GouraudWithEdges
 70
     3
 71
     2
 72
     2
 73
     1
 90
        2
 40
-0.6
 41
30.0
 62
     5
 63
     7
 74
     1
 91
        4
 64
     7
 65
   257
 75
     1
175
     1
 42
1.0
 92
        0
 66
   257
 43
1.0
 76
     1
 77
     6
 78
     2
 67
     7
 79
     5
170
     0
171
     0
290
     0
174
     0
 93
        1
 44
0.0
173
     0
291
     1
 45
0.0
1001
ACAD
1000
AcDbSavedByObjectVersion
1070
     0
1000
AcDbSavedByObjectVersion
1070
     0
1000
AcDbSavedByObjectVersion
1070
     0
  0
VISUALSTYLE
  5
FD
102
{ACAD_REACTORS
330
EF
102
}
330
EF
100
AcDbVisualStyle
  2
Linepattern
 70
    14
 71
     2
 72
     2
 73
     1
 90
        0
 40
-0.6
 41
-30.0
 62
     5
 63
     7
 74
     1
 91
        4
 64
     7
 65
   257
 75
     7
175
     7
 42
1.0
 92
        8
 66
     7
 43
1.0
 76
     1
 77
     6
 78
     2
 67
     7
 79
     5
170
     0
171
     0
290
     0
174
     0
 93
        1
 44
0.0
173
     0
291
     1
 45
0.0
1001
ACAD
1000
AcDbSavedByObjectVersion
1070
     0
1000
AcDbSavedByObjectVersion
1070
     0
1000
AcDbSavedByObjectVersion
1070
     0
  0
VISUALSTYLE
  5
F9
102
{ACAD_REACTORS
330
EF
102
}
330
EF
100
AcDbVisualStyle
  2
Realistic
 70
     8
 71
     2
 72
     2
 73
     1
 90
        0
 40
-0.6
 41
-30.0
 62
     5
 63
     7
 74
     1
 91
        0
 64
     7
 65
   257
 75
     1
175
     1
 42
1.0
 92
        8
 66
     8
 43
1.0
 76
     1
 77
     6
 78
     2
 67
     7
 79
     5
170
     0
171
     0
290
     0
174
     0
 93
       13
 44
0.0
173
     0
291
     0
 45
0.0
1001
ACAD
1000
AcDbSavedByObjectVersion
1070
     0
1000
AcDbSavedByObjectVersion
1070
     0
1000
AcDbSavedByObjectVersion
1070
     0
  0
VISUALSTYLE
  5
FC
102
{ACAD_REACTORS
330
EF
102
}
330
EF
100
AcDbVisualStyle
  2
Thicken
 70
    13
 71
     2
 72
     2
 73
     1
 90
        0
 40
-0.6
 41
-30.0
 62
     5
 63
     7
 74
     1
 91
        4
 64
     7
 65
   257
 75
     1
175
     1
 42
1.0
 92
       12
 66
     7
 43
1.0
 76
     1
 77
     6
 78
     2
 67
     7
 79
     5
170
     0
171
     0
290
     0
174
     0
 93
        1
 44
0.0
173
     0
291
     1
 45
0.0
1001
ACAD
1000
AcDbSavedByObjectVersion
1070
     0
1000
AcDbSavedByObjectVersion
1070
     0
1000
AcDbSavedByObjectVersion
1070
     0
  0
DICTIONARYVAR
  5
84
102
{ACAD_REACTORS
330
5E
102
}
330
5E
100
DictionaryVariables
280
     0
  1
STANDARD
  0
DICTIONARYVAR
  5
5F
102
{ACAD_REACTORS
330
5E
102
}
330
5E
100
DictionaryVariables
280
     0
  1
2
  0
DICTIONARYVAR
  5
63
102
{ACAD_REACTORS
330
5E
102
}
330
5E
100
DictionaryVariables
280
     0
  1
1
  0
DICTIONARYVAR
  5
3AB
102
{ACAD_REACTORS
330
5E
102
}
330
5E
100
DictionaryVariables
280
     0
  1
0
  0
DICTIONARYVAR
  5
470
102
{ACAD_REACTORS
330
5E
102
}
330
5E
100
DictionaryVariables
280
     0
  1
80.000000
  0
DICTIONARYVAR
  5
46F
102
{ACAD_REACTORS
330
5E
102
}
330
5E
100
DictionaryVariables
280
     0
  1
5.000000
  0
DICTIONARYVAR
  5
3AA
102
{ACAD_REACTORS
330
5E
102
}
330
5E
100
DictionaryVariables
280
     0
  1
127
  0
DICTIONARY
  5
3B9
330
ED
100
AcDbDictionary
280
     1
281
     1
  3
ACAD_XREC_ROUNDTRIP
360
3BA
  0
DICTIONARY
  5
3B7
330
EC
100
AcDbDictionary
280
     1
281
     1
  3
ACAD_XREC_ROUNDTRIP
360
3B8
  0
DICTIONARY
  5
3BB
330
EE
100
AcDbDictionary
280
     1
281
     1
  3
ACAD_XREC_ROUNDTRIP
360
3BC
  0
DICTIONARY
  5
471
330
7F
100
AcDbDictionary
280
     1
281
     1
  3
ACAD_XREC_ROUNDTRIP
360
472
  0
XRECORD
  5
3BA
102
{ACAD_REACTORS
330
3B9
102
}
330
3B9
100
AcDbXrecord
280
     1
102
MATERIAL
148
0.0
149
0.0
149
0.0
 93
        0
 94
       63
282
     0
 72
     1
 77
     1
171
     1
175
     1
179
     1
273
     0
  0
XRECORD
  5
3B8
102
{ACAD_REACTORS
330
3B7
102
}
330
3B7
100
AcDbXrecord
280
     1
102
MATERIAL
148
0.0
149
0.0
149
0.0
 93
        0
 94
       63
282
     0
 72
     1
 77
     1
171
     1
175
     1
179
     1
273
     0
  0
XRECORD
  5
3BC
102
{ACAD_REACTORS
330
3BB
102
}
330
3BB
100
AcDbXrecord
280
     1
102
MATERIAL
148
0.0
149
0.0
149
0.0
 93
        0
 94
       63
282
     0
 72
     1
 77
     1
171
     1
175
     1
179
     1
273
     0
  0
XRECORD
  5
472
102
{ACAD_REACTORS
330
471
102
}
330
471
100
AcDbXrecord
280
     1
102
ACAD_ROUNDTRIP_PRE2007_TABLESTYLE
 90
      512
 91
        0
  1

 92
      512
 93
        0
  2

 94
      512
 95
        0
  3

  0
ENDSEC
  0
EOF
